/* XPM */
static char *saweed_removebg_preview1655144708[] = {
/* columns rows colors chars-per-pixel */
"64 64 253 2 ",
"   c #126B19",
".  c #29771D",
"X  c #2B6D14",
"o  c #187829",
"O  c #0B7935",
"+  c #157835",
"@  c #0B702B",
"#  c #23792B",
"$  c #26793A",
"%  c #32742E",
"&  c #225916",
"*  c #467A36",
"=  c #167947",
"-  c #077A59",
";  c #0E7552",
":  c #35794C",
">  c #167A66",
",  c #0D7677",
"<  c #137979",
"1  c #0D736E",
"2  c #347B6E",
"3  c #4A774B",
"4  c #477C6E",
"5  c #19872B",
"6  c #0E8437",
"7  c #1A8637",
"8  c #199638",
"9  c #099338",
"0  c #26862A",
"q  c #358928",
"w  c #288738",
"e  c #358938",
"r  c #2A933D",
"t  c #389333",
"y  c #27891F",
"u  c #51881B",
"i  c #6C961C",
"p  c #478B29",
"a  c #569429",
"s  c #499839",
"d  c #579B39",
"f  c #4A8E30",
"g  c #6E9B2B",
"h  c #5BA52D",
"j  c #59A838",
"k  c #4CA73B",
"l  c #66A72C",
"z  c #77A92C",
"x  c #7CB42D",
"c  c #68AA38",
"v  c #75A934",
"b  c #68B33B",
"n  c #78B739",
"m  c #68B32E",
"M  c #79C23D",
"N  c #188947",
"B  c #079C46",
"V  c #189849",
"C  c #088457",
"Z  c #168759",
"A  c #0F8E4C",
"S  c #2A8C46",
"D  c #269745",
"F  c #399747",
"G  c #27865A",
"H  c #3B8658",
"J  c #389755",
"K  c #2D9051",
"L  c #0AA64B",
"P  c #16A44B",
"I  c #08AA52",
"U  c #18A553",
"Y  c #29A558",
"T  c #178965",
"R  c #19906C",
"E  c #278867",
"W  c #388768",
"Q  c #2A8977",
"!  c #388876",
"~  c #36946D",
"^  c #33A364",
"/  c #489C45",
"(  c #579845",
")  c #4A9659",
"_  c #53995A",
"`  c #498A50",
"'  c #689D59",
"]  c #4BA647",
"[  c #58A947",
"{  c #59B548",
"}  c #48A85A",
"|  c #5CA55B",
" . c #5BB654",
".. c #42B15C",
"X. c #68A947",
"o. c #6CBB43",
"O. c #66B748",
"+. c #74BC44",
"@. c #7CBD44",
"#. c #75BC4B",
"$. c #79B949",
"%. c #66A858",
"&. c #69BA57",
"*. c #7ABC52",
"=. c #76B859",
"-. c #76AA51",
";. c #458867",
":. c #489666",
">. c #559967",
",. c #468A76",
"<. c #489476",
"1. c #569779",
"2. c #558D74",
"3. c #629A6D",
"4. c #58A665",
"5. c #51AC6D",
"6. c #67A768",
"7. c #73AC66",
"8. c #6AB566",
"9. c #78B968",
"0. c #6CB374",
"q. c #7BB876",
"w. c #6DA878",
"e. c #7BC243",
"r. c #77C249",
"t. c #6CC158",
"y. c #7BC354",
"u. c #78C35A",
"i. c #78C364",
"p. c #6DC16C",
"a. c #85B52E",
"s. c #87B938",
"d. c #96B834",
"f. c #8BC43B",
"g. c #93C53C",
"h. c #96C83A",
"j. c #90C32C",
"k. c #A1C73D",
"l. c #86BC46",
"z. c #8BBB4D",
"x. c #86BB67",
"c. c #85B975",
"v. c #84C243",
"b. c #8DC443",
"n. c #83C44C",
"m. c #8AC74A",
"M. c #93C543",
"N. c #95C943",
"B. c #99CB42",
"V. c #98C94A",
"C. c #96D147",
"Z. c #87C656",
"A. c #98C958",
"S. c #91D455",
"D. c #A3CF4E",
"F. c #89C566",
"G. c #97C965",
"H. c #88C578",
"J. c #96C778",
"K. c #99D16B",
"L. c #A2CE6C",
"P. c #16778A",
"I. c #127090",
"U. c #2C7B89",
"Y. c #317C90",
"T. c #1B7AB0",
"R. c #257CAA",
"E. c #2C7FC3",
"W. c #19848F",
"Q. c #2A8888",
"!. c #398787",
"~. c #288B9B",
"^. c #3C8B9B",
"/. c #378696",
"(. c #37979B",
"). c #30928F",
"_. c #1E82BC",
"`. c #2A8AA5",
"'. c #388BA8",
"]. c #3A94A8",
"[. c #2887BB",
"{. c #368CB9",
"}. c #2D92B7",
"|. c #3795B8",
" X c #2F96A6",
".X c #38A0B6",
"XX c #458987",
"oX c #489587",
"OX c #559788",
"+X c #489496",
"@X c #4B9299",
"#X c #52A28F",
"$X c #70B191",
"%X c #4596AA",
"&X c #4599B8",
"*X c #4D96A9",
"=X c #4FA4B2",
"-X c #619E94",
";X c #2385C2",
":X c #2A85C4",
">X c #258AC5",
",X c #2B8BC5",
"<X c #268BCA",
"1X c #2B8CCB",
"2X c #2786CB",
"3X c #318DCC",
"4X c #348CC4",
"5X c #2C91C5",
"6X c #2C92CC",
"7X c #2692CC",
"8X c #3393C4",
"9X c #3393CD",
"0X c #3A94CC",
"qX c #349ACC",
"wX c #3B98C6",
"eX c #2C8DD2",
"rX c #2A8BD4",
"tX c #338DD3",
"yX c #358ED9",
"uX c #2E93D3",
"iX c #2D99D3",
"pX c #2D94D7",
"aX c #3394D3",
"sX c #3995D3",
"dX c #349AD5",
"fX c #3A9BD4",
"gX c #3494DA",
"hX c #359ADB",
"jX c #3A9CDB",
"kX c #3B95DA",
"lX c #3BA2DC",
"zX c #39A1D7",
"xX c #3CA2CD",
"cX c #3A9CE2",
"vX c #379AE2",
"bX c #2998E0",
"nX c #3DA4E3",
"mX c #3AA6E6",
"MX c #1D89C1",
"NX c #4499C8",
"BX c #439CD6",
"VX c #47A4C7",
"CX c #45A5DA",
"ZX c #52AACF",
"AX c #429EE2",
"SX c #43A4E3",
"DX c #44AAE4",
"FX c #47A9EA",
"GX c #4BB2EE",
"HX c #6AB6C4",
"JX c #7EC790",
"KX c #83BF8B",
"LX c #8EC688",
/* pixels */
"pXFXlX5X5XzXlXpX<X2XtXsXsX,X>X>X3X:X4XqX3X3XsXwXY.U.XX%X4XyXgXtXpXDXNX^.!.Y.BXAX6XdXqXsXaX6X,X:X9XaXaXaX<X2X1XeXeX1X<XpXuXuXaX<X",
"iX<X1XdXzX7X<XiXaXeXtXkXtX1XfXqX3X3X5X1X1XeX3XBX%X@X-XXX&XR.1X,X8X'.(.+X-XY.0XkXmXhXsX5X>X6XuX[.;X1XkXdXaX1XdXhXcXjXjXkXcXjXuXpX",
">XuXhXSXhXiXdXjXjXkXtXtXMXdXDXdX6X6X1XhXvXeXtXaXBX@XLXKX4 -X{.&X@X<.7.LXXX{.3XgXvXnXmXmXpXpXjXuXaXdX1X<X1XtXkXjXlXrXjXnXhXkXaXjX",
"SXDXhXvX7XiX>X_.T.2X1XuXnXmXdXDXjX<X<X6XtXeX<XtXeX%X_ J.LX3.XXXX1.H.L.%.%XBX2XrXrXvXvXmXnXhXgXgXcXkX3X3XdXdXuX9XaXaX1XeX1XjXFXhX",
"6X<X2XpXvXnXSXCXfXdXmXlXpXmXmXvXcXGXgX<XtX1XaX6X2XNX;.c.G.G.* z.L.G.x.;.&X3X1XuX;X<XrXrXgXaXhXDX1XaXsXdXaX2X:XeX1XsX3X1XuX2XaXsX",
"aXaXuX1XpX1XfXfXfXCXDXhXmXGXpXpXrXrXpXiXkXkX9X1XqX&X+Xw.A.a.d.k.k.A.>.! R.1XhX7X5X1XaXeXpXpXBXfXsX9X1XaXfXkXaXaX2XdXFXjXuXdXdXhX",
"mXhX<X3XeX<X;X<XdX,X<XdXmXhX2X2XgX6X5XCXjX3XaX[.[.{./.>.L.* d.k.d.L.2.^.{.1XuX6X1X9XtX1XkXhXcX1X;X1XaX6X1X<X9XdXFXaXsXuX<X1X1XuX",
"pXaXsX3XSXaXdXuXuX6XdXiX7X<XhXrXaXaX6XfXtX[.,X4X,X'.Y.3.x.a.k.k.d.G.OX].{.5X6X1X3XBXBX6XzXdXgXtX<X9XdXaX,X1XfXkXaX0X,X:X1X<XsXdX",
"7X1X2X1X:X,XeXaXhXuX7X7X>X>X0X4XtXtXdX6XuXhX;X,X4X&XXXKX$.z k.j.d.A.>.'.wXmX<X1X:X4XCX:XtXE._.1X1XiX>X>X6XdX6X>X_.<X>XdXuX>X6XfX",
"FXaX1X2X:X3X<XrXaXpX7XiXhX8X'.P.{.jXdX<XT.CX3XtXtX%X4 c.v z D.h.d.D.>.@XwXmXCX3X0X0X,XjX0XR.R.BXaXdXmXdX;X;XFXGXdX1X<X[.1XjXaX1X",
"lX6XeXuXdXfXtX2XhXhXuXiXkXNX@XXX%XZXnXzXI.I.BXdXsX%Xw.L.g g D.h.j.V.x.<.}.>XCXwXI.`.9X8X'.U.R.{.9X6XDXhX6XdXGXhX6X6XaXdXfX6XdXuX",
"6XiXpXiX6X[.tX2X3X1XMX>XkXZX1.$X<.=X5XxXQ.Q '.}.{.XXc.z.v g D.h.f.s.G.:.&XwX~.~.`.|.fXwXXX-XXX{.5X<XlXnXlXlXlXaX6X6XdXGXFXaXlXDX",
"lXlXhXiX6X>XaX2X:XsX6X>X4XY._ J.6.! wX}.T 5.~ =XoX1.A.s.z.g h.h.M.s.D.7.!.].E <.Q.|.9X&X>.LXOX^.{.uXlXjXuXuX6XhXaX;X[.;X[.1XaXjX",
"uXdXDXlX6X,X3X3XsXdX1X0X'.2 x.L.F.>.%X(.T 5.<.W >.x.A.s.V.i g.N.V.s.h.F.,.oXJ 5.Q  X=X! 9.L.w.oXZXpXaX<X:XtXnXCXdXdXhXjXuX6X1X1X",
"7XiXhXeX[.>X[.,XhXgXcXCX/.2.z.k.D.F.;.W J ^ ^ : ( A.s.a.V.g s.V.k.d.s.A.3.;.} } ~ ~ >.9.L.V.x.4 '.[.<XkXaX3XsXaXkXjXaXfXsX1X9X:X",
"hXmXhX<X_.5XfXqXpXgXsXNX,.c.V.z.h.A.x.e ] ..W : *.V.s.s.V.z v V.z.d.x S.0.: J ..} % -.A.B.B.A.3.^.fXaXlX;X1X1XaXuX1X1X:X9X9X9X3X",
"aXhXlXmXDXlXpX<XzXzXfX'.' L.M.B.B.M.S.+.t } E ` z.V.x b.m.v l V.g.j.a.A.6.H J } p g D.V.N.g.V.x.@XVX>XiXpX1X0XsXkXiXiX7X;X1X4X4X",
"rXpXzX7XzXhXpXpX6X,X].OXx.z.g.N.B.M.h.S.p F 2 ;.*.M.v b.m.z v V.f.s.s.G.6.H J t a D.B.B.N.h.g.A.2.^.wXmXzXsXaX3XpXhXmXlX7X5X:XsX",
"cXeXzX7X;XsXhX2X<X}.! 7.L.d.j.h.h.h.h.C.o.e ! 2 %.A.n x D.g v N.m.x s.G.1.! J q e.C.B.B.B.B.d.A.c.oXVXjXkXuX4XsXaX<XiXiXgXvXyX3X",
"aXpXmXmXdX>X2XvXrX'.;.F.B.a.j.h.h.h.h.f.Z.e Q Q ` x.l.n V.i s.M.f.n A.7.! ! S d S.j.B.g.C.h.d.z.G._ ].qXaX3X3X:X2XkXnXvXhXpX<X1X",
"uXnXjX1X6XhXcXyXtX/.3.A.f.a.N.g.h.h.j.C.*.e E ).!.5.F.M g i V.s.x S.q.2 Q.! S { A.N.M.h.g.h.f.s.V.-./.0XfX6XeXyXtXeXaXdXeXgXkXuX",
">X6X2X2X>XaXFXcXkXY.%.A.s.s.N.g.h.j.h.S.d w ^ R =X!.| Z.u z.z.s.Z.7.4 @XQ.~ S s V.C.f.C.j.g.f.x B.=./.fX1X>XgXkXFXAX3X4XdXjX1X,X",
"5XdX2XrXgXaXrX2XsXY._ A.n s.M.g.h.N.f.+.0 U Y T ].].;.* z.z.z.x.%.1.%X{.T R Y 5 r.N.h.C.g.M.s.x V.=.U.qXfXlXhXgXrXtXsX0X:X,X3X:X",
"9X,XaXvX2X:XpXhX3X%X>.G.z.v f.M.g.b.S.a 8 P L R Q ).W 3.z.l.m.d ` ,.].W.U P P 8 f V.M.f.M.V.a.x A.6.Y.4X5XlXhXgXtXyXsX3X<X3XfXfX",
"dX1XaXrX1XjXSXdXgXNX<.i.z.a.a.g.g.f.Z.q P L P Y N $ =.@.l.m.i h i.} N R P P L 8 q S.f.M.b.b.z z.F.>.^.[.[.,X>XdXdXsXrXrXuXuX6XjX",
";XuXeXgXfX0XqX7XuXwX!.5.F.s.x M.b.m.C.q 8 P P 8 0 &.n v.F.a d F.j # N U L L U 8 q S.b.b.m.v a.Z.q.,.{.sX8XzXkX;X>X6X<XvXvX7X1XkX",
"<X1XaXaXhXjX>X6XiX8X|.Q.q.A.z n C.M m.M 5 D D 0 O.$.@.Z.0.` ` w.w V P I I L P y O.e.v.b.f.z V.x.1./.NXCX[.5XfXqX1XdXpXvXaX1X9XsX",
"lXdXFXcXaXaX6XlXdX7XdX&X4 c.A.z f.m.f.y.] 0 0 ] *.n e.i.<.XX2.: N V V I I P 5 O.S.f.b.f.z Z.x.>.^.4X9XdX5X,X1XuXjXfX1X2X6XsXsX3X",
"5XdXhXDXcX1X1X;X7X7X6X4X*X2.F.l.x b.f.e.&.. q u.c n m.t.<.+XOX= Y 9 L I L 8 t S.v.f.v.x s.F.1.%XBXcX1X<XaXdX6X2X2XeXsX9X[.[.1XsX",
"7XiX<XuXtX:X1XaXuX6XtXfXNXXX=.b.n n b.Z.[ . [ Z.c $.e.u.~ #XOX= U B L I I 9 t e.v.M n n Z.%.Y.BXSXmXmXmXhX9XaXhXeXkXBX8X5XzXtXtX",
"lXiXeX1XdXkX1XdXfX1X0X4X0X/.%.m.n s.v.Z.F # j n.c @.n u.1.;.>.w V B B L I P 0 y.y.f.n l.Z.) /.tX1XeXvXmXdX1X2X1XvXAXFXdXpXmXmXvX",
"<X<XuXhX,X[.,X,X,X6X5X5X|.! -.m.n n m.o.w 7 k n.n c r.Z.9.% 7.w B I L L I L 5 { Z.f.v n.Z.` ].6XaXgXgXpXyXAXfX1XeX2X9X6XlXmXvXyX",
"vXgXhXiX0X3X3XgXaX9X6X}.(.<.F.@.x l.m.{ 7 8 s Z.+.c n #.u.X.d w B I B B I L 7 s y.e.n e.n._ '.SXmXcXgX1XAXBX2X9XtXeXsXfX7XuXvXtX",
"rX<X7XlX}.wX|.NXNX0X6XVX<.9.*.s.n v.v.O.5 D 5 &.y.b h n.+.z.p o U L L L L P 5 [ n.e.M n b.%.2 ,XaXpXAXBX4XT.E.,XtXaX3X<X9X5XsXtX",
";X<X7X6X{.'.OX,.*XNX[.Q.6.Z.m.n n e.e.u.0 D w / y.n m h @.#.F.e N U B B U 9 0 t.+.l.m n b.9.,.].8XgXAXNX&X%XwX:X;XgXyXpXDXxX<XrX",
"fXjXiX6X4X@X$X$X2.U.@X! 9.s.M n m n.r.r.=.q w 0 #.Z.+.h c #.*.&.5 V V B V 5 t.r.Z.n.n n n Z.w.oX].&XY./.=X/.{.sXsXrXyXgXqX9XfX5X",
"BXkXSXvXaX&X<.LXF.x.3 ` z.l.e.b l @.e.r.y.=.q . s #.#.+.h b o.u.%.0 8 8 0 t.r.#.$.*.v n M y.q.;.;.:.7.LX-X^.{.:XrXyXrXyXfX9X9X1X",
":X:XpXbXrX}.! ' A.z.G.g v l.r.e.b l e.e.@.y.8.. X #.$.o.b j o.+.u.s   0 t.y.+.e.z.X.c m.M #.X.* 7.F.A.=.! *XwXkXjXgXyXkX9X5XdXfX",
"tX1XtX1XjXqX@X2.G.d.z.D.i $.n M e.l m M e.+.Z.d p a y.+.#.a j r.o.O.X &.r.r.n r.c v @.M n.@.u z.A.z.c.2.%X4XkX3XkXjXdXhXhXdXhXnX",
"SXaX2X6XhXfX&XOXx.d.a.D.M.. o.x.r.M h m e.+.r.d ( f o.+.@.b h o.r.o.a *.r.e.r.h v *.@.n.b u s.D.a.A.c.4 R.tX9XaX9X9XaXCXuXpXpXgX",
"sXdXdXuXdXqX%X<.Z.j.x b.S.v % 3.=.+.r.h +.#.r.j d c d #.$.X.h o.r.r.p n.+.e.l b +.y.9.| . l.B.s.s.G.3.!.}.7XaXkX,X:X0X9X3X1X;X1X",
"aXiXdXpXjXwX!.6.S.x a.b.f.Z.2.4 7.u.r.c X.#.r.s . =.p #.*.O.h b b b p y.l.b b o.r.8.>.H -.V.g.f.v G.w.XX{.<X2XjXdX9X:X[.9XaX1X>X",
"qXaXuX2X<X}.;.9.Z.g s.M.b.H.#XXX;.8.=.b X.u. .y 5 ] d -.*.O.h o.+.b X #.r.b m t.t._ oX<.9.b.b.s.m Z.7.<.&XhXeXrXtX2X9X0X0X3X0XsX",
"<XaXaXdXhX'._ G.o.z g.s.m.9.U.*X,.6.u.o.j t.k 5 r 7 ` ( =.c h O.&.{ & / y.j b t.%.;.(.!.i.f.m.v.l Z.F.>.].aXcXgXrXiX6X5X[.T.tXsX",
"pXhX:X:X1XR.6.Z.g @.s.b.m.6.< '.2 ) u.h b t.0 D U 6 + f t.m k r.t.[ o w t.c b t.4.oX%X!.F.f.v.m.v b A.>.(.5XzXmXmXmXzX7X1XhXSX2X",
"rXgX>X4X3XY.6.$.c m.M.v.Z.>.%X].2 4.=.j r. .5 V V B + w t.{ h { &./ w r &.O.j i.5.oX&X+X-.m.f.l.@.l Z._ (.xX;X>XMX7X7X7XhXDXcXgX",
"<X1X,X9XtX%X>.X.O.$.m.y.9.W VX|.W &.j c &. .w V L 9 P 5  .o.m { t.t 0 w t.t.k  .4.W {.Q.| n.@.n.m.c x._ (.iXE.E.>X>XjXSX7X1XkXhX",
"jXdXfX3XyX&X:._ =.r.e.u.6.,.].~.:.&.k u.&.&.r 8 P 9 V 9  .{ { { O.y . ] t.O.{ [ 8.W |.].>.Z.@.v.z.X.%.#XVXaX3X3XsX<XGXGXiX1XdX1X",
"AXuX;X6XaXCX^.W 8.$.+.y.4.oXVX'.} =.[ / [ &. .5 V B B 6  .b { t.{ X f ( k &.O.[ 0.W |.&X_ x.@.e.*.%.;.^.4XkXnX9X3XaXpXmXmXhX7XqX",
"gX6XqXiX1XqX|.!.:.p.u.*.| ~ =X*X:.8.0   s &.&.] 5 V V 6 k t.k t.s % 7.X d t.d { 0.2 %X@X_ y.y.#.i.) !.|.fXaX;X1X1X1X2XpXgXpXfXhX",
"DX7X7X7XaXhXjX{.Y.,.8.i.9.$ XXHX<.: = O # &.O.&.] o V O { { { &.s X.p $.p j h  .>.! XX4 ( u.#.p.~ /.&X}.,X,X;XsXSXsX2X:XqXGXkX;X",
"6XuXjXpX1X_.<XsXNX^.! :.0.:.! XX2 ; A N o / t.O.8.t + w { { O.{ q q g z.a j &.[ : 3.4 : 6.8.5.<.%X&X8X}.8X8X3X3X2XsXAXSX0XfX,X1X",
"2XgXhXuXdXdX6X>XzXxX]..X+X#XH $X;.+ = N N @ /  .t. .% % k { t.q o / c l.a 7.X % d J.3 4 -XoX!.`.|.4XaXSX9X[.aXT.dXdX6XCXzXdXsX3X",
"sXuXqXzXxXfXqX,XqXzXqX|.~.!.H + 4.$ O O 6 7 7 t ]  .( ` X.{ F o S ` x.d . % % ( Z.-.% 4 Y.*X%X{.{.wX0XaXtX3XtXaX6XdX>X6X[.>XsXsX",
"8X[.}..X|.}.}.}..X~.~.Q.> > E G @ @ @ 6 @ 5 F F t s %.`  .0 @ 7 r 4.` % 7 r / %.=.` ,.XX2 Q ).).^. XNXBXyXvXvX2X;X;XaXdX<XuXdXCX",
"}.W.I.I.P.I.P.P.I.R < > > - ; Z N 7 8 7 S o # e %.( * % e @ O A K : + + 7 7 ] / % + = Z E J ~ ~ ~ !.Q /.'.{.{.4X9X8X1X6XhXGXFX1X",
"9X4X`.I.I.P.< , , < , , 1 , > T N S D S w e s q f 7.%.& @ O A = O @ O O = N + @ 6 5 N K J J } 5.6.9.9.%._ ;.XX'.&XCXDX9XfXhXhX7X",
"4X3XBXVX{. X.X.X~.~.).(.Q.Q.Q E = 6 7 0 0 y % d ( d %.& o N @ + + + @ 6 O @ O O O N 7 r F J J :.:.) 4.q.LXKX$X-X@X*X%X{.wXwX6X<X",
"8X8XqXzXCXVXiXxX|.~. XQ.C C C A V S r s j O.*.u.d e % $ w +         7 A A V V A 6 + K F w E +X]. X].'.^.!.OX$X$X$X$X$X*X=X%XI.,X",
"{.T._.qX5X.X.XI.R , - - ; 6 A A K .... .=.#.s % 0 $ e w S J _ _ %.) N A C A V Y J D w t >.1.+X%X|.wXNXNX{.%X@X,.2.2.-XXXY.'.NX8X",
"sXR.I.1 1 - - C C C A N A A A Z ~ W ~ :.: o @ A 7 7 D J } 4.6.0.q.LXG > T > Z Z ^ } [ k d [ | >.,.Q.%X{.NXBXNXZX|.'.NX{.&X4XsXfX",
"4XCX}.P., T C C C - - Z - A Z R Q ! E = = = C C C T T E W ~ <.! ! oX< ~. X~.).Q.E E ~ 4.8.%.=.q.0.w.-XXXY.Y.'.{.:XkX3X2XyX:XjXdX",
"sX0X9XqXVX}.~.W.W.~.R.~.P.P.Q Q Q > ; > ; > R W.W.~. X}.'.|.VXCXVX|.xXxX5X9XwX|.}.}.~./.!.#X$Xq.c.LXLXc.c.w.$X#XR.[.vXFXAXjXsX,X",
";X1XpXkXtXaX4X|.|.wX4X4X{.Y.1 > ; > R Q Q Q. X.X}.xXaXsX0XdXnXbXpX1XgXkXvXcXkXvXvXgXSXVX%X).,._ ' v a.z.l.-.4.,.'.wXgXSXkXBX9X3X"
};
