/* XPM */
static char *_00873035b1c437ed9ccf4123c3815ccOcpnIEBIzCyzsCUH[] = {
/* columns rows colors chars-per-pixel */
"64 64 196 2 ",
"   c #889D58",
".  c #8CA74E",
"X  c #92AC4B",
"o  c #86A152",
"O  c #8BA552",
"+  c #8DAA53",
"@  c #8CA559",
"#  c #8EAA5D",
"$  c #90A757",
"%  c #91AD55",
"&  c #93AD5C",
"*  c #99AD5E",
"=  c #95B256",
"-  c #95B25C",
";  c #9AB45D",
":  c #9DB85F",
">  c #A0B75F",
",  c #A1BA5E",
"<  c #869864",
"1  c #939F6D",
"2  c #95A364",
"3  c #94AD63",
"4  c #99AD65",
"5  c #93A66C",
"6  c #97AC6A",
"7  c #9AAD6C",
"8  c #95B263",
"9  c #9BB563",
"0  c #9DB965",
"q  c #9CB46B",
"w  c #9EB96C",
"e  c #97AA71",
"r  c #9CAC73",
"t  c #97A87C",
"y  c #9DAE7A",
"u  c #9DB473",
"i  c #9EBA73",
"p  c #9EB37A",
"a  c #A2AD6B",
"s  c #A1B666",
"d  c #A2BB64",
"f  c #AABD65",
"g  c #A1B66D",
"h  c #A3BC6C",
"j  c #A9BE6F",
"k  c #A3AE76",
"l  c #A0AE79",
"z  c #A2B573",
"x  c #A8B276",
"c  c #A4BB73",
"v  c #A9BE75",
"b  c #A3B47B",
"n  c #A4BB7B",
"m  c #AABC7B",
"M  c #9FC264",
"N  c #9AC06B",
"B  c #A6C265",
"V  c #ABC167",
"C  c #A6C16D",
"Z  c #AAC36C",
"A  c #AEC86D",
"S  c #A5C273",
"D  c #AAC374",
"F  c #ACC972",
"G  c #A6C27C",
"H  c #ACC37B",
"J  c #B1C775",
"K  c #B0C57E",
"L  c #B2CC7B",
"P  c #9FAA80",
"I  c #A3AE8C",
"U  c #A5B582",
"Y  c #A9B585",
"T  c #A3BB81",
"R  c #AABC84",
"E  c #A6B689",
"W  c #AAB789",
"Q  c #A5B988",
"!  c #ACBD8B",
"~  c #B2BE8B",
"^  c #A9B391",
"/  c #AEBD93",
"(  c #AFBD9C",
")  c #B2BE93",
"_  c #B2BE98",
"`  c #BBBFA4",
"'  c #ADC384",
"]  c #A9C882",
"[  c #AEC38C",
"{  c #B2C283",
"}  c #B5CB83",
"|  c #BDCF85",
" . c #B2C38B",
".. c #BCCC8E",
"X. c #B6D18A",
"o. c #B4C494",
"O. c #B8C693",
"+. c #B5CB94",
"@. c #BACA95",
"#. c #B7C39B",
"$. c #BDC69D",
"%. c #BBCB9D",
"&. c #B8C6A2",
"*. c #BDCCA3",
"=. c #B8C0AB",
"-. c #BDC6B1",
";. c #BFC9B0",
":. c #C4D08E",
">. c #C0C897",
",. c #C0CE9D",
"<. c #C3D49C",
"1. c #C2CEA4",
"2. c #C5CDAE",
"3. c #C4D4A5",
"4. c #CAD6A6",
"5. c #CBDCA4",
"6. c #C5D4AD",
"7. c #CBD5AB",
"8. c #CBD8AA",
"9. c #D1D8AE",
"0. c #C2C6B4",
"q. c #C5CCBA",
"w. c #C7D2B1",
"e. c #CAD5B3",
"r. c #CDDBB5",
"t. c #CED6BE",
"y. c #CFDDBA",
"u. c #D3DDB4",
"i. c #D2DCB9",
"p. c #CEE2AF",
"a. c #D8E7AC",
"s. c #DFEBAB",
"d. c #D4E6AC",
"f. c #CFE0B6",
"g. c #D3E2B6",
"h. c #D5E2BB",
"j. c #D6EAB9",
"k. c #D8E9BD",
"l. c #DDE4BB",
"z. c #DEF3BB",
"x. c #CDD0C9",
"c. c #D4DEC6",
"v. c #D5D7C9",
"b. c #D6D8CA",
"n. c #DADCCC",
"m. c #DADED2",
"M. c #D6E2C3",
"N. c #DAE4C4",
"B. c #DCE9C4",
"V. c #DBE5CC",
"C. c #DEEACD",
"Z. c #DDE4D2",
"A. c #DBE3D8",
"S. c #E1EBC4",
"D. c #E1E7CD",
"F. c #E2EBCC",
"G. c #E9F8C1",
"H. c #E5F2CD",
"J. c #EAF5CB",
"K. c #F0FCCE",
"L. c #E2E4D6",
"P. c #E4EED4",
"I. c #E9EFD2",
"U. c #E4E6D8",
"Y. c #E5ECDD",
"T. c #E9EDDE",
"R. c #E6F2D1",
"E. c #EAF4D4",
"W. c #ECFBD1",
"Q. c #E6F1DA",
"!. c #ECF4DC",
"~. c #EEFBDE",
"^. c #F1F5DF",
"/. c #F4FBDD",
"(. c #FBFFDE",
"). c #E6E7E4",
"_. c #E5E8E1",
"`. c #EEEEEB",
"'. c #EDF4E3",
"]. c #EFFBE5",
"[. c #EEF3ED",
"{. c #EEFAEC",
"}. c #F3F6E4",
"|. c #F4FCE4",
" X c #FAFFE5",
".X c #F2F4ED",
"XX c #F5FCEB",
"oX c #FBFEED",
"OX c #F5F5F5",
"+X c #FAF7F6",
"@X c #F6FAF3",
"#X c #FCFEF4",
"$X c #F6F6FB",
"%X c #FAF6FD",
"&X c #F6FBFC",
"*X c #FFFFFE",
/* pixels */
"*X*X*X*X*X*X*X*X*X*X*X*X*X*X*X*X*X*X*X*X*X*X*X*X*X*X*X*X*X$X*X&X*X*X*X*X*X*X*X*X*X*X*X*X*X*X*X*X*X*X*X*X*X*X*X*X*X*X*X*X*X*X*X*X",
"*X*X*X*X*X*X*X*X*X*X*X*X*X*X*X*X*X*X*X*X*X*X*X*X*X+X*X+X*X$X*X*X*X*X*X*X*X&X&X*X*X*X*X*X*X*X*X*X*X*X*X*X*X*X*X*X*X*X*X*X*X*X*X*X",
"*X*X*X*X*X*X*X*X*X*X*X*X*X*X*X*X*X*X*X*X*X*X*X*X*X+X*X*X#X@Xm.*X*X%X*X*X*X*X*X*X*X*X*X*X*X*X*X*X*X*X*X*X*X*X*X*X*X*X*X*X*X*X*X*X",
"*X*X*X*X*X*X*X*X*X*X*X*X*X*X*X*X*X*X*X*X*X*X*X*X*X+X*X*X@X[.` oX*X*X*X*X*X*X*X*X*X*X*X*X*X*X*X*X*X*X*X*X*X*X*X*X*X*X*X*X*X*X*X*X",
"*X*X*X*X*X*X*X*X*X*X*X*X*X*X*X*X*X*X*X*X*X*X*X*X*X*X*X*X#XQ.I W.*X*X*X*X+X*X*X*X*X*X*X*X*X*X*X*X*X*X*X*X*X*X*X*X*X*X*X*X*X*X*X*X",
"*X*X*X*X*X*X*X*X*X*X*X*X*X*X*X*X*X*X*X*X*X*X*X*X*X*X*X*X#XM.y d.*X*X*X&X*X*X*X*X*X*X*X*X*X*X*X*X*X*X*X*X*X*X*X*X*X*X*X*X*X*X*X*X",
"*X*X*X*X*X*X*X*X*X*X*X*X*X*X*X*X*X*X*X*X*X*X*X*X*X*X*X&XoXw.p X.*X*X*X*X*X%X*X*X*X*X*X*X*X*X*X*X*X*X*X*X*X*X*X*X*X*X*X*X*X*X*X*X",
"*X*X*X*X*X*X*X*X*X*X*X*X*X*X*X*X*X*X*X*X*X*X*X*X*X*X&X&X@X%.u h *X*X*X*X*X*X*X*X*X*X*X*X*X*X*X*X*X*X*X*X*X*X*X*X*X*X*X*X*X*X*X*X",
"*X*X*X*X*X*X*X*X*X*X*X*X*X*X*X*X*X*X*X*X*X*X*X*XoX*X*X*XG.% q p L.#X#X*X*X*X*X*XXX*XOX*X#X#X*X*X*X*X*X*X*X*X*X*X*X*X*X*X*X*X*X*X",
"*X*X*X*X*X*X*X*X*X*X*X*X*X*X*X*X*X*X*X*X*X*X*X*XoX*X%X#X5.> - b n.#X*X*X*X*X*X*X#X*X*X`.#X#X*X*X*X*X*X*X*X*X*X*X*X*X*X*X*X*X*X*X",
"*X*X*X*X*X*X*X*X*X*X*X*X*X*X*X*X*X*X*X*X*X*X*X*X#X*X*XY.m V % c b.#X#X*X*X%X*X*X*XOX&Xx.#X*XOX*X*X*X*X*X*X*X*X*X*X*X*X*X*X*X*X*X",
"*X*X*X*X*X*X*X*X*X*X*X*X*X*X*X*X*X*X*X*X*X*X*X*X%X*X*Xr.4 V + w v.#X*X*X*X%X*X*X&X@X'.0.*X*XOX*X*X*X*X*X*X*X*X*X*X*X*X*X*X*X*X*X",
"*X*X*X*X*X*X*X*X*X*X*X*X*X*X*X*X*X*X*X*X*X*X*X*X*X+XoX~ 4 0 - 0 b.#X*X*X*X%X*X*X&X#Xw.2.#X*X*X*X*X*X*X*X*X*X*X*X*X*X*X*X*X*X*X*X",
"*X*X*X*X*X*X*X*X*X*X*X*X*X*X*X*X*X*X*X*X*X*X*X*X*X'.S.u 9 = 0 0 n.#X*X*X*X$X*X*X&X].' 8.#X*X*X&X*X*X*X*X*X*X*X*X*X*X*X*X*X*X*X*X",
"*X*X*X*X*X*X*X*X*X*X*X*X*X*X*X*X*X*X*X*X*X*X*X*X*XP.O.0 0 - i w U.#X*X+X*X*X*X*X{.3.c ..oX*X*X*X*X*X*X*X*X*X*X*X*X*X*X*X*X*X*X*X",
"*X*X*X*X*X*X*X*X*X*X*X*X*X*X*X*X*X*X*X*X*X*X*X*X*XD.4 j - 0 i i T.#X#X*X*X%X*X*XQ.6 s v oX*X&X*X*X*X*X*X*X*X*X*X*X*X*X*X*X*X*X*X",
"*X*X*X*X*X*X*X*X*X*X*X*X@X*X#X@X*X+X#X*X*X*X*X*X/.$.u 0 = = D K +X#X*X#X#X*X&X.XG 3 s R !.&X*X&X*X%X*X*X*X*X*X*X*X*X*X*X*X*X*X*X",
"*X*X*X*X*X*X*X*X*X&X*X*X*X+X*X*X*X+X#X*X%X%X*X#Xl.Y z : = d z <.@X*X*XOX*X#X!.0.c 8 h n H.*X*X*X*X*X*X*X*X*X*X*X*X*X*X*X*X*X*X*X",
"*X*X*X*X*X*X*X*X*X+X*X*X*X+X%X*X*X+X*X*X%X%X*X|.@.6 S = - H b S.#X*X*X*X#XXX7.y w - C u B.#X*X*X*X*X*X*X*X*X*X*X*X*X*X*X*X*X*X*X",
"*X*X*X*X*X*X*X*X*X*X*X*X*X%X&X*X*X*X*X*X*X*XoXF.b w w % 0 ' #.XX#X.XOX*X&Xu.m s - - Z 6 i.#X*X*X*X*X+X%X*X*X*X*X*X*X*X*X*X*X*X*X",
"*X*X*X*X*X*X*X*X+X*X*XOX*X*X*X*X*X&X*X*X*X*X}.4.q L & = z b c.*X*X@X&X*XC.! q V # - Z 3 r.@X*X+X*X*X*X*X*X*X*X#X*X*X*X*X*X*X*X*X",
"*X*X*X*X*X*X*X*X$X*X*XOX*X*X@X*X*X%X#X+X*X*XI.~ w L + 8 c E ^.*X@X*X#XN./ b h d 8 9 D 6 i.@X*X@X*X*X*X*X#X*X*X*X*X*X*X*X*X*X*X*X",
"*X*X*X*X*X*X*X*X*X*X+X*X#XL.n.oX*X*X*X%X*X#XS.x i S + 9 n *.XX%X$X*X|.%.u v D + i 9 D u M.&X*X+X#X*X#X@X.X@X*X*X*X*X*X*X*X*X*X*X",
"*X*X*X*X*X*X*X*X*X*X+X#X#X2.`  X%X*X*X*X*X+Xl.a G # 8 9 c u.oX*X*X@Xh.R g D h @ n 0 H b C.*X*X*X&X*X*X.X).`.#X*X*X*X*X*X*X*X*X*X",
"*X*X*X*X*X*X*X*X#X*X%X*Xs.f $.*X*X#X#X*X+X#X3.g c 9 % j U P.*X+X&X|.) 7 L 9 O w M C i &.^.*X*X*X%X+X X>.V.@X&X*X*X*X*X*X*X*X*X*X",
"*X*X*X*X*X*X*X*X#X*X%X#X:.f ~ +X*X*X#X*X*X#X%.g c 9 % j Q Q.*X#X#XM.U g Z ; # c F w b i.oX*X+X*X*X}.9.Y I.*X&X*X*X*X*X*X*X*X*X*X",
"*X*X*X*X*X*X*X*XoX*X%XQ.g f b XX%X*X*X*X*XXXo.h n ; X h R !.*X+X|.#.r D d & 0 S S 6 o./.#X+X%X*XoX7.x k E.#X$X%X*X*X*X*X*X*X*X*X",
"*X*X*X*X*X*X*X*XoX*X*Xu.* f q S.&X*X%X*X*X#X .Z n 9 + C [ ^.#X*XW.b u D = : S c u R F.#X*X+X*X*X7.m 4 m J.*X&X*X*X*X*X*X*X*X*X*X",
"*X*X*X*X*X*X*X*X#X+X#X) s > q <.*X*X*X*X*X#X! h v ; % C R Q.*X+Xp.r v f X s v a Q y.@X*X@X*X#Xc.b 9 s H h.#X*X*X*X*X*X*X*X*X*X*X",
"*X*X*X*X*X*X*X*X*XXXoXb v ; q m '.#X*X%X*X#XR s n 9 = h Q P.+X+X+.q H ; $ j z R h.].&X*X+X#XH.E v 0 : c 1.#X*X%X*X*X*X*X*X*X*X*X",
"*X*X*X*X*X*X*X*X*X&XE.R z * s i 2. X#X*X*X#XR s h 9 = C p Z.@XOXT q v % > v r 4.XX&X*X%X*X|.%.8 S 0 ; z #.@X*X*X*X*X*X*X*X*X*X*X",
"*X*X*X*X*X*X*X*X&X*XV.[ q 4 h z P R.oX*X%X*X~ D z s = C y M.OX.Xp i j $ j R r J.@X*X%X*X*Xi.b C w = 9 K o.[.+X*X*X*X*X*X*X*X*X*X",
"*X*X*X*X*X*X*X*X*X*XP.b D : o ] w i !.*X%XOX3.9 v 8 & h c  .oXA.w H # 0 0 4 y.@X+X*X*X&X X' H q c O A q W _.@X*X*X*X*X*X*X*X*X*X",
"*X*X*X*X*X*X*X*X*X+X!.b A d & i S n r.*X*X*X3.0 c 9 * 9 v ! |.m.0 D # 0 C u M.*X*X*X*X*XR.R n w h + A 9 W '.$X*X*X*X*X*X*X*X*X*X",
"*X*X*X*X*X*X*X*X*X#X^.R h B w 3 S G W _.*X*Xg.c c h * ; H b B.V.9 v # w C n R.*X#X*X%X*Xi.n c v 0 % B 9 ! }.*X#X*X*X*X*X*X*X*X*X",
"*X*X*X*X*X*X*X*X*X#XXX#.g d F @ 8 G z 2.#X#XR.U w S * & K r 4.S.q h # h h R !.*X*XOX*X#X*.z h v 9 - B q #.|.#X*X*X*X*X*X*X*X*X*X",
"*X*X*X*X*X*X*X*X#X&X#Xe.p 9 L # # S v U |.XXoX/ w c 8 % K 7 O.g.s w # C w R |.*X#X+X*XoXo.v h c = ; B c w..X*X#X*X*X*X*X*X*X*X*X",
"*X*X*X*X*X*X*X*X#X*X*XZ.o.3 ] w # 0 Z 6 h.].#Xq.w h s @ v g R <.h 0 # S 0 [ XX*X*X+X*XE. .v 9 h 8 w h  .C.&X&X*X*X*X*X*X*X*X*X*X",
"*X*X*X*X*X*X*X*X&X*X*X@Xh.u H z s * > s [ '.@XY.i h v & j g m } h 9 3 S q [ oX%X*X#X*X2.m v 9 8 w c c 3.XX*X&X*X*X*X*X*X*X*X*X*X",
"*X*X*X*X*X*X*X*X*X*X*X&X].n H v K % X D 5 '.[.*Xv h D & g v v x h q 3 G q [ #X*X#X#X#X^ x s - 3 w S G g.#X*X%X*X*X*X*X*X*X*X*X*X",
"*X*X*X*X*X*X*X*X*X*X*X+X#XR.>.1 g L % - i u.}.*Xi.5 } % = C u R K 8 - C H Y XX*X#X].1.z h - # w j c 1.}.*X*X%X+X*X*X*X*X*X*X*X*X",
"*X*X*X*X*X*X*X*X&X*X*X*X#X}.u.~ u H = : q 3.}.*XF.Y m ; = h w m w 8 N Z 2 3.#X$XoXe.b n C = 8 S 3 @.R.#X*X*X+X*X*X*X*X*X*X*X*X*X",
"*X*X*X*X*X*X*X*X+X*X*X*X*X#X^.N.n i d 0 q ~ }.*X/.1.u h = 0 w n G # w K 5 S.#X*Xj.' g 0 + - G 8 R B.oX*X%X*X+X*X*X*X*X*X*X*X*X*X",
"*X*X*X*X*X*X*X*X#X*X*X*X*X*X*XoX%.b j 9 3 l ^.+XoXN.6 D = 9 h n F w c u ! |.].A.u z F 0 . 9 H n C.oX*X%X%X*X*X#X*X*X*X*X*X*X*X*X",
"*X*X*X*X*X*X*X*X*X*X*X*X%X*X*X*XF.! j : ; e I.@X#X!.b S - & h c - H ' < r. Xh.( S w ; 0 j 6 R j.*X*X*X%X*X*X*X#X*X*X*X*X*X*X*X*X",
"*X*X*X*X*X*X*X*X*X*X*X+X*X*X*X*XoX1.u s ; 6 c.@X&XXXo.n 8 & h v s w n / (.j.E n 0 d      .6.c.oX*X+X*X*X*X%X#X*X*X*X*X*X*X*X*X*X",
"*X*X*X*X*X*X*X*X*X*X*X*X*X*X*X*X#Xi.r Z 0 7 2.oX&X#Xg.i 0 = s n L 7 U B.H.R 6 Z + j m R e.XX*X*X*X%X*X*X*X+X*X*X*X*X*X*X*X*X*X*X",
"*X*X*X*X*X*X*X*X*X*X#X*X#X*X#X*X*XV.7 A : 4 &.#X&X#XE.i w & q S ; } @.g.t u L X s z a.(.oX#X*X%X*X*X+X+X*X*X*X@X*X*X*X*X*X*X*X*X",
"*X*X*X*X*X*X*X*X*X*X*X*X*X*X*X*X*XP.r V , 8 o.|.*X%XXX/ v ; 9 n l  .| V 9 s z b ).OX*X*X*X*X*X*X*X*X*X*X*X*X*X*X*X*X*X*X*X*X*X*X",
"*X*X*X*X*X*X*X*X*X*X*X*X*X*X*X*X+XQ.z j B 8 ! ^.*X*X#Xo.s * - S { z h j g q %.W.OX%X*X*X*X+X&X*X*X*X*X*X*X*X*X*X*X*X*X*X*X*X*X*X",
"*X*X*X*X*X*X*X*X*X*X*X*X*X*X*X*X$X}.R 0 Z q U F.%X*X#Xo.q = 9 n S j 9 4 R u.}.#X*X*X*X*X*X+X*X*X*X*X*X*X*X*X*X*X*X*X*X*X*X*X*X*X",
"*X*X*X*X*X*X*X*X*X*X*X*X*X*X*X*X*XXXo.6 Z w l h.*X*X#Xo.h 9 w ] 0 w z ~ i.oX*X*X*X*X*X*X*X*X*X*X*X*X*X*X*X*X*X*X*X*X*X*X*X*X*X*X",
"*X*X*X*X*X*X*X*X*X*X*X*X*X*X*X*X*XoX6.7 n w z 5.*X*XXX) z B c i w q +.H.#X*X*X%X+X*X*X*X*X*X*X*X*X*X*X*X*X*X*X*X*X*X*X*X*X*X*X*X",
"*X*X*X*X*X*X*X*X*X*X*X*X*X*X*X*X*X#XC.T n z x ..*X&XXXW h h i i n %.H.#X*X*X%X*X*X*X*X*X*X*X*X%X*X*X*X*X*X*X*X*X*X*X*X*X*X*X*X*X",
"*X*X*X*X*X*X*X*X*X*X*X*X*X*X*X*X*X@XXX+.m v m v OX*X|.W z h S T 2.!.*X*X$X*X*X&X*X*X*X*X*X*X*X*X*X*X*X*X*X*X*X*X*X*X*X*X*X*X*X*X",
"*X*X*X*X*X*X*X*X*X*X*X*X*X*X*X*X*X.XXX3.R S D q ).@X|.W g C H [ oX@X*X*X*XOXoXoX*X*X*X*X*X*X*X*X*X*X*X*X*X*X*X*X*X*X*X*X*X*X*X*X",
"*X*X*X*X*X*X*X*X*X*X*X*X*X*X*X*X%X*X*X}.6.p 0 B -.oXQ.! w w *.&X*X*X*X*X*X*X*X*X*X*X*X*X*X*X*X*X*X*X*X*X*X*X*X*X*X*X*X*X*X*X*X*X",
"*X*X*X*X*X*X*X*X*X*X*X*X*X*X*X*X*X%X*X#XC.[ 8 w / ~.N.e q <.P.*X*X*X*X*X*X*X*X*X*X*X*X*X*X*X*X*X*X*X*X*X*X*X*X*X*X*X*X*X*X*X*X*X",
"*X*X*X*X*X*X*X*X*X*X*X*X*X*X*X*X*X%X*X*XXXy.R q i z.5.5 { K.+X*X*X*X*X*X*X*X*X*X*X*X*X*X*X*X*X*X*X*X*X*X*X*X*X*X*X*X*X*X*X*X*X*X",
"*X*X*X*X*X*X*X*X*X*X*X*X*X*X*X*X%X*X*X&X@X|.g.E 3 X.{ b g.oX*X%X*X*X*X*X*X*X*X*X*X*X*X*X*X*X*X*X*X*X*X*X*X*X*X*X*X*X*X*X*X*X*X*X",
"*X*X*X*X*X*X*X*X*X*X*X*X*X*X*X*X$X*X*X$X#X#X}.t.i u u *.|.*X+X*X*X*X*X*X*X*X*X*X*X*X*X*X*X*X*X*X*X*X*X*X*X*X*X*X*X*X*X*X*X*X*X*X",
"*X*X*X*X*X*X*X*X*X*X*X*X*X*X*X*X*X*X+X*X*X*X#X+XC.*.%.F.*X*X%X*X*X*X*X*X*X*X*X*X*X*X*X*X*X*X*X*X*X*X*X*X*X*X*X*X*X*X*X*X*X*X*X*X",
"*X*X*X*X*X*X*X*X*X*X*X*X*X*X*X*X*X+X@X*X*X*X*X*X*XXX!.#X*X%X+X#X*X*X*X*X*X*X*X*X*X*X*X*X*X*X*X*X*X*X*X*X*X*X*X*X*X*X*X*X*X*X*X*X",
"*X*X*X*X*X*X*X*X*X*X*X*X*X*X*X*X+X#X*X#X+X*X*X*X%X*X*X*X%X*X*XoX*X*X*X*X*X*X*X*X*X*X*X*X*X*X*X*X*X*X*X*X*X*X*X*X*X*X*X*X*X*X*X*X"
};
