/* XPM */
static char *Algae1655140672[] = {
/* columns rows colors chars-per-pixel */
"64 64 256 2 ",
"   c #166E1A",
".  c #2C7016",
"X  c #1A782A",
"o  c #0A7A37",
"O  c #147A35",
"+  c #0A712B",
"@  c #257C2B",
"#  c #297637",
"$  c #30722D",
"%  c #255C2C",
"&  c #45782D",
"*  c #157858",
"=  c #13714F",
"-  c #387858",
";  c #2F7052",
":  c #165974",
">  c #166869",
",  c #1B7764",
"<  c #1A6777",
"1  c #127471",
"2  c #396865",
"3  c #297567",
"4  c #387867",
"5  c #266A77",
"6  c #366978",
"7  c #28787A",
"8  c #377979",
"9  c #266A68",
"0  c #275D75",
"q  c #457A49",
"w  c #477557",
"e  c #467967",
"r  c #467876",
"t  c #497372",
"y  c #2F861D",
"u  c #19862A",
"i  c #198737",
"p  c #17963A",
"a  c #0A8B37",
"s  c #27862A",
"d  c #298737",
"f  c #358936",
"g  c #328F34",
"h  c #1DA23E",
"j  c #498A28",
"k  c #558C26",
"l  c #49973A",
"z  c #559839",
"x  c #4D8F30",
"c  c #679929",
"v  c #729C2F",
"b  c #59A638",
"n  c #53A432",
"m  c #67A62C",
"M  c #77AA2B",
"N  c #67A937",
"B  c #75AC36",
"V  c #6AB33B",
"C  c #79B639",
"Z  c #75B22C",
"A  c #628D1C",
"S  c #7AC23C",
"D  c #0B8647",
"F  c #198A47",
"G  c #099B49",
"H  c #199848",
"J  c #178657",
"K  c #159253",
"L  c #278845",
"P  c #358846",
"I  c #279646",
"U  c #399847",
"Y  c #378A59",
"T  c #2E9157",
"R  c #07A64A",
"E  c #16A649",
"W  c #16A555",
"Q  c #09AC50",
"!  c #33A653",
"~  c #169361",
"^  c #3A8766",
"/  c #388476",
"(  c #308B68",
")  c #499A47",
"_  c #498659",
"`  c #548857",
"'  c #499756",
"]  c #589759",
"[  c #519147",
"{  c #689853",
"}  c #5AA847",
"|  c #59B549",
" . c #48A858",
".. c #57A856",
"X. c #59B553",
"o. c #48A745",
"O. c #67A847",
"+. c #68B847",
"@. c #7ABD44",
"#. c #7BBD4A",
"$. c #75B947",
"%. c #68A757",
"&. c #77AA5A",
"*. c #68B956",
"=. c #78BA57",
"-. c #76A74B",
";. c #478767",
":. c #578967",
">. c #5A9866",
",. c #498879",
"<. c #588676",
"1. c #4E9572",
"2. c #69936A",
"3. c #59A768",
"4. c #4DA869",
"5. c #69A666",
"6. c #77A866",
"7. c #6AB964",
"8. c #77B866",
"9. c #75AF76",
"0. c #79C247",
"q. c #6AC257",
"w. c #7AC358",
"e. c #6FC343",
"r. c #7AC265",
"t. c #7AC377",
"y. c #83B92D",
"u. c #86B937",
"i. c #8BB338",
"p. c #8AC339",
"a. c #92C43C",
"s. c #98C83A",
"d. c #87BC46",
"f. c #87BB58",
"g. c #90B753",
"h. c #87B868",
"j. c #8BBA73",
"k. c #84C344",
"l. c #8CC543",
"z. c #88C64B",
"x. c #9BCB43",
"c. c #94C748",
"v. c #88C557",
"b. c #97C957",
"n. c #95D44F",
"m. c #A3CB59",
"M. c #A3D04E",
"N. c #8AC565",
"B. c #98C864",
"V. c #97CC6F",
"C. c #A5CC68",
"Z. c #195D8C",
"A. c #285D85",
"S. c #205F92",
"D. c #1D6796",
"F. c #1B6F8B",
"G. c #296689",
"H. c #35698A",
"J. c #287687",
"K. c #387788",
"L. c #286A97",
"P. c #366C93",
"I. c #386B96",
"U. c #2B739C",
"Y. c #287697",
"T. c #3C7393",
"R. c #34749C",
"E. c #3D759A",
"W. c #387999",
"Q. c #1D6BA4",
"!. c #1C75AC",
"~. c #256DA3",
"^. c #2373A4",
"/. c #2C7CAC",
"(. c #2977A7",
"). c #3C7BA4",
"_. c #337BAB",
"`. c #3779A6",
"'. c #2B7CB4",
"]. c #357DB5",
"[. c #326AA1",
"{. c #477888",
"}. c #437495",
"|. c #43749C",
" X c #437A9C",
".X c #4B7B9C",
"XX c #477798",
"oX c #4B7696",
"OX c #447CA2",
"+X c #4A7DA3",
"@X c #4679A7",
"#X c #517EA3",
"$X c #427EB3",
"%X c #398299",
"&X c #338487",
"*X c #3983A8",
"=X c #2D82B7",
"-X c #3384B4",
";X c #3B8BBC",
":X c #3786B8",
">X c #3085AF",
",X c #478788",
"<X c #488798",
"1X c #538598",
"2X c #558F8B",
"3X c #65948E",
"4X c #4C82A4",
"5X c #4583AB",
"6X c #4C84AB",
"7X c #4986A7",
"8X c #5383A3",
"9X c #5484AA",
"0X c #548AAC",
"qX c #5B8BAC",
"wX c #5886A4",
"eX c #5894AA",
"rX c #4789B7",
"tX c #538CB3",
"yX c #5A8DB4",
"uX c #4A94B9",
"iX c #5993B8",
"pX c #4B94A7",
"aX c #638CAC",
"sX c #6393B4",
"dX c #6797B9",
"fX c #6993B3",
"gX c #58A1B4",
"hX c #6FA4BB",
"jX c #75AA8D",
"kX c #3B8CC3",
"lX c #3D92C5",
"zX c #3D96D0",
"xX c #468DC4",
"cX c #4393C4",
"vX c #4B94C4",
"bX c #4A98CA",
"nX c #5799C7",
"mX c #4A9BD2",
"MX c #589DD1",
"NX c #518EC4",
"BX c #649BC4",
"VX c #699DCA",
"CX c #58A5D5",
"ZX c #56A2CC",
"AX c #6AA3C8",
"SX c #76A7C7",
"DX c #66A7D6",
"FX c #75B3D9",
"GX c #6EB5E6",
"HX c #5FAAE1",
"JX c #85B58F",
"KX c #82B0A5",
"LX c #91C68C",
"PX c #A3D181",
"IX c #87B6D9",
"UX c #94C1C7",
/* pixels */
"tX).].].:XFXIXAX6X5XnXNXrXtXnXrXrXuXtX@XiXSXdXwX{.t }.T.#XVXyX@XI.P.}.t 2 2 #X#XVXaX#XaXIXaX#XdXBX#X#XfXyXBX9X9XdXSXIXfX#XfXfXaX",
"VXDXNX;X`.R.tXBXAXnXNXNXDXBXBXDXnXBXAXDXVXAXAXsX{.2X3Xt 3XaXsXsXaX{.t 3X3Xt H.#X#XqXfX#X#XaXBX9XfX#X#X#XdXdXfXyX#XyXfXIXIXVXaX#X",
"iXDXGXGXDXnXtXtXtXNXMXMXiXuX$X$XyX$X$X$XtXeXtXhXIX<.j.j.w t oX#X<.{ h.j.t oXH.I.I.OX@X#X#X|.#X#X#X#X#X#XE.9XBXyXNX#X@X|.fXIXSXaX",
"bXrXrXrXuXMXnXMXHXVXrXrXrXNXDXNXVXDX$X$X).0X7XeXhXKXh.b.C.w w 2 2.j.C.-.t #XoXoXP.A.|.T.oXaX9XaXsXyX#X#XyX+X+XOX#XyXtX+X@XqXSXSX",
"mXbXbXvX_.(.rX].NXDXAXnXDXAXiXiXNXVXGXVX6X$X5X4XK.t q h.m.C.& i.C.g.g.w 3XaX#X#X#XI.}.}.I.oX#X#X#XyX|.@X9XtX6X@XOX5X6X7X9XVXBX9X",
"kXlXbXDXHXvXxXbXrXnXiXnXuXuXFXBXrX`.$XDXDXuXtXiXBX1X<.6.m.i.i.m.s.m.2.w {.#XBXaXfXfX}.oX#X#XoXoX|.yX#X|.H.OX5XtXtX5XtXtXOX@XBXsX",
"CXlX:X-XvXCXxX].].rXxXvXxXrX).MXiXNXNX_.rXrX*XR.L.8X3X2.C.y.i.x.s.m.2.1X{.6 }.#X#XIXKX#X#X#XfXVXBXyXSXVXyX|.6X5XrXiXrX7X7XE.E.tX",
"CXCXbX;X:X).rXMXnXmXcXcXxXvX*XiXnXxXNX].`.(.*XrXI.T.2 2.g.A x.s.i.m.2.UXSXaXoXoX#X#X#X#X#X#X#X#X#XaXBXVXFXVXtX5X`.OX5XtXtX7X).E.",
"DXHXGXbXbXZXvXmX:X].kX'.:X*XOXR.).ZXDXuX_.U.*XOXR.}.2 6.d.v s.s.s.m.w t aXhXSXfXsXaXfXfXfXoX#X#XwXoX8X4X0XiXAXAXnXdXAXiXtXiXtXiX",
"uXmXHXMXuXnXvXZXNXkXCXcX;XCXiX6 W.W.iXFXtX7X7X).).K.w V.-.y.x.s.i.m.{ e {.}.oX1X{.qXfXVX#XH.oX#X#XqXqX9X4X0X6XtXBX7XiXFXtX<X7XyX",
"kX=XcXmXlXlX;XZXCX].vXkX;X7X3X2X3X).`.W.8 {.AX4X.Xr { b.c v M.s.i.g.h.w {.+XE.K.0 A.#XoXKXt t #X1X.X#XsXyX4XT.E.5X6XOXiXAXdX XT.",
"mXcXcXbX;X>X>X;XDXuXxXvX;XW.w JX3XeXtX<X; 4 2XhXeX:.f.c.v v x.s.i.d.C.{ 3XdX<X/ t {.oXoXw JXt t aXfX1X.XiX0XE.W.%XOX7XtX4XdXBX0X",
"CXGXGXGXCXmXmXbXuXnXbX-X;X<X` V.2.w aXW.3 4.^ e ;.2.C.i.d.v s.s.s.i.m.&.t {.^ 4.6 ,X<X{.` V.w 2 t hXSXdXdXSXiX7X7X X<XiXW.H. XqX",
"vXvXMXCXCXbXzXlXCXFXGXuXpX/ &.m.C.q 2 2XT 4.1.; q h.b.i.z.A a.x.x.y.s.g.e e T X.^ ,X,Xe h.C.h.:.oXoX#XaXiXSXIXFXFXDXtXAXSXAXsXeX",
";X=X].xXZX;X=X=X/.;XuXFXeX:.b.x.M.B.[ ; !  .4.; { B.d.u.c.v i.c.x.y.p.n.2.w )  .4.^ P 8.m.m.g.2.3X#XaX+X6X X4X7X7XAXiX X4X0XsXAX",
"lXHXMXbXmXCXmXkXuX:X6XgX3Xj.c.s.s.b.=.$ ! 4.Y # $.n.u.u.x.M B n.x.p.y.x.h.q U  . .% %.B.g.s.g.{ t #XdX9X0XyX4X X XtXsX0XXXH.}.}.",
"kXkXzXzXmXGXGXCXZXlXvX1X%.B.p.s.s.s.n.V g ! ^ 3.f.l.y.u.c.i.M l.l.u.y.b.6.q U  .f N C.x.x.s.x.g.w t #XfX#X#XfX#XaXoXaXhXwXoXoXoX",
"kXkX=X;X>XcXDXZXbXuXpX,.j.x.s.s.s.s.p.n.x ' ; ; =.c.M g.g.B Z l.l.u.u.b.6.P U U k b.x.x.i.s.s.b.2.t 6 }.#XoX#X#XaX#X1XfXSXhXaXaX",
"kXlXmXmXbXrXrXMXnXuX,.6.C.i.s.s.s.s.s.n.O.) ^ ; O.c.y.y.m.c M c.c.u.d.f.:.:.) . 0.n.x.x.x.s.i.M.j.:.{.}.#X#XoXoXaX#X#XqX1XaXoX}.",
"kXkXkXuXMXMXmXnXnXeX_ N.c.i.i.s.s.s.s.n.v.f ^ 1.] h.d.C b.c u.x.i.d.b.&.;.;.P n n.p.x.s.x.x.y.g.m.` r oX#X#X#XoX|.|..X.X.XoXfXaX",
"xX:XlX>X'.xXcXcXuXpX5.b.p.y.p.c.a.s.s.z.=.P Y ( <.2.v.C B c c.u.Z v.j.w 3 ( P } n.s.s.s.s.x.u.u.m.g.t }.}.H.H.H.|..XE.8XwXwX1XhX",
"'.'.>XzXzXkXmXmXrXK.{ b.y.y.x.x.a.s.p.n.b d T J &X4 %.v.k d.d.u.c.-.w ,X/ ( P l c.s.a.n.a.a.l.y.i.g.w }.H.H.I.|.T. X@XOXsXdX X4X",
"kX'.!.=XkXkXlXCXCX<X{ C.u.y.s.p.s.l.a.0.y ! E K &X2X:.& -.d.d.v.%.` 8 &X~ W ! u @.c.s.c.c.a.u.Z x.g.t wX#X#X@X|.}.E.OXE.T.eX0XwX",
"'.'.=X=X=X=X!.=XvXpX5.N.d.B c.l.a.l.n.j p E E I ( 3X_ %.d.d.l.z [ >.eX( ~ W Q u k M.l.l.l.c.u.u.c.{ 2 oX#X#X#X#XT.}.OX6XE.}.qXpX",
"kXkX:X:X=XkXmXxXbXgX_ N.b.M i.l.z.k.v.f I W R W P # &.f.d.d.c m 8.) L ~ W R R h j c.z.l.a.a.M u.B.] 6 H.H.A.I.yX0X}.E.).P.I.H.+X",
"].'.>XlX;X=X].].:XnX<X3.N.d.M c.l.n.b.g I W E H s *.$.d.N.z z N.} s F W R Q Q p y b.c.k.s.Z u.g.h.w oXtXOX|.|.A.T.K.T.P.|.|.|.I.",
":X>X;X:XlXmXkX(.(./.*X/ h.b.B u.n.p.k.e.p h I i e.V @.v.7._ ] 5.@ g E W R E h u +.l.k.z.u.B c.h.:.8 T.P.OXE.I.|.H.K.T.H.I.I.|.|.",
"lX:X=X=X=XlXCXGXbX:X/.&X;.h.v.Z u.l.p.v.n s u o.0.C k.8.>.,._ - L H R Q R E u | n.p.l.k.B v.f.] 2XeXtX`.`.R.A.I.H.J.H.H.H.A.|.#X",
"/.!.=X=X=X=X=XkXmXlXlX*X8 ;.N.C Z l.p.0.q.@ f =.+.V 0.w.1.,.1.O W G R Q Q p g v.k.p.l.C u.N.>.,.wXOX`.rX6X`.A.I.P.}.9XtX|.I.A.A.",
"=X=X=X=X;X:X;XkX'.=X=X;X*X^ &.c.y.u.p.z.|   } v.N $.k.w.;.8 ;.= H R R R Q p g v.k.p.C B v.%.e <X4XrX*XU.].`.I.A.A.A.I.#X|.}.H.H.",
";XxX;X:X=X>X>XcXmXbXcX*XuX3 O.c.C d.d.w.U s z z.B 0.C v.>.- _ # W G R G Q E g w.k.k.C $.N.` {.E.:X5X*X>X_.$XiXBX XG.: A.H.}.|.T.",
"xXrX_.:XlXlX;X>X].cXZXZXpX^ 6.c.B @.z.+.s i } z.B N k.w.r.f 5.f G R R R R W u } v.p.B z.h.` eXMX).rX*XuXrX$XI.OX6X+XH.G.H.I.OXA.",
"uXvXvX>X-X=XZXCXvX>X*X*X8 >.N.S V p.z.V u i l f.$.N V @.0.} z d G Q G R R E u l v.0.C d.v.[ {.uXuXtXrX).rXnXyX4X X X XP.G.I.@XE.",
"`.rXrX;XrX*XW.7XvXvXvX<Xe 8.w.C C 0.0.+.i h s =.0.$.m 0.@.v.x . W R G R R E u o.0.k.C @.d.%.,.AX0X6XiXiXtXW.iXiXsXiX0X6X.XI.@X@X",
"^.^.(.>XY.2X3XY K.`.*X,X5.b.k.C C 0.0.w.g d d ) w.C N N 0.$.w.g p W G R Q p s 0.z.@.C $.k.v._ ,XdX9X|.@X4X<XP.I.T.4XtX0X8X}.P.P.",
">X(.^.>XW.K.JXjX1./ K.;.=.C 0.V B z.0.w.q.s d s *.v.$.n V @.w.*.i F K H H u q.w.#.d.B C S f.5.t 3X3X{.2 ,X{.H.OXH.P.R.E.4XqX+XI.",
"/.^.(.(.].K.- V.V.h.q $ f.l.0.S m 0.0.0.w.*.s X x #.#.+.n V $.0.X.s F i u e.q.@.#.v.m C C v.j.q :.2.&.V.jX}.4X6XOXA.G.E.T.XXH.6X",
">X:X(./.=X%X4 { b.b.B.z N d.C S V N S S S w.w.. . +.$.0.V n V 0.w.l   f q.0.0.@.0.m B k.S z.O.& &.h.B.f.4 1XyXiX+X@XP.OXI.T.W.H.",
"kX].'.].(.U.{.;.b.i.g.C.k $.z.S S m m S C 0.f.z j z w.$.+.m V V +.+.. 8.0.S C 0.B B C C k.$.k g.b.g.V.` ,X+XE.6XyXOX[.`.$X.X}.K.",
"xXkX].].>X(.T.:.b.s.i.g.c.& B z.e.S m V S @.#.z N x +.$.0.b n e.e.V x h.e.0.0.b N 0.0.z.B k d.M.y.b.6.<.sX6XyXE.T.rX$XI.@X+X4X.X",
"/._./.(.(.*X8 _ b.u.u.c.n.N $ 2.w.e.e.m $.#.+.N b O.z #.#.O.n S e.$.k f.@.#.N V $.+.r.O.& d.c.u.u.b.2.2 }.`.P.rXW.P.iX`.I.I.[.|.",
"D./._./.(.U.9 5.b.Z C l.c.h.e - 5.w.e.V +.=.w.l . =.j $.#.+.n V e.V k =.#.V N e.e.r.] # O.b.d.y.M b.6.; H.`.L.G.R.OXW.L.|.#XE.I.",
"-X_.(.>X;X<XY 8.f.M d.z.p.v.,.4 _ 8.=.V b w.| s X o.[ -.=.+.b +.0.O.. &.0.V V q.r.' 3 ^ h.l.z.k.M v.8.w T.`.U.*XL.R.T.<XH.A.I.A.",
"_.:X>X(.>XJ.' B.C M c.p.k.r.8 <X3 ] =.V V q.o.u h i ) [ =.N n $.=.O.  ) w.b V $.X._ &X/ N.l.z.k.m f.N.Y 5 `.R.L.L.P.G.T.+X|.A.P.",
"xXuX;X>X:X8 %.v.m @.l.p.z.%.5 *X3 ] v.N V q.g H W a @ l w.V n +.*...X d q.V V =.3.2XgX/ v.l.k.z.Z B v.] 5 Z.U.`.`.R.I.A.H..X4XE.",
"~.^.>X(.>XK.5.$.m z.C k.v.[ J.Y.; 5.*.b +.X.i H G G O @ q.| b *.=.) d p | +.n r.4./ %X/ &.l.p.d.C B v.3.9 Z.D.L.R.L.L.|.P.A.G.W.",
"`._.>X(.'.K.>.-.B v.0.0.=._ <X&XP 7.} b q.X.i H R a H u X.+.| e.*.f s g q.+.} %.3./ %XJ...z.@.k.d.N =.>.J.`.L.Z.L.[.L.I.I.I.G.Z.",
"*X*X_._._.T.;.{ $.z.0.w.5.3 %XpX' *.b r.*.7.g p E G H u X.| b | *.y . o.q.e.+.} 9./ gX&X] z.@.p.d.b 7.- G.(.U.R.L.@XrXS.A.G.I.L.",
"_.R._._.'.U.6 - =.#.$.q...3 *X7 ] +.} [ [ 8.X.u G a G a | | b q.} . x z b *.+.o.7.^ iXdX] =.p.0.#.%.1.&XU.~.U.L.Z.Z.`.$XI.H.@XS.",
"`.(.(.~.^.(.G.9 _ r.$.w.5.; %X<X4.r.f   l *.q.b u h H i | q.| q.) $ =.. l w.l X.7.- J.,X5.=.0.+.r.' 9  XxX(.(.`.R.U.L.[.[.G.L.tX",
"L.L.(.(.(.`.U.Y.3 ;.8.=.8.% 2 K.4 ; o i s q.| *.o.u K a  .b *.*.l %.j -.j b b 7.1.- r - l =.=.t.;.7 J.U.~.!.D.Y.R.:X).L.$X5XI.`.",
"-X`.`.*X*X/.>X>XW.< - 3.9.] e ,.; o = D + l q.| *.g i O X.| *.X.# j N d.k } q.} # >.2X% 9.N.3.( 7 Y._.'.(.^.^.L.L.D.`.L.Z.Z.P.L.",
"U.U.^.^.U.Q.^.Y.(.U.K.K.,.1._ jX' O D D p + U *.q.| # # o.X.*.f   ) +.=.k =.$ $ { N.- ;.1./ %X%X>X>X!.(.(.^.~.~.(.~.U.U.E.P.L.A.",
"L.Y.U.U.Y.F.Y.Y.J.U.Y.J.&X,.; $ ' O o o a p u g b X.[ _ X.X.U @ L g r.z $ $ $ [ =.f.% ;./ &X%X>X(.^./.(.^./.Q.Q.~.`.`.R.7X7X$XI.",
"`.S.F.J.Y.Y.J.J.&X7 &X1 , * i O X + + a + o U U g l { [ X.s + i U 3.] X @ f l =.8.[ ^ / ,X( / 7 7 %XY.>X/.'.'.!.~.L.L.L.R.L.H.H.",
"5XF.: < < < > 7 , , * > * * L * F L i i L # X f *.z & $ f + o i I # X # d d ) ) $ O ; J Y T ^ ( 1.;.,.K.J.L.U.U.^.L.~.S.S.).6XR.",
"U.Y.G.G.< 1 > > > 5 3 > , > * * = P I L P f j f j &.{ % X o F o + O o = O = X O o D F I !  ...7.7.*.8.5.] w ; 5 A.F.(.*X~.Z.[.].",
"OXR.R.R.G.J.J.7 7 7 / &X/ * = * F O d d s $ f l [ z %.. + i + o X + + a o + o + o D L g U U Y T ' [ ..8.JXJXjX<.r 6 0 0 H.R.L.L.",
"L.).R.R.W.J.F.Y.J.J.&X* = J D D K p g l O.-.#.=.) f $ # L = +     X p F G H H p a i I P # ; J.F.J.J.J.5 / ,.jXJXJXJXjX<.2XK.: A.",
"A.G.5 F.< < 1 : 1 = = * D D D K ! ! X.O.*.*.z s @ d d P P U ' ..o.' O J G G H I U L d ) >.;./ &X`.`._.U.Y.8 9 ; ; w w 2 2 K.P.G.",
"E.: > > * = * * D D D D D H K T Y Y _ Y P X + a a p L ! 4.>.5.9.t.LXJ = 1 ~ J ~ 4. ...) x } 3.>.^ r %X)._.$XE.W.G.G.G.A.5 P.*X).",
"L.W.< > * * * D * * J D D * = = = = = = = * D D D ~ J ( Y ^ 4 ; ; 4 K.F.F.1 1 , * T Y 3.8.8.=.r.9.>.e 4 6 0 J.P.L.Q.Z.Q.S.Z.Z.L.",
"L.R.R.J.G.5 < 7 F.1 > > : = = = = = * J 3 * 1 ~ 1 1 F.J.J.Y.F.(.*XY.*XY.^.!.F.Y.J.F.F.1 8 1.5.j.LXPXPXj.h.6.jX2X< L.Q.Z.Z.D.Z.G.",
"Z.Z.U.R.H.L.R.*X*X(.U.G.0 0 9 = = * , , 1 7 &XF.!.^.=X!.!.=X!.!.'.'.!.=XQ.Q.^.Q.!.>X(.^.L.9 ; & & A v d.d.v [ - 5 L.(.!.Q.^.L.L."
};
