/* XPM */
static char *Dolphin1655140673[] = {
/* columns rows colors chars-per-pixel */
"64 64 242 2 ",
"   c #151D1B",
".  c #19211D",
"X  c #0E1D27",
"o  c #1B2427",
"O  c #172A38",
"+  c #24292A",
"@  c #2A3638",
"#  c #343B39",
"$  c #30322E",
"%  c #3A443D",
"&  c #44453E",
"*  c #173446",
"=  c #263C46",
"-  c #2F3E49",
";  c #394647",
":  c #334B56",
">  c #1D577B",
",  c #385869",
"<  c #27587A",
"1  c #345B76",
"2  c #2E5167",
"3  c #3A637A",
"4  c #474B46",
"5  c #4C524C",
"6  c #54544C",
"7  c #485556",
"8  c #545A54",
"9  c #5B5B54",
"0  c #5A5F59",
"q  c #525956",
"w  c #414E52",
"e  c #5C625B",
"r  c #4A605E",
"t  c #62645C",
"y  c #666559",
"u  c #475C66",
"i  c #545F61",
"p  c #4C6369",
"a  c #596768",
"s  c #496778",
"d  c #556C76",
"f  c #56727A",
"g  c #676B66",
"h  c #6B736C",
"j  c #74756C",
"k  c #6B7572",
"l  c #697579",
"z  c #747B74",
"x  c #7A7C76",
"c  c #727C7A",
"v  c #7A7E7A",
"b  c #747671",
"n  c #726F67",
"m  c #827E77",
"M  c #7C827C",
"N  c #78827B",
"B  c #82847D",
"V  c #87877D",
"C  c #1C5C87",
"Z  c #225D84",
"A  c #275D86",
"S  c #285E89",
"D  c #1C638D",
"F  c #1D6593",
"G  c #1D6A99",
"H  c #2C638C",
"J  c #27638A",
"K  c #376889",
"L  c #236693",
"P  c #236A95",
"I  c #2A6B95",
"U  c #246D9B",
"Y  c #2B6E9B",
"T  c #276595",
"R  c #346D94",
"E  c #3A6E93",
"W  c #346C98",
"Q  c #26709C",
"!  c #2B729D",
"~  c #2B7497",
"^  c #3C7295",
"/  c #34739D",
"(  c #3C749C",
")  c #377799",
"_  c #34718D",
"`  c #1D6EA2",
"'  c #1E74AA",
"]  c #1E7AB2",
"[  c #256DA1",
"{  c #2473A4",
"}  c #2B74A3",
"|  c #2D79A5",
" . c #2475AA",
".. c #2479AC",
"X. c #2C7BAC",
"o. c #2B76A9",
"O. c #3276A3",
"+. c #337AA5",
"@. c #3C7CA3",
"#. c #337CAB",
"$. c #3B7DAB",
"%. c #3B77A1",
"&. c #247CB2",
"*. c #2B7EB2",
"=. c #267EB9",
"-. c #327EB2",
";. c #456C86",
":. c #4A748A",
">. c #577688",
",. c #426E92",
"<. c #437494",
"1. c #42769C",
"2. c #447A9D",
"3. c #4B7B9D",
"4. c #4B7896",
"5. c #547C98",
"6. c #516D83",
"7. c #697B86",
"8. c #737D84",
"9. c #667F93",
"0. c #447CA3",
"q. c #4B7DA4",
"w. c #437EA9",
"e. c #467BA6",
"r. c #4E7EA4",
"t. c #3B82AC",
"y. c #3781AA",
"u. c #2C81B5",
"i. c #2C84BB",
"p. c #2983B9",
"a. c #3383B4",
"s. c #3B84B3",
"d. c #3485BB",
"f. c #3B86BA",
"g. c #3489BD",
"h. c #3B8ABC",
"j. c #3D89B5",
"k. c #3389B7",
"l. c #57849B",
"z. c #45809E",
"x. c #7A8585",
"c. c #668596",
"v. c #768C96",
"b. c #7B9297",
"n. c #69838C",
"m. c #4481A6",
"M. c #4C83A4",
"N. c #4383AB",
"B. c #4C84AB",
"V. c #4A89AC",
"C. c #5484A4",
"Z. c #5185AA",
"A. c #538BAC",
"S. c #5B8CAC",
"D. c #5A87A5",
"F. c #4285B3",
"G. c #4C8BB3",
"H. c #428CBC",
"J. c #478AB7",
"K. c #548CB3",
"L. c #578CB4",
"P. c #4A92BA",
"I. c #5B91B4",
"U. c #5393BB",
"Y. c #5C94BA",
"T. c #5997BA",
"R. c #5A90AC",
"E. c #678CA5",
"W. c #6792AD",
"Q. c #6393B4",
"!. c #6698BB",
"~. c #7297B1",
"^. c #75A2BD",
"/. c #358CC2",
"(. c #3B8CC2",
"). c #378AC5",
"_. c #3B91C5",
"`. c #3B93C9",
"'. c #328BC7",
"]. c #438EC2",
"[. c #498FC2",
"{. c #4492C4",
"}. c #4A94C5",
"|. c #4394CA",
" X c #4995CA",
".X c #4C9ACC",
"XX c #4699CA",
"oX c #529BCB",
"OX c #599AC5",
"+X c #4A9DD3",
"@X c #539DD2",
"#X c #649CC2",
"$X c #699DC4",
"%X c #5DA3CE",
"&X c #58A5D6",
"*X c #4DA5D8",
"=X c #68A3C9",
"-X c #75A7C8",
";X c #66A9D7",
":X c #72AFD8",
">X c #57ABE2",
",X c #70B5E4",
"<X c #838582",
"1X c #848A86",
"2X c #848C8A",
"3X c #8A8C87",
"4X c #8B928C",
"5X c #86918A",
"6X c #93948D",
"7X c #959286",
"8X c #8B9393",
"9X c #8A969A",
"0X c #939593",
"qX c #9B9B94",
"wX c #959C9B",
"eX c #9B9D9B",
"rX c #949896",
"tX c #888D90",
"yX c #9BA09B",
"uX c #A2A29C",
"iX c #8F9CA4",
"pX c #9AA4A6",
"aX c #93A9B7",
"sX c #87A4B0",
"dX c #A3A5A4",
"fX c #ACADAC",
"gX c #A5AAA8",
"hX c #B3B3AE",
"jX c #A7ACB5",
"kX c #ACB4B5",
"lX c #B3B3B3",
"zX c #B9BABA",
"xX c #ACB0AE",
"cX c #A09F9B",
"vX c #BDC1B9",
"bX c #C1C2BA",
"nX c #8BB5D0",
"mX c #B3BAC4",
"MX c #84BEE5",
"NX c #C4C6C5",
"BX c #C9CAD4",
"VX c #83C2EB",
/* pixels */
"s.].[.@X X).-.]. X-.-.&X&Xf.h.{.@X Xs.F.#X=X$XU.OX:Xw.K.R I.-X3.E ( Z.L.e.E ( 0.r.w.e.N.@.K.G.=XY.MXr.r.nXG.G.P.%X%X=X,X=X.Xh.XX",
"*.X. X[.[.].-. X@X].f.f.@X.X{.h. X;XoXF.}.U.OX=X%.}.OXU.T.1.Q.-X5.,.,.Q.Q.q.1.3.q.r.W A.G.G.L.w.I.#X$XE #X=XG.J.N.;XU.:X,XU.j.h.",
"i.=.(.[.-.@Xf.-.@X@X#X[.k.XX&X>Xg.g.XXf.J.P.F.}.@Xw.w.%.M.!.D.^.sXc.d >.~.W.5.$XQ.^.S.1.G.G.N.e.K.L.-X#XL.:X$XOXJ.N.;XOXVX;X}.}.",
").).-.H.[.w.;XH.@X,X@XOX{.f.f.&X*X/.h..X{.}.[.[.[.H.w.w.K D.5.1 : ; w 7 d E.5.5.E.-X-XL.z.t.U.0.w.K.#X-XL.w.OX#XU.V.V.K.-XVX}.{.",
"i.). X).].-.[.@X{.}.}.%X;X[. X&X&X}.H.{.h.a.a.a.@XJ.( 4.;.p w 4 # ; = p 9.W.r.5.5.r.Q.$XK.U.Y.A.w.w.!.I.#XB.e.OXU.K.K.K.T.:X:X%X",
"-.-.-.).].].).d.X.h.&XoXOX;X&X{.,X&X;X.XH.h.h.+.J.;Xr.5.d : 4 6 5 5 u ~.E.W.E.r.S.Z.q.L.=X=XY.I.L.e.K.q.K.K.W w.K.B.Y.Y.I.:X&X;X",
";Xw.=.).+X+X X).=.d.a.}.;X;Xa.a.{.}.{..X}.}.&X%XW #X~.s 7 8 t 6 9 a u :.4.!.I.q.r.I.G.t.y.A.=X( L.G.L.!.!.$XK.%.OXA.I.-X=X=X;X%X",
"[.MX&X).=.|.).@Xh.*.).].`..X*X].h.}.H.OXG.A.2.-XW.6.s u a t t y t g u 6.E ,.L.r.A.0.U.z.y.V.!.I.%.Y.( 0.#X!.-XG.0.$X^.=X;X%X%X;X",
"[ [.>X+X`.g.&X}.@X}.=.=.'.|.>X,XOXU.N.R.Q.l.3 d p 7 7 a g g t t 9 a d n.;.1.Z.r.S.E.Z.w.) z.A.!.2.M.A.2.3.-X^.,XK.W S.#XG.:X}.;X",
"|.X.H. X+X(.(.}.H.oX'.'.=.'.J.:X:XR.;., : = ; % ; 4 6 h b b z z h h k d c.4.r.q.,.-X$XQ.) A.z.K A.A.A.M.<.z.#X=X$XY.1.L.#XP.OXH.",
").-.f.]..X].y.h. X].*X+Xg.t.Z.c.p % @ @ @ ; ; ; w 4 4 6 9 t n j h k z x.9X>.5.!.3.C.~.nX-XQ.-X!.A.z.R.D.A.A.Z.K.#X=X!.m.=XU.{.H.",
").).(. X{. XoX.X].).|.>X%XZ.1 - $ % & 4 4 7 5 7 5 5 5 6 9 9 y t 0 0 8 8 a f 9.~.W.C.4.C.W.!.q.$X-XM.<.C.R.I.A.Z.Z.K.#Xm.Z.#XP.J.",
"+X|.).d. XoX X|./.h.t.P.W.: ; @ 4 & 6 6 6 8 6 9 8 9 q 5 q 8 0 8 t 5 4 & 4 0 d >.5.D.S.M.<.R.B./ !.MXW.K 2.I.A.T.Y.q.r.L.2.$X=XH.",
").].).-. X&X.X+X&Xh.K.;.* # # 4 6 5 9 e 9 t y 9 0 t t a 0 8 q 5 9 4 4 & & & w d 5.E.R.M.z.!.w.1.) A.-XQ.<.L.=X2.0.Q.Z.r.Q.e.=X$X",
"'.'.).f.*.).|.{..X=Xs O # & 4 5 8 9 g g g g n n y y y y y 0 0 9 9 9 6 4 4 4 ; ; i 6.l.C.G.A.^.5.3.1.M.!.C.E A.=X0.1.-Xr.!.Y.e.,X",
"`.+X*.f.(. X).#.2.3 - # & 6 9 9 t h t j 3X3XV V 7XV m j j g t t 9 9 6 6 4 ; & % w d >.4.A.D.W.~.!.A.<.2.3.A.^ !.$XK r.nXq.Y.r.r.",
").+X&XH.u.u.;X^.s @ # & 6 9 0 g g <XhXbXhXuX7X3XV 6XV V j n fXB y n g 9 6 5 4 % % w u f 5.D.Z.4.4.r.4.S.D.4.1.K !.Z.> A.!.M.-Xr.",
"d.].&X&X.XH.T.l.# # 4 6 9 y b eXzXNXbXuXqXqXyXqX6Xb V b n M <X<XV x 3X3Xz e e 5 5 4 7 d >.4.4.Q.3.4.q.E.-X^.I.C.S.!.M.J T.B.1.OX",
"d.d.h.|.XXOX) : - & 6 9 n x cXNXzXbXvXuXuXqXuXuXuXqX7X<XM z v v b m b V yX0Xb t e 5 7 u s >.l.C.MX~.3.A 1 I.Q.A.M.Z.T.q.%.$XH 1.",
").)./.).h.U.1 * 4 5 9 j <X0XbXbX6XhXhXqXqXuXuX6XrXdXwX3X<Xv v c z x M z B eXcXm g y q 7 : >.W.D.4.-XW.r.H _ 2.M.T.( ^ A.W r.L.H ",
"/.=.i.*.+.^ = ; 4 q n 6XrXkXvXeXeXcXdXcXqX6XqXqX6X6X0X4X3X3XM N N N N N v z B qX7XB n 8 u u >.l.5.Q.l.R.Z.2.^ ) OX0.E ( #Xe.r.L.",
"/.&.i.o.y., = 5 5 g 3X0XyXxXyX6X0X0XtX0X6XrX0X8X4X2Xx.3X<XM M N z N N N v v x m qXqXV j 7 7 p v.D.D.2.4.q.1.G.) ( #Xm.1.,.$Xe.L.",
"i.i.).s.1.- ; 5 e v 6X3X5X8X0XcXdXdXiXeXrX9XtXtXtXx.x.x.N <Xx.<X1X2Xx.1Xv <Xm j B V fX7Xz e 7 d 6.l.Q.z.( 1.( ) m.V.m.Y.$Xe.w.r.",
"=.=.d.P.;.= q 6 b 4X3X6XyXpXfXlXmXmXmXjXjXpX9XwX9X2XN x.N N N <X8XwX9XrXtX3XB B j j V uX6Xv k u >.:.4.D.^ ) 0./ I ( 0./ $XOX%.e.",
"'.*.-.B.2 ; 8 g M 4XrXgXfXlXzXzXNXzXzXzXzXlXlXlXxXdXwX8X<Xk z x.2X9XwXiX9XwXx.x.N N M B uXyX<X8.p c.l.R.A.^ / L.( m.V.z.P T.t.V.",
"` *.F.4.; 4 e N 5X8XyXxXlXfXfXfXlXfXcXlXhXfXlXfXkXfXdXdXwX0X8X3X8.2X2X8X8X8X8Xx.N N N N 3XfXtX2X7.p c.l.S.e.( e.=Xm.~ t.y.z.OX2.",
"g.a.y.s ; 6 h x.5XwXxXyXfXfXxXvXtXeXfXdXwXpXgXpXpXeXcXdXdXlXzXlXuXqX3X4X4X5X4X5XM N z B V 3XlXeX9X7.>.l.C.=XK.( B.#Xy.~ V.t.@.B.",
"d.J.M., 5 e j 2X8XyXgXpXdXdXlXpXq q b 0XeXeXeXrXeXeXpXcXuXgXlXlXbXlXzXhXgXrX1X3XB M N h M 3X1XzXeXv.f c.z.3.q.W E K.G.~ y.T.w.w.",
"X.O.4.: 7 g <X<X5XyXgXgXyX8XkX1Xg 4 $ M 3X1X4X0X0X0XrXrXcXeXwXyXfXlXzXfXlXlXuX6X3XM j N j B N 3XdXeXv.6.l.R.=XQ.) A.R.P.~ V.P.2.",
"#.@.3 : q z v m yXyXgXpXgXyX8Xh g 0 q 2X4X8X8X9X9X9X9X9XiXiXiXpXpXjXmXmXBXBXNXuX0X<XN j N j N n <XdXpX>.3 <.S.!.m.N.y.P.y.y.K.G.",
"-.t.s : u c B m 4XgXkXjXgXx.g k g a n.x.v.v.>.c.E.E.~.D.r.S.S.R.Q.^.sXnXnXjXmXmX8X2XN h j N N B N 6XaXsXl._ _ 1.^ ) ) V.N.%.N.=X",
"o.R , , l l x V yX7X4XyXiXx.g N f >.E.9.5.W.D.3.W Z.;XOX$.t.J.y.%.e.V.z.:.D.E.E.sXb.x.h y N B B B M yXaXsXE.K 1.0.B.Z.y.@.OXB.w.",
"[ E , p k k dXlX1XB V 4XiXv.p p 4.3.K.T.y.+.G.oXF.s.@.P.j.j.j.h.{.#.}.G.N.T.OXe.W.E.v.k z g x N M M 2XpXsXn.R.V.) m.N.G.m.m.OXt.",
"T 0.s p l v wXc rXyXyX9Xc.l.f z.R.G.y.H.}.h...h.H.{.}.&X.XP..X{._.h.j.&XOXH.{.=XK.W.b.b.N z h N 1XM x.rXyXv.s R.2.( / ) T.) / #X",
"$.W 1 p c 8Xl tXvXkXaX~.R.z.z.> ~ N..X| j.{.d.*.h.}.{.}.&X{.h._.`.`.u.y.oXw.$.N.T.2.l.n.b.8XN j M 1X2X1XrXsXK 2.M.( B.@.~ G./ / ",
"N.m.2 p l v 2XNXBXjXW.( P.P.y.y.| | y.P.u.h.XX{.a.a.j.k.h.h._./.p._.XXf.H.P.G.w.G.M._ 4.c.9X5Xz M 1Xx.<X5X9Xl.^ m.B.( ) N.t.@.B.",
"F _ ;., l b <XzXmX~.E -.' `.XXu.{ { a._.f.).d.].f.X.d.h.h.g.u.`./.p.).].J.w.G.K.OXG.0.( 3 n.iX2Xx M x.x.1X9Xl.H ( U.0.J I J.@.( ",
"+.J 3 , 7.c 0XlXjXZ.[ =.] ] /.k.X.a.X.X.|.` X.-.XXa.a.k.d.g.*.+X>Xi.i.d.-.O./ K.0.U.U.K.M.K v.9Xz v 2XN V 8Xc.2.( ^ K.0.~ / #XL.",
"+.~ 3 3 v.rXcXxXnXE X.' ] ] | H.X.*.X.*.f.(.a.{ ` s.k..._.XX*.d.+Xg. .&.*.}./ %.m.m.N.K.B.<.>.b.x.b x.x.M 5XE.R.K.%.0.V.@.@.0.Q.",
"! @.3.s 9XgXuXzXE.J.-.=.&.=.O.t.k.*.u.X.a.}.{.a.y.u.k.u...u.i. .a.@X).&.[  .#.T K.OXN.) L.^ 4.c.v.c z N N M n.3 r.K.I.T.R W 1.1.",
"L H 0.5.n.8XxXaX_ P.s...u.a.F.}.h...X.a.-.f.@X;Xj.u.h.k.u...i.h.X.h.{.`.u.G f.O./ B.U.L.2.e.<.D.b.k k N b v 9.s K W R A.1.J K S.",
"w.C T ^ f n.kX~.) ~ s.| a.h.F.+.X.u...*..XH.#. XH.a.y.k.h.h.a.h.f.a.@XXX+Xg.G #.O.! 0.0.( B.R K c.n.g j b 8.7.s K 0.2.0.M.<.< q.",
"-.w.o.H f b.nXz.y.` y.` '  . .U X.{ X.| [ H.#.-.k.a.y.H.k.h.g.u.g.f.u.a.X.a.k.| #.Y I / 2.) m.^ 5.n.a h k c 7.s 1 E e.Z.4.r.,.,.",
"F X.X./ >.iX^._ ~ { ..Q ' `  .o.| a.X.{ { { o.-.%Xh.o.X.h.h._.k.&._.h.k.a.| ` ` G #.W ) R 2.H 2.3 c.f q k k 7.>.r.E K M.3.K Q.,.",
"P G X.Y 4.nXQ./ #.` { u.' ] -.a.y.a.{.h.X.a.a.{ #..X}.a.k._.XXg.i.(.XXu.k.a.Q  .` [ $.%.W ^ 1.H K ;.d 7 a c l u 3.0.2.K Z.,.,.Q.",
"G G U / 4.l.J $.j.y.y.{ ..*.X.a.s.| } {.{.a.a.h.X.a.h.@Xh._.g.g.i.i.g.{.k.a.u.u.*.[ F O.I H 1.^ K ;.:.p q 8.8.9.,.M.<.K K 0.E r.",
"~ } P Y ( m.( L #.H.t.y.a.a.{ t.H.j.a.Q k...{ ..d.H.f.g.h._.i.`._.`.p.i._.*Xu.' *.o.[ L w.R A C.^ _ 4.f w l 8.s < > K K H H K 4.",
"Q G s.+.! J.P.P.} j./ t.{ X.| ! } #.X.o.{ a...{ { a.{.y.u.p.i.k.i.'.'.i.p.u.g.'  .{ [ T L ( ( H 0.< < f i a 8.n.^ < H H S H E e.",
"Q O.{ } } } O.+.#.! P.! t.u.s.y.O.#.a.y.a.a.a.u.| { X.a.u.g.g.p.'.i.] p.u...g.u.G  . .F I L W A H C.s f e & 8.6.,.E K W Z C S S ",
"U G U L U P ! P Q ! +.t.y.| s.P.s.| s.k.| | a.P.....g.g.u.g.`._.] p.p.p.`.`. .g.=.G #.} / %.C 0.J 3 n.a # # g : 2 ;.K ,.H C S H ",
"U F U U ! Q ! } ! ! | Q y.y.t.y.#.#.#.a.| | X.a.{.u.a.g.`.u.p.i./.p.p._./.*X|.|.).-.G U L N./ S Z ;.a % + + - @ - u ;.H ^ A T H ",
"G F F [ Q } ! y.! P ! | Q ! ! j.} #.[ #.a.X.X.a.y.j.u. ./.g.g.u.`.`.p./.p._.`.d.d.f.].#.C L %.E <.6.% o + + $ $ $ - 6.K K A Z S ",
"{ { Q | } +.! t.F.! ! O.+.| P F } [ } T o.} } H.h...g.*.=._.p.XXp./.`./.u.=.i.u.).` X.[ F.%.R K c.w + o   + + $ $ # u s < R K > ",
"P } { Q Q ! P Q y.! ! | +.Q +.! U } #.[ } [ o.o.a.a...a.*.u.'././.p.p.p.&.u./... .*.{ [ } / R l.6.+ o     . + + + $ : s 2 H ,.1 ",
"F G Q U Q P ! L | / L +.O.! O.j.-.H.#.} [ } s.-.{  . .*.=. .i.i./.k.u.u.i.] i./.' &.[  .P / C :.7   o . . . + o + $ - p 6.A 1.A ",
"G F U } U F | P ! y.! Q $.H.+.+.O.} { o.o.} { H.].X.h.d...u.p.&.p.' u.p.`.i.=.`.i. .*.[ } W ( <.-   + X   + . + o $ # i s ;.,.1.",
"F | ! ! s.Q ~ ~ D ! OX+.Y O.N.! { F Q X.{ #.H.{ f.k.h.`.`.i.p.i.' p.] p.p./.p.] &.*. .[ O./ w.4.* o * X X o o o + $ # i 6.,.e.H ",
"F ` ~ P j.y.D F ! F ~ ! Y } s.t.F X.Q U #.#.} { U { ..k././.] p.g.g.g.g.u.g._...&.{ d.{ F %.%.W 1 1 < * * * X O O o # w d u ,.,.",
"G G F P P U +.P P L D ~ ! ! O.H.} Q Q | ! U U U } { ' X...i.p.' i.i.g.g.'.XX+Xi.*.). .{ o.D S e.R H H 1 K 1 , 2 - * + u 8.s < W ",
"~ ~ Q F F ! ! ~ ~ P F L F P P ! | Q Q O.! L U U U [ Q ' ..p.p.p.p.p./.] &...`.`.).*.-.U U $.T $.0.K W Z A < K K A ;.2 w 6.d A A ",
"~ Q ! P F I F P F ~ P D P ! F ! U ! ! ! #.$.Y Y +.$.-.o.d.*.p.p.] ' ' p.' ....u.*.*.f. .F U } S %.%.} T C C W A S S K 1 7 6.,.A ",
"| Q P Q F Q ) Q D D Q ! U Y U +.O.} ! O.$.w.%.[ +.} o. . .h.&.&.=.] &.&.u...&.X.` ` *.X.[ F T Y T T Y L o.W A H W C A A 2 6.,.W ",
"| ! ! P y.J.~ / ! P P P F F F ~ +./ I / %.%.T / %.$.F -.d.*.XXp.=.p.] ..g./.u.{ a.{ X.o.[ [ Y L } P O.! T A A A C T S C C C W A ",
"P ! | O.} ~ L I F ~ ) +.F F U L P L T T T Y W Y Y T [ o. X/.i.`.=.] p.' ' g.@Xa.o. .[ { F G [ T [ P F D C T S A T T [ T F C S A "
};
