/* XPM */
static char *_14ab10fa0914161912c7ec207210c1fNKc0os1Yd59YQldT[] = {
/* columns rows colors chars-per-pixel */
"64 64 251 2 ",
"   c #003B5B",
".  c #00678B",
"X  c #107CA2",
"o  c #0F91B6",
"O  c #268FAE",
"+  c #29A9B6",
"@  c #38ACBA",
"#  c #34B6B4",
"$  c #4BA6BC",
"%  c #57A9BE",
"&  c #69A8B5",
"*  c #72B6B4",
"=  c #4E9BAD",
"-  c #77C3BF",
";  c #0897C7",
":  c #159DCC",
">  c #05A3D4",
",  c #07ABCE",
"<  c #26A9C6",
"1  c #34B2D4",
"2  c #18BDE5",
"3  c #0EB5EA",
"4  c #26BDE8",
"5  c #35B7E4",
"6  c #47B9CC",
"7  c #59B5CC",
"8  c #62BDC6",
"9  c #6EB6D3",
"0  c #44BAE0",
"q  c #65BDE3",
"w  c #1DC3D1",
"e  c #26C9DC",
"r  c #38C4D9",
"t  c #20D3DF",
"y  c #30D2DF",
"u  c #18C9E4",
"i  c #18D4EB",
"p  c #13CCF5",
"a  c #16CAFE",
"s  c #1DD3FE",
"d  c #1CDCFE",
"f  c #17D4F9",
"g  c #06C9F2",
"h  c #22C6E2",
"j  c #28CAE9",
"k  c #33CEEB",
"l  c #39CCE5",
"z  c #2BD2EA",
"x  c #2DDBEE",
"c  c #28D6EA",
"v  c #36D5EA",
"b  c #26C9FB",
"n  c #25D3F5",
"m  c #2CD4F4",
"M  c #26DCF4",
"N  c #2DDCF5",
"B  c #26D5FD",
"V  c #2CD5FA",
"C  c #24DBFC",
"Z  c #2CDCFC",
"A  c #33D5F3",
"S  c #39D5F3",
"D  c #32DBF5",
"F  c #3CDBF3",
"G  c #34D5FC",
"H  c #3BD6FC",
"J  c #34DCFB",
"K  c #3BDCFA",
"L  c #3ECEF0",
"P  c #1AE4F8",
"I  c #2DE1EF",
"U  c #38E0EB",
"Y  c #24E2F6",
"T  c #2CE2F5",
"R  c #22E2FC",
"E  c #2CE2FD",
"W  c #34E2F5",
"Q  c #34E3FD",
"!  c #3CE3FD",
"~  c #38E8FB",
"^  c #3CF5FF",
"/  c #46C7CC",
"(  c #59C6CA",
")  c #4AC6D6",
"_  c #58CADA",
"`  c #4BD4D8",
"'  c #57D1DE",
"]  c #6AC2CD",
"[  c #65CBD8",
"{  c #7ACCD5",
"}  c #67D3DB",
"|  c #76D2D5",
" . c #71C4CA",
".. c #4EE3DF",
"X. c #45C6E8",
"o. c #54C8E5",
"O. c #47D3E2",
"+. c #49DCE2",
"@. c #43D3EC",
"#. c #4BD6E8",
"$. c #57D9E9",
"%. c #43D5F4",
"&. c #43DCF5",
"*. c #4BDCF5",
"=. c #41D6FF",
"-. c #43DCFB",
";. c #4BDDFC",
":. c #49D6F1",
">. c #52DCF5",
",. c #5BDFFC",
"<. c #56DAF7",
"1. c #5CCCF4",
"2. c #64CBE9",
"3. c #62DEEC",
"4. c #6AD7E4",
"5. c #7DD3E3",
"6. c #77DAE6",
"7. c #64DDF4",
"8. c #6ADBF4",
"9. c #72CFF0",
"0. c #58E5EB",
"q. c #44E2F4",
"w. c #4BE2F5",
"e. c #45E3FC",
"r. c #4CE3FC",
"t. c #41EBFE",
"y. c #4CEAFD",
"u. c #54E3F4",
"i. c #5CE3F5",
"p. c #50E8F6",
"a. c #54E4FC",
"s. c #5BE3FC",
"d. c #51EBFD",
"f. c #5BEBFE",
"g. c #5AEFF3",
"h. c #49F1FD",
"j. c #49E1EE",
"k. c #6DE6ED",
"l. c #78E7EA",
"z. c #65E2F2",
"x. c #63E4FB",
"c. c #69E5F9",
"v. c #64ECFC",
"b. c #6BE9F6",
"n. c #7CECF3",
"m. c #78E6F6",
"M. c #63F3FD",
"N. c #6DF4FD",
"B. c #73F3FD",
"V. c #7CF1FC",
"C. c #62F1ED",
"Z. c #89C3B5",
"A. c #88C8CA",
"S. c #98D3CC",
"D. c #9AD2D1",
"F. c #8CD8DC",
"G. c #A8D8DA",
"H. c #B5D8DB",
"J. c #A3CDCB",
"K. c #85DAE8",
"L. c #8BDDF5",
"P. c #95DEF7",
"I. c #8DD4E9",
"U. c #B1DFE5",
"Y. c #A6D8ED",
"T. c #8BE4EC",
"R. c #85E8EE",
"E. c #98E7ED",
"W. c #87E8F7",
"Q. c #93E4F2",
"!. c #9AEAFD",
"~. c #96EAF7",
"^. c #89F7FF",
"/. c #94F5FF",
"(. c #9BF5FE",
"). c #98F7FB",
"_. c #ACE4ED",
"`. c #A4E4EA",
"'. c #B3EDEE",
"]. c #BBECEA",
"[. c #BBF1E8",
"{. c #AAECFF",
"}. c #A6E9F6",
"|. c #B7ECF6",
" X c #A5F4FD",
".X c #A2FBFE",
"XX c #ABFEFF",
"oX c #ACF1FF",
"OX c #B2F3FC",
"+X c #BAF5FD",
"@X c #B4FCFF",
"#X c #BBFEFE",
"$X c #B8F6F6",
"%X c #D7ECED",
"&X c #CCF4EB",
"*X c #D4F4EE",
"=X c #CDEAF5",
"-X c #C5EAF5",
";X c #D6EDF6",
":X c #C2F4FB",
">X c #CBF3FE",
",X c #C5FCFF",
"<X c #CBFDFE",
"1X c #C2F4F5",
"2X c #DBF3F4",
"3X c #D4F7FD",
"4X c #DEF5FC",
"5X c #D4FFFF",
"6X c #DCFFFF",
"7X c #D7FCF5",
"8X c #CBEAEC",
"9X c #E9F5EE",
"0X c #FEFEEE",
"qX c #F1F9ED",
"wX c #FFEDFF",
"eX c #F5ECF6",
"rX c #EBFBF5",
"tX c #E3F4FC",
"yX c #EBF5FE",
"uX c #E4FFFF",
"iX c #ECFFFE",
"pX c #E7F6F3",
"aX c #FCF5F3",
"sX c #F4FEF5",
"dX c #FCFEF5",
"fX c #F4F6FD",
"gX c #FEF5FD",
"hX c #F4FEFE",
"jX c #FFFDFA",
"kX c #FFFFFB",
"lX c #FEFEF9",
"zX c #FEFAFE",
"xX c #F9FFFF",
"cX c #F8FFFF",
"vX c #FBFFFF",
"bX c #FAFFFF",
"nX c #F9FEFD",
"mX c #FFFFFD",
"MX c #FFFEFD",
"NX c #FFFDFF",
"BX c #FFFCFF",
"VX c #FCFFFF",
"CX c #FDFFFE",
"ZX c #FFFEFF",
"AX c #FEFFFF",
"SX c white",
"DX c #FEFEFF",
"FX c #FEFDFD",
"GX c #FEFEFE",
"HX c #F4F5F5",
"JX c #F5EDEB",
/* pixels */
"SXSXSXSXSXSXSXSXSXSXSXSXSXSXSXSXSXnXvXhXvXhXhXSXvXzXSXSXSXkXdXdXSXSXSXSXSXSXSXzXSXSXzXSXSXSXSXvXSXSXSXSXSXSXSXSXSXSXSXSXSXSXSXSX",
"SXSXSXSXSXSXSXSXSXSXSXSXSXSXSXSXkXSXvXvXhXvXvXvXzXSXzXSXSXdXnXkXnXSXSXSXgXkXzXSXSXSXSXSXSXSXvXvXSXSXSXSXSXSXSXSXSXSXSXSXSXSXSXSX",
"SXSXSXSXSXSXSXSXSXSXSXSXSXSXSXSXSXvXvXvXvXvXvXSXSXzXSXSXFXFXnXSXSXSXvXSXnXgXSXSXSXzXzXSXSXvXvXvXSXSXSXSXSXSXSXSXSXSXSXSXSXSXSXSX",
"SXSXSXSXSXSXSXSXSXSXSXSXSXSXSXSXvXvXvXvXSXSXkXSXSXkXzXzXSXvXvXvXvXvXnXnXkXSXzXSXSXSXSXSXSXSXSXSXSXSXSXSXSXSXSXSXSXSXSXSXSXSXSXSX",
"SXSXSXSXSXSXSXSXSXSXSXSXSXSXSXSXvXvXSXSXkXkXkXgXgXlXaXvXvXvXhXhXfXsXHXsXSXSXSXkXSXSXSXSXSXSXvXSXSXSXSXSXSXSXSXSXSXSXSXSXSXSXSXSX",
"SXSXSXSXSXSXSXSXSXSXSXSXSXSXSXSXvXvXvXSXkXkXkXdXkXkXFXSXhXhXhXyXpXpX9XrXvXvXvXFXSXSXSXSXSXSXSXSXSXSXSXSXSXSXSXSXSXSXSXSXSXSXSXSX",
"SXSXSXSXSXSXSXSXSXSXSXSXSXSXSXSXhXvXSXSXkXgXlXlXlXkXvXhXiXuXtX4X%XpXpXnXhXSXvXvXSXSXSXSXSXSXvXSXSXSXSXSXSXSXSXSXSXSXSXSXSXSXSXSX",
"SXSXSXSXSXSXSXSXSXSXSXSXSXSXSXSXvXvXSXSXkXkXlXlXdXvXhXiXtX=X=X=X%XpXhXhXvXhXSXvXSXSXSXSXSXSXSXSXSXSXSXSXSXSXSXSXSXSXSXSXSXSXSXSX",
"SXSXSXSXSXSXSXSXSXSXSXSXSXSXSXvXvXvXfXSXkXaXgXkXsXhXuXH.G.-X>X=X%XpXhXvXhXvXvXvXSXSXSXSXSXSXSXSXSXSXSXSXSXSXSXSXSXSXSXSXSXSXSXSX",
"SXSXSXSXSXSXSXSXSXSXSXSXSXSXSXSXfXvXgXkXzXzXnXhXiX7XU.G.|.|.|.>X%XpXhXhXvXvXSXSXSXSXSXSXSXSXSXvXSXSXSXSXSXSXSXSXSXSXSXSXSXSXSXSX",
"SXSXSXSXSXSXSXSXSXSXSXSXSXSXSXSXfXSXSXgXzXSXyXhXuXJ.D.OX|.{.+X|.%XrXvXvXvXvXSXSXSXzXSXSXSXSXSXSXSXSXSXSXSXSXSXSXSXSXSXSXSXSXSXSX",
"SXSXSXSXSXSXSXSXSXSXSXSXSXSXSXSXSXkXSXzXzXfXhXuXD.A.E.XXE.}.#X_.4XsXhXvXvXSXSXSXSXSXSXSXSXSXvXSXSXSXSXSXSXSXSXSXSXSXSXSXSXSXSXSX",
"SXSXSXSXSXSXSXSXSXSXSXSXSXSXSXSXkXdXSXzXSXtXuXU.* ).(.R.).(.E.|.tXnXvXSXSXSXSXzXSXSXSXSXSXSXSXvXSXSXSXSXSXSXSXSXSXSXSXSXSXSXSXSX",
"SXSXSXSXSXSXSXSXSXSXSXSXSXSXSXkXkXlXSXfXvXhXuX& { /.^.R.^./.T.$XuXnXSXSXkXSXSXSXzXSXSXSXSXSXSXvXSXSXSXSXSXSXSXSXSXSXSXSXSXSXSXSX",
"SXSXSXSXSXSXSXSXSXSXSXSXSXSXSXSXkXaXSXfXvXiXG.& ).n.V.^.k.R.(.`.uXkXSXzXzXSXzXkXSXSXzXSXSXSXvXvXSXSXSXSXSXSXSXSXSXSXSXSXSXSXSXSX",
"zXSXSXSXvXvXvXvXSXSXSXSXSXSXvXkXdX0XkXSXiXuX& 5.).n.B.N.n.W.~.}.uXzXSXSXSXSXSXgXSXkXSXSXzXSXSXSXkXkXSXkXSXSXSXSXSXSXSXSXSXSXvXvX",
"gXzXSXnXhXhXhXhXSXSXzXzXSXSXnXdX0X0XsXhXuX|.= W.V.N.N.B.n.m.~.OXhXzXnXzXSXkXgXkXlXlXlXgXSXzXzXSXkXlXlXlXkXkXSXSXzXSXzXSXSXvXhXvX",
"gXkXkXvXhXiXhXhXSXzXzXzXzXSXvXnX0X0XnXiX6X{ 7 ^.B.M.M.B.B.V.^. X6XiXhXhXhXhXHXqXaXkXkXSXgXfXzXSXkXlXlXlXkXSXSXSXzXSXSXSXSXvXvXvX",
"kXkXkXSXvXhXvXvXSXSXzXSXSXSXSXkXaXaXvXuX<X% 8.B.M.f.p.p.p.u.u.3..X@X,X5XuXuXhXvXSXSXSXSXSXSXvXvXhXhXkXSXzXzXzXzXSXvXhXhXhXSXSXzX",
"kXkXSXkXkXSXSXSXSXSXSXzXSXzXSXzXgXzXfXuX~.2.c.f.w.F l j e t t y ' } 6.T.E.+X<XuXiXiXhXhXvXhXhXsXhXhXSXzXzXgXzXzXvXhXhXhXvXSXzXgX",
"nXnXkXSXSXzXkXSXkXSXvXvXSXSXSXzXgXSXuX,X7 #.*.k h e u h i i P Y l ` O.o.' 4.K.E.+X5XuXiXhXnXdXnXhXhXvXzXgXzXzXSXvXhXhXhXvXSXzXgX",
"hXnXSXkXgXkXgXzXSXkXvXvXSXSXzXSXhXuX5X{ + 1 h 2 n n m V T R P R ~ e.w.*.w.$.z.4.l.E.+X5XuXhXnXvXvXhXSXzXzXzXzXzXSXhXhXvXSXSXzXzX",
"hXhXvXSXkXgXkXgXSXSXSXSXvXvXvXhX6X#X)./ l z n E ~ Q Q Q Z C d B D D W ! e.e.w.u.$.} 5.`.:XuXiXhXSXzXSXSXSXSXSXSXSXSXSXSXSXzXSXSX",
"vXSXkXkXkXkXkXlXzXzXSXSXhXhXhXuX#Xm.1 r y.t.Q ^ ~ Q Z B Z J J V E Z N W Q t.t.y.s.7.l.6.F._.<XuXSXSXSXSXSXSXkXkXlXgXzXzXSXSXSXvX",
"SXSXvXnXnXkXkXkXzXzXSXSXtXuXuX@X( r ` g.y.Q Q ^ E E Z Z J J G V M x N Z Q K e.;.s.7.8.m.R.R.E.'.hXSXSXSXnXdXlXlXlXlXgXSXSXSXhXvX",
"SXzXkXnXsXnXdXkXSXeXzXhXiX6X`.% ` ` j.p.y.K Q Q E R Y M n G G G x M T D F -.;.,.,.7.7.c.8.8.k.T.].iXhXHXnXlXaXlXlXlXkXSXSXSXvXvX",
"zXzXSXnXsXhXnXkXzXgXSXhXuXOX] ( ` g.M.g.-.-.K N E Y Y M M Z J H A A F F K -.;.;.a.s.x.v.c.x.b.n.E.+XuXuXsXSXzXJXlXkXnXhXvXvXSXzX",
"zXSXkXnXnXnXsXvXfXSXiXuX+X] ' b.0.M.M.y.*.;.e.D Q Y Y Y C E J K S F &.&.&.&.;.;.*.>.a.s.x.x.x.b.} { #X6X4XyXSXzXkXnXnXnXvXvXSXzX",
"SXSXSXnXnXdXnXkXvXhXuX<XK.[ z.$.M.v.i.u.*.-.-.Q W T N T Y E C Z S -.&.&.&.q.q.e.p.p.u.i.x.c.7.7.#.1 6 }.tXuXyXvXvXvXnXnXhXvXSXzX",
"SXSXSXkXkXkXkXvXhXuX6XK.8 k.f.w.N.x.*.*.e.J D D m x D D N C C B J H K &.F q.j.w.w.0.i.$.,.c.2.<.H 2 o O 9.3XiXfXhXvXvXnXSXSXSXSX",
"hXvXSXkXkXgXkXvXiX5XOX] _ v.f.M.M.u.*.! Q Z N J S S S S m n B d C C W J F *.w.0.#.$.z.z.3.3.$.%.B B a ; X 9 ,XuXvXSXzXSXkXkXnXnX",
"hXhXSXSXgXkXkXvXuX<X .[ B.u.*.f.u.*.e.K J Z Z Z D S S k m V d d P R Z K :.$.4.| ~. XXX.X/.m.m.s.K J b 1 1 O $ |.uXvXzXzXkXlXdXsX",
"iXhXSXgXkXgXzXhX5XA.} k.i.d.d.d.e.q.-.=.H G Z C M M N c n C a d p d K @.2.Q.:X6XuXiXuX5XOXE.T.W.z.' _ 2.1.0 < O }.uXSXgXlXdXdXsX",
"hXvXSXzXkXSXSXhXOX| 4.b.p.d.;.a.e.e.H =.=.H G Z E u E R u p a 3 , , , o..X5XiXhXvXkXSXuX-X_.}. X.X@X+XP.m.1.X.< $ OXhXSXaXlX9XdX",
"SXfXzXzXkXhXiX5X| } b.v.s.s.>.a.-.K K S J J G V C f f g f s 3 4 ; : 1.m.!.`.+XtXuXiXuX2X=X=X>X<X5X5XtX5X+XW.<.+.+ ( 7XhXzXgXgXkX",
"SXaXgXzXnXhX6X@X( 0.v.a.s.s.>.>.%.H D N D D A V V C f 3 p 3 > 5 <.m././.Q.E.'.[.&X*X*X2XtXtXuXhXiXuXhXuX6X{.n.b...# .XuXSXwXzXaX",
"SXdXgXzXgXhX,Xl.` M.g.*.,.,.>.*.H G D D I x D V B s C a > ; 5 1. X X!.P.~.#X#X[.[.&X*XpXiXvXSXSXFXvXhXhXhX6XXXl.C.` ( 5XyXgXgXgX",
"nXnXSXgXgXiXXX( 0.M.y.*.a.>.:.F H J D x I N x m V b b 3 : : q .XXX{.}.}._.'.$X<X7X7XiXhXSXSXgXgXkXlXdXdXSXhX5X@Xn.k.$ !.uXvXeXzX",
"rXhXSXgXgXhX~./ x.f.&.e.s.:.U I J V J D W W T m b =.5 1 1.q 7 ~.#XOX_.U.].>X7X2XiXhXhXvXSXkXdXdXgXaXqXsXkXgXzXhX#X!.[ 8 <XuXvXgX",
"rXrXnXgXgXiXQ./ s.a.F r.a.@.U c N J K Q Q W T A X.0 q {.5X5XG.9 A.U.'.G.H.%XiXvXzXSXSXkXkXdXdXlX0XkXsXsX0XdXgXzXhX>X X8 * ,XhXHX",
"rXrXsXSXgXiX| O.f.e.K e.%.*.c t z D J V Q N z w.@ 5.,XuXiXuX5X5XG.D.J.H.2XvXzXgXzXzXzXSXlXdXdXdXkXSXnXsXdXdXgXwXwXSX>X@X- * hXdX",
"rXsXgXSXfXuX[ O.w.x t.K ;.;.w h.S k K ! V t.j.1 K.+XuXSXzXvXhXiXuXuXuXuXhXzXzXgXzXzXSXgXlXdXdXsXvXnXnXdXdXlXzXgXwXgXiX5XS.Z.pXqX",
"dXlXkXzXfX5X[ ` t.~ ~ J 5 L @.r @.l A ! t.L _ K.5XiXkX0XlXkXSXnXhXiXhXhXhXSXSXzXzXzXSXkXkXlXdXlXvXvXSXSXlXdXSXzXgXgXzXiX&X&XrXqX",
"aXlXgXzXhX5X} O.W Q E ! &.M.f.@.l *.F &.*.o.K.5XiXkX0X0X0XlXkXdXnXnXnXSXvXvXvXSXSXSXSXkXlXlXlXkXvXSXzXSXSXhXhXSXgXgXgXvXnXhXnXnX",
"aXlXgXzXiX5XK.` h.I W A -.L   o ;.:.>.:.) Q.5XiXhXgXdXdXdXkXzXzXkXkXkXSXkXvXvXvXvXSXSXkXSXkXkXkXkXSXSXzXSXhXhXhXaXkXlXlXkXnXHXSX",
"aXgXgXfXiX5XE._ j.W D Q J v . 5 -.k r _ L.5XiXfXzXkXkXlXlXkXzXzXaXaXaXgXkXSXkXhXvXvXvXSXSXSXSXkXkXkXSXSXvXvXSXvXnXdXdX0XlXzXgXzX",
"SXSXzXSXuX6X:XK.#.d.K ! c z %.%.m k ) K.6XhXpXSXvXvXvXvXhXnXnXSXSXSXkXSXkXkXkXFXSXSXSXSXvXvXvXSXdXdXnXhXvXSXzXSXdXdXqXsXkXzXgXzX",
"SXgXSXvXhXuXuXY.2.*.&.h Z n k l r #./.5XuXvXSXgXvXvXvXvXSXzXvXSXSXSXSXkXkXkXSXkXSXkXvXSXvXvXvXSXlXdXhXhXvXzXzXgXdXdXsXdXFXgXzXgX",
"SXSXkXsXsXhXhXuX9 0 H n C i z / | '.uXiXhXvXSXdXSXSXSXSXSXSXSXSXSXSXSXSXSXkXSXSXSXSXSXSXSXSXSXSXkXkXkXvXSXSXSXzXSXkXnXkXSXSXSXzX",
"zXSXnXdXdXnXhXuX9 o u p i M l 4.1XrXhXhXhXvXSXnXzXSXSXSXSXSXzXSXSXSXSXSXSXSXSXSXSXSXSXSXSXSXSXSXSXSXSXSXSXSXSXSXSXSXSXSXSXSXSXSX",
"zXgXnXsXsXnXnXuXI.. 2 f u q.8.#XuXhXnXiXsXvXSXvXSXzXzXSXSXzXSXSXSXSXSXSXSXSXSXSXSXSXSXSXSXSXSXSXSXSXSXSXSXSXSXSXSXSXSXSXSXSXSXSX",
"zXgXnXdXnXhXhX6XL.o G Z c c.{.uXiXhXrXhXhXvXvXSXSXSXSXSXSXSXSXSXSXSXSXSXSXSXSXSXSXSXSXSXSXSXSXSXSXSXSXSXSXSXSXSXSXSXSXSXSXSXSXSX",
"zXgXlXkXkXhXiX5X8.r ! v i.(.3XSXvXhXhXvXvXnXnXnXSXSXSXSXSXSXSXSXSXSXSXSXSXSXSXSXSXSXSXSXSXSXSXSXSXSXSXSXSXSXSXSXSXSXSXSXSXSXSXSX",
"kXgXkXkXgXvXuX@X4.$.O.#.).<XhXgXvXhXSXvXSXnXkXSXSXSXSXvXSXSXvXvXSXSXSXSXSXSXSXSXSXSXSXSXSXSXSXSXSXSXSXSXSXSXSXSXSXSXSXSXSXSXSXSX",
"hXnXgXgXaXhX5XT.4.3.8.Q.5XhXSXgXFXfXnXFXFXnXSXSXvXSXvXSXvXvXvXvXSXSXSXSXSXSXSXSXSXSXSXSXSXSXSXSXSXSXSXSXSXSXSXSXSXSXSXSXSXSXSXSX",
"iXsXlXgXgXvX<X| 4.} {.>XhXnXkXlXkXSXkXnXSXSXSXfXSXSXSXSXvXSXvXSXSXSXSXSXSXSXSXSXSXSXSXSXSXSXSXSXSXSXSXSXSXSXSXSXSXSXSXSXSXSXSXSX",
"iXhXdXgXzXiX'.F.K.OX6XhXgXzXlXdXkXSXSXSXSXSXvXSXSXSXSXvXvXSXvXvXSXSXSXSXSXSXSXSXSXSXSXSXSXSXSXSXSXSXSXSXSXSXSXSXSXSXSXSXSXSXSXSX",
"hXhXzXSXSXtXH.A.'.3XhXzXgXgXdXdXSXzXSXSXSXSXSXSXvXSXvXvXvXvXSXSXSXSXSXSXSXSXSXSXSXSXSXSXSXSXSXSXSXSXSXSXSXSXSXSXSXSXSXSXSXSXSXSX",
"sXvXSXvXhXuX8XH.4XhXzXzXgXkXdXdXkXSXSXzXSXSXSXSXvXvXSXvXSXSXSXSXSXSXSXSXSXSXSXSXSXSXSXSXSXSXSXSXSXSXSXSXSXSXSXSXSXSXSXSXSXSXSXSX",
"FXkXhXhXhXhXiXyXhXSXgXgXzXlXdXdXkXSXSXSXSXSXSXvXvXSXSXSXSXSXSXSXSXSXSXSXSXSXSXSXSXSXSXSXSXSXSXSXSXSXSXSXSXSXSXSXSXSXSXSXSXSXSXSX",
"SXSXvXhXhXhXhXvXSXzXzXzXSXkXkXdXSXzXSXSXSXSXSXvXvXvXSXSXzXSXSXSXSXSXSXSXSXSXSXSXSXSXSXSXSXSXSXSXSXSXSXSXSXSXSXSXSXSXSXSXSXSXSXSX",
"SXzXSXvXkXnXkXnXvXSXSXSXSXkXSXSXSXSXSXSXSXSXvXvXvXSXSXzXSXSXSXzXSXSXSXSXSXSXSXSXSXSXSXSXSXSXSXSXSXSXSXSXSXSXSXSXSXSXSXSXSXSXSXSX",
"vXSXzXzXgXkXnXnXhXhXnXSXSXzXSXzXSXSXSXSXSXvXSXvXSXvXSXSXSXzXzXSXSXSXSXSXSXSXSXSXSXSXSXSXSXSXSXSXSXSXSXSXSXSXSXSXSXSXSXSXSXSXSXSX",
"vXSXgXgXgXdXlXsXiXsXvXSXzXzXzXSXzXSXSXSXSXvXvXvXvXvXSXSXSXSXzXzXSXSXSXSXSXSXSXSXSXSXSXSXSXSXSXSXSXSXSXSXSXSXSXSXSXSXSXSXSXSXSXSX"
};
