/* XPM */
static char *dolphin_removebg_preview1655144707[] = {
/* columns rows colors chars-per-pixel */
"64 64 230 2 ",
"   c #161B1C",
".  c #1A1E22",
"X  c #03182D",
"o  c #1A2226",
"O  c #162A35",
"+  c #242827",
"@  c #252D34",
"#  c #293435",
"$  c #343937",
"%  c #31352E",
"&  c #15201C",
"*  c #3B433C",
"=  c #42433E",
"-  c #1D3848",
";  c #0E354D",
":  c #293B43",
">  c #2E3E47",
",  c #28444A",
"<  c #384647",
"1  c #2A4A59",
"2  c #364D56",
"3  c #3B5158",
"4  c #2F555E",
"5  c #395663",
"6  c #2A5B74",
"7  c #2B536A",
"8  c #396579",
"9  c #4C4C45",
"0  c #464A46",
"q  c #4C524A",
"w  c #535146",
"e  c #53544D",
"r  c #59594D",
"t  c #485756",
"y  c #545B54",
"u  c #5A5B54",
"i  c #5B5E59",
"p  c #555A58",
"a  c #504C41",
"s  c #625E55",
"d  c #5C635B",
"f  c #576159",
"g  c #63645D",
"h  c #696659",
"j  c #485D63",
"k  c #405F71",
"l  c #466169",
"z  c #5A6462",
"x  c #596768",
"c  c #456A79",
"v  c #58747D",
"b  c #656B64",
"n  c #6A6C63",
"m  c #656966",
"M  c #6D726B",
"N  c #6D7067",
"B  c #73746C",
"V  c #76776C",
"C  c #6B7876",
"Z  c #747B74",
"A  c #7B7D73",
"S  c #757D7B",
"D  c #7A7F7A",
"F  c #747674",
"G  c #706F6B",
"H  c #807D74",
"J  c #76817A",
"K  c #7B837C",
"L  c #7C8579",
"P  c #82847C",
"I  c #88887D",
"U  c #357091",
"Y  c #1C7DB9",
"T  c #237DBA",
"R  c #387CA6",
"E  c #476E84",
"W  c #477389",
"Q  c #597A8C",
"!  c #477A96",
"~  c #597E91",
"^  c #777D81",
"/  c #667E88",
"(  c #1E81BE",
")  c #3E82AB",
"_  c #2384BE",
"`  c #2C85BC",
"'  c #2B86B8",
"]  c #3B84B4",
"[  c #3385BB",
"{  c #338BBC",
"}  c #3A8ABB",
"|  c #3687B6",
" . c #44839D",
".. c #57849B",
"X. c #58828E",
"o. c #6C828A",
"O. c #7D8381",
"+. c #788685",
"@. c #688999",
"#. c #768D96",
"$. c #7B9394",
"%. c #4986A9",
"&. c #5689A8",
"*. c #5691AB",
"=. c #438AB4",
"-. c #448DBC",
";. c #488AB5",
":. c #518DB2",
">. c #4B93BB",
",. c #4692BB",
"<. c #5894B7",
"1. c #658CA4",
"2. c #6797B4",
"3. c #799CB5",
"4. c #7095A9",
"5. c #74A0B7",
"6. c #1E84C2",
"7. c #1C85C9",
"8. c #2485C3",
"9. c #2986C5",
"0. c #2489C6",
"q. c #2B8AC5",
"w. c #2386C9",
"e. c #2A86CA",
"r. c #268BCA",
"t. c #2B8DCB",
"y. c #328CC4",
"u. c #398CC3",
"i. c #318DCC",
"p. c #358AC7",
"a. c #2D91CD",
"s. c #2892CB",
"d. c #3D92C5",
"f. c #3292CD",
"g. c #3C93CB",
"h. c #3996C9",
"j. c #268DD2",
"k. c #2C8DD1",
"l. c #298DD8",
"z. c #318ED1",
"x. c #388FD2",
"c. c #2693D3",
"v. c #2D93D2",
"b. c #2E9AD5",
"n. c #2D96DA",
"m. c #3394D3",
"M. c #3A95D3",
"N. c #3499D5",
"B. c #3A9AD5",
"V. c #3395D9",
"C. c #359BDA",
"Z. c #3B9CDB",
"A. c #3897D9",
"S. c #34A1DC",
"D. c #3CA1DD",
"F. c #3DA1D5",
"G. c #2EA0DA",
"H. c #3C9DE1",
"J. c #379EE3",
"K. c #3DA3E2",
"L. c #3BA7E6",
"P. c #408EC5",
"I. c #439ACC",
"U. c #4796C6",
"Y. c #559AC3",
"T. c #429CD3",
"R. c #419DDC",
"E. c #4597D4",
"W. c #42A3DE",
"Q. c #46A5D8",
"!. c #52A6D5",
"~. c #53A2CD",
"^. c #73ACCE",
"/. c #419EE1",
"(. c #42A5E3",
"). c #44A9E5",
"_. c #44AAEA",
"`. c #4BABE7",
"'. c #4BB1EB",
"]. c #4AB6F2",
"[. c #54B9F5",
"{. c #45ACF1",
"}. c #66AAD4",
"|. c #828683",
" X c #848A83",
".X c #8A8B84",
"XX c #8B8D8B",
"oX c #848A8B",
"OX c #8C928C",
"+X c #879289",
"@X c #92938D",
"#X c #898C90",
"$X c #8C9393",
"%X c #889599",
"&X c #939593",
"*X c #949A95",
"=X c #93969B",
"-X c #949B9B",
";X c #9B9C9B",
":X c #9B9A95",
">X c #938F8D",
",X c #A09F99",
"<X c #9DA19D",
"1X c #9EA196",
"2X c #A2A29C",
"3X c #8A9DA5",
"4X c #979EA1",
"5X c #8CA1A5",
"6X c #9CA3A3",
"7X c #9AA6A8",
"8X c #8FA7B4",
"9X c #A2A5A3",
"0X c #A2AAA5",
"qX c #A4A6AA",
"wX c #AAACAD",
"eX c #A8AAA7",
"rX c #ABB1AE",
"tX c #A9ACB3",
"yX c #ACB3B4",
"uX c #B2B3B5",
"iX c #B8B8B8",
"pX c #B3B0AC",
"aX c #C1BEB7",
"sX c #BAC0B6",
"dX c #C3C2BD",
"fX c #91B0C9",
"gX c #A7BAC7",
"hX c #B8BCC3",
"jX c #BDC0C8",
"kX c #C8C9C8",
/* pixels */
"c.c.q.R.E.9.9.V.c.c.l.c.A.q.9.y.h._ q.D.D.s.f.F.S.N.0.b.N.6.b.L.q.r.L.L.c.t.V.K.n.C.c.v.c.C.L.L.A.b.D.'.Z.).m.m.f.q.C.D.m.b.k.k.",
"c.b.k.M.Z.p.Z.A.C.V.C.v.m.8.9.` i.f.f.N.F.q.f.q.a.F.S.0.s.B.B.h.} ' ' { q.R.S.K.C.C.k.r.N.L.A.c.C.7.0.q.i.'.W.N.N.m.c.v.r.C.t.C.",
"m.m.Z.8.t.f.M.z.H.A.L.'.b.a.v.e.m.t.9.e.A.v.Z.v.r.v.'.s.0.T.{ ) :.%. .%.] B.a.0.C.K.V.m.D.N.0.C.N.r.8.8.0.t.m.q.N.a.N._.C.K.Z.K.",
"e.8.t.T q.i.a.e.k.v.V.D.W.a.t.H.l.k.k.k.V.e.V.v.J.n.n.v.` =.%.8 5 1 2 6 R T B.W.V.v.H.H.a.8.0.(.K.N.Z.Z.i.q.0.m.'.(.D.).r.w.V.m.",
"m.a._ Q.D.s.k.k.n.k.0.D.a.q.q.t.C.L.l.c.V.e.c.C.l.j.b.} <.W 2 * * * - U Y.d.v.{.(.0.v.b.q.I.Z.C.C.).Z.Z.i.m.B.a.m.Z.C.m.a.m.m.c.",
"c.N.s.).a.8.r.b.C.C.C.C.a.8.i.t.C.K.n.q.(.`.m.)._.a.h.<.W 3 q w 0 0 8 *.I.N.C.J.v.r.t.8.` f.t.v.t.N.m.i.9.t.q.f.0.0.v.b.a.C.e.q.",
"S.S.D.C.6.0.r.m.C.b.C.K.8.e./.Z.a.b.F.h.B.'.a.L.W.{ %.8 l f f f f j 8 %.i.H.l.7.V.m._ q.Z.B.8.c.k.c.t.m.i.9.i.Z.N._ q.K.K.D.m.v.",
"b.b.C.m.a.c.D.W.8.t.C.C.H.v.V.t.S.h.' ' | U.I.P.>. .8 j f f x x g x 8 R p.J.r.b.j.m.M.`.Z.b.j.C.K.q.9.t.B.t.t.R.V.f.0.m._.t.m.v.",
"N.c.l.l.n.(.B.B.f.a.s.S.].'.r.b.S.Q.} %.%.U W W l j t d n d z m g d v ..R p./.Z.0.q.V.H.0.r.C.c.H.Z.A.8.9.9.Z.i.q.a.N.a.0.N.C.V.",
"i.e.n.n.V.Z.f.y.Q.f.0.N.G.N.h.h.,.,.! 7 1 , , , < = r h A G F F M M x v &.-.u.i.q.t.V.k.S._.n.k.e.Z.`.t.9.m.B.M.N.a.m.f.0.(.m.f.",
"M.z.b.n.k.k.M.f._ L.D.S.0.{ ,.! t < > # : > < 0 9 9 a w s g G F Z C J +.#.2.,.' i.J.{.J.S.F.Z.k.k.m.H.(.R.A.8.N.W.q.m.N.(.).t.q.",
"i.m.N.8.8.9.V.t.( N.D.N.} %.8 < $ $ = 0 q y e e q w q e u s g m f y y y x Q <.~.B.{.J.V.B.f.f.m.V.m.0.t.i.t.q.t.W.m.a.0.).m.m.V.",
"m.f.N.N.N.s.r.v.k.C.0.I.*.4 : $ 0 0 q t e r w w r y q t y p i u p f q = q t E <.I.m.m.z.Z.(.q.i.q.S.).K.t.t.f.9.t.N.f.0.8.t.m.m.",
"L.m.i.W.'.N.0.m.R.u.U.! - # = 9 e w p i g h s h d d z z p p y e p t 9 = 0 < 3 E ;.p.i.p.8.m.m.z.7.w.C.Z.f.m.N.R.B.m.Z.N.8.M.m.x.",
"N.b.f.i.m.A.j.m.g.>.8 : # 0 9 e e m m m n n n n n h g b d u u u i q 9 = = * < 2 c :.I.Z.K.C.i.t.C.c.m.c.t.V.q.i.D.0.q.m.t.i.t.p.",
"b.q.q.a.t.m.b.Q.>.8 : > 0 q p i g n g G XX>X.X.X@XI V L B n h h d u s w q 0 * 0 3 c >.g.M.n.t.b.D.Z.f.V.C.m.t.f.N.t.q.V.W.k.t.m.",
"0.v.e.m.t.Z.`.>.8 , $ 0 r r i m n I pXdXpX,X>XXX.X@XP .XB N eXP h G n r y q = * $ 0 E R M.C.a.a.Z.R.t.a.C.7.k.i.t.W.A.x.m.c.Z.V.",
"a.m.m.m.q.p.}. .# > 9 w e g G :XpXkXdXeX:X;X;X:X@XZ P V N L I  X XH I I J d d q u 0 j U ] M.Z.C.q.9.B.t.w.0.m.i.B.T.`.z.r.C.m.V.",
"B.D.W.B.s.` >.1 , 0 e i N D 2XkXaXaXiX2X9X:X4XwX1X-XOXK L V D S S D A P 1X@XB d r e t 5 ! =.!.D.q.Z.f.t.V.k.V.t.N.f.Z.V.c.a.t.t.",
"s.M.N.f.b.d.6 : 0 q u B |.&XdXaX:XpXiX:X;X;X9X&X&X0X;XXXP J S Z F D D Z L 1X2XL m z p t 2 ! | f.Z.C.q.f.M.).f.m.f.a.m.H.C.0.V.M.",
"i.q.` 9.g.) : 0 9 u M OX=XuXaX,X1X1X2X;X=X:X:X&X@X@X*X@XXXXXO.K Z Z J o.S F K *X=XS b i t k R [ V.V.t.q.t.Z.a.C.Z.q.k.V.L.C.m.d.",
"N.t.q.y.U.6 # 0 r g  X=X-XuX,X>X&XOXOX&X&X&X@X>X.X XP XXP O.O.S J K +.+.O.K D J -X6X.XV u 3 W Y.{ N.a.m.m.i.Z.K.m.m.C.m.H.C.f.f.",
"f.f.m.I.:.- 0 9 d V &X#X=X&X>X6XqX7X=X=X=X=XXXoX>X|.I P J  XK .X.X.XoX+.^ |.H V H I pX>XA z 5 ! =.` N.Z.i.M._.).v.V.v.b.C.C.W.d.",
"m.M.x.U.W : e e V XXXX=X=XqXpXuXhXjXhXtXtX6X=X-XOX XJ J A J D |..X*X=X=XXX XP H V H H ,X@XD C 8 ! I.N.V.i.m.B.v.9.t.q.v.c.m.`.B.",
"m.e.M.Y.5 0 e b I +X*XqXtXuXhXiXhXiXjXuXiXuXuXyXqX0X-XOX|.F C ^ XX=X=X4X3X%X|.J J J L L eX;XP C c <.8.C.V.t.t.f.i.i.s.c.m.q.Z.M.",
"i.x.E.:., = d L +X+X7XyXuXuXwXtXuXrXqXrXtXwXuXyXyXwX6X<X;X=X=X#X|.|.#X&X%X$X+XP J L V L OXwX>X|./ ! d.e.A.V.f.t.i.t.Z.s.B.m.q.r.",
"e.p.] U < r M |.+X1XrX6XwXwXwXiX+X1XrX7X6X6X7XqXqX4X7XqXqXtXiXuX9X&X#X#X$X+X+X+XL J S O.|.oXuX;X$.Q ;.y.q.t.B.T.M.t.Z.q.t.t.Z.b.",
"j.u.;.7 t u Z  X%X5X7X<X9X9XuX9Xy y J +X6X6X4X:X=X:X;X9XqXqXuXiXdXiXiXpXeX&X+X+X+.J +.M |.XX|.iX<X#.! -.u.t.i.t.f.p.m.m.M.m.K.m.",
"j.u.%.4 t b D .X%X<X7XeX1X&XuX Xd = % J +XXX&X#X&X*X@X&X1X;X,X,XqXqXpXtXpXiXeX@X.XK Z P V P J +X2X-X1.%.I.g.9.8.M.t.e.e.M.A.0.V.",
"c.T.! , t V P |.=X7XqXqX0X1XOXZ N d f $X%X+X%X%X%X3X3X%X-X5X5X5X4XgXhXhXkXkXhX6X$X|.V V Z V J C  X0X5X@.>.y.B.m.m.b.a.m.m.z.r.m.",
"G.Q.W 2 f M J K $XqXuXwXeXI b C b x o.o.@.@.1.&.&.*.2.<.:.*.*.<.<.2.fXfXfXfXgXgX%XXXH G V Z J L L OXwX3X<.!.e.V.A.H.m.Z.k.t._.(.",
"G.h.c t M C K  X-X&X$X4X-XJ m C v X.1.&.! &.>.>.-.] U.~.| ' [ } | R R Y.<.:.&.2.3X$.|.B b L |.L K |.:XtX2.} p.V.z.Z.Z.V.A.V.K.v.",
"L.!.E j C m qXwXoX|.#X#X7X$.p c ! ;.,.-.P.P.g.R.9.f.q.i.q.[ g.[ E.M.i.T.I.] u.} =.&.#.Z N N S ^ |.K .X7X8X:.u.i.x.p.m.Z.v.a.t.a.",
"].I.c l C |.;X^ =X=X4X3X4.&...%.P.i.E.f.i.N.m.t.m.m.f.q.m.i.y.9.f.i.v.0.q.M.z.p.g.;.1.#.J B C S oX|.P &X5X3.P.p.y.f.N.a.C.a.( N.",
"b.{ W j S  X^ #XiXuX8X<.U.p.I.I.E.T.T.f.B.D.e.v.C.Z.K.C.f.p.q.N.f.s.q._ m.H.p.p.M.u.=.*.$.$XK B +.O.P XX%X3.} q.t.m.M.f.f.Z.0.V.",
"v.u.E k C J #XhXjXyX&.R E.l.r.v.f.q.M.B.f.V.v.C.L.D.Z.(.V.t.R.Z.D.F.f.f.n.V.m.i.t.f.u.>.1.$.$.Z L K P I XX8X;.B.9.t.M.i.q.Z.V.q.",
"A.g.U 5 / F oXhXjX8X=.M.n.n.e.f.f.9.8.q.a.m.C.v.k.v.V.Z.v.t.H.(.S.'.B.B.H.k.e.v.a.m.Z.f.;.2.5X+.L L L P  X5X<.E.t.m.9.p.m.H.m.z.",
"j.[ U 8 C J =XtXfXY.E.H.j.n.m.N.0.N.f.V.(.K.m.0.t.0.w.e.Z.H.t.v.S.F.F.N.z.V.J.j.q.q.C.m.h.=.4.%XC J L  XP $.<.[ z.k.T i.Z.m.e.k.",
"s.h.%.8 o.5X7XgXfX!.).H.C.C.B.M.v.m.C.Z.r.q.Z.B.m.N.m.t.Z.H.r.V.C.N.e.6.q.C.J.K.Z.N.f.b.S.I.&.#.+.J J J L %X1.>.M.k.t./.Z.A.z.x.",
"N.h.Q. .$.0X6XgXY.i.t.H.C.Z.V.V.Z.0.q.s.v.a.q.t.f.Z.C.v.m.V.V.Z.V.a.k.b.m.N.L.L.t.Q.b.s.S.B.-.2.o.J J J P +...;.u.k.k.e.6.z.A.V.",
"N.q._ ,.4.%XyXfXU.i.T i.M.8.j._._.q.N.m.Z.f._ W.R.B.Z.f.f.v.v.K.V.w.v.Z.i.a.B.W.m.q.N.N.t.f.M.U.1.C C D V / @.:.g.m.C.K.c.v.0.V.",
"V.K.S.| c +.gX5.P.t.p.[ p.i.j.j.H.v.q.f.f.t.q.B.9.Z.f.9.i.m.q.e.C.m.a.t.N.x.t.M.M.q.0.0.t.z.x.P.<.@.m D F ^ @.<.!.m.v.n.n.r.t.m.",
"V.J.L.{ Q @.fX<.u.i.B.p.y.(.S.c.r.V.q.q.8.f.f.8.t.q.f.q.m.).t.Y t.N.a._ 9.x.i.p.f.D.a.8.t.f.9.f.>.1.x n F C ~ :.E.m.0.r.r.C.C.C.",
"J.V.n.h...8X^.-.i.Z.D.q.m.D.S.S.0.t.t.t.f.Z.f.f.f.f.W.).M.t.M.N.t.N.f.9.9.x.M.t.q.V.k.t.i.i.0.m.u.%.E i M C Q ;.[ N.Z.Z.c.K.K.K.",
"p.i._ -.&.fX}.] p.m.C.t.v.k.n.Z.m.q.i.m.R.Z.t.D.Z.V.a.m.V.0.t.f.0.t.z.i.z.q.q.B.m.8.q.B.f.` t.f.d.] X.l x ^ Q ! u.b.m.m.J.L.K.V.",
"i.f.y.[ %.<.;.T q.q.b.C.H.V.Z.q.t.f.z.z.Z.m.q.t.C.m.Z.t.0.q.B.Z.q.0.z.z.z.9.q.m.V.z.N.N.h.q.9.m.N.[ %.l t o.~ &.T.C.q.t.m.K.C.9.",
"a.b.S.q.{ ' f.f.j.c.m.A./.A.W.s.T z.A.z.m.v.V.w.w.n.m.B.0.t.K.Z.f.M.Z.V.k.k.c.n.c.B.Q._ y.f.q.V.Z.y.) W t C / ..M.L.Z.D.k.m.t.9.",
"6.S.].n.C.s.N.b.v.C.N.q.i.9.B.D.t.m.H.Z.k.m.K.C.r.b.r.C.C.K.t.q.f.(.Z.c.n.v.k._.Z.a.Q.` q.B.t.9.N.d.;.%.j x o...g.j.9.t.t._ q.t.",
"s.b.C.b.[.G.S.L.L.b.b.N.i.i.t.Z.m.b.q.N.m.t.D.V.N.9.0.m.q.( a.m.m.t.C.H.H.V.V.C.).b.f.b.V.v.(.k.9.[ ;.1.j < +.c >.D.m.8.T i.i.q.",
"6.b.K.b.S.b.b.S.).s.q.m.A.m.t.t.N.8.D.a.t.L.N.N.N._ 0.D.D.Z.q.m.C.9.v.Z.V.z.9.m.V.N.D.N.r.m.n.R.p.-.&.c < % d 2 U U.I.N.e.9.B.B.",
"N.a.S.L.N.S.n.s.0.9.t.V.m.e.m.N.m.v.K.8.q.D.a.N.Z.B.m.q.t.m.m.V.N.N.m.Z.m.z.z.V.t.m.w.N.(.N.r.Z.!.<.c $ % + * # , c Y.{ q.D.W.D.",
"N.C.r.b.b.L.].0.r.b.C.i.9.9.q.m.Z.Z.v.9.( q.f.( f.Z.N.b.8.Z.Z.(.D._.Z.t.z.z.A.Z.Z.C.Z.a.).t.B.d.}.~ > + + + # % % , %.} y.f.6.b.",
"V.t.k.r.C._.c.a.m.t.m.q.8.q.9.z.Z.A.t.z.q.8._ m.'.m.W.B.m.t.v.D.K.C.m.t.a.f.V.Z.Z.k.H._.0.N.h.} ..2 O o . + @ @ @ # 8 =.} _ j.n.",
"B.m.q.(.).a.8.a.Z.k.k.t.e.v.z.Z.M.t.i.`.V.9.q.N.m.q.V.D.t.v.t.a.V.b.N.[.W.a.B.R.k.8.V.V.a.q.h.=.c @ o . . . @ o + # 1 ! P.N.L.c.",
"V.t.q.N.r.b.C.c.a.0.6.t.m.m.C.V.V.m.t.C.Z.t.t.8.0.t.m.v.0.0.Z.r.w.s.t.[.B._ 9.e.l.H.z.e.h.f.h.=.5 & &   . + + o + % * 8 ,.h.b.F.",
"q.m.m.c.( D.Z.r.C.(.Z.D.C.t.B.t.t.v.(.t.q.N.Z.t.t.t.N.K.a.v.9.0.v.r.q._ q.N.8.m./.z.A.A.).!.F.) , & o o . . . + + % * l ) h.h.F.",
"m.V.0.0.6.m.v.b.S.].S.c.a.D.K.a.m.(.).C.0.b.Z._.N.b.t.N.K.L.N.6.C.C.N.s._ q.b.B.V.w.k.V.A.`.Q.) ; O O X . . .   + @ > t &.}.M.`.",
"D.L.t.m.b.r.t.a.c.m.K.0.0.(.b.N.Z.N.t.D.(.t.b.D.Z.v.6.0.m.).L.K.K.C.W.).N.q.f.B.v.A.z.e.M.p.u.] U ! W - ; > X - @ @ # t W :.I.h.",
"Z.C.0.Z.m.a.m.r.a.v.s.S.S.6.r.b.N.r.r.C.N.Y r.N.C.N.b.N.N.N.C.Z.b.q.m.D.W.N.f.a.m.V.V.Z.i.9.Q.{ u.} u.E.P.R U R 7 - @ t X.*.{ N.",
"[.s.v.(.Z.a.0.m.t.C.b.r.c.m.Z.v.c.t.b.m.D.S.b.s.S.L.(.a.m.Z.m.8.N.Z.a.8.B.W.C.m.V.Z.Z.(.B.B.y.Y i.8.7.J./.{.M.-.R ! 4 4 W *.{ s.",
"C.6.a.r.q.V.k.V.N.C.L.v.m.C.m.q.r.D.b.r.].[.t.0.W.D.B.t.V.f.t.q.t.N.i.Y i.B.V.i.q.s.a.m.M.M.t.p.R.Z.8.b.'.9.T T g.U.U.U 6  .q.b.",
"v.b.a.0.m.z.q.Z.L.D.m.b.t.6.a.c.q.S.v.r.N.q._ q.a.Z.`.f.i.9.9.k.q.8.m.t.V.N.N.m.m.0.a.C.t.8.m.m.p.Z.C.N.B.Y ` p.9.m.s.h.U ) D.c.",
"a.L.N.9.i.z.t.f.m.8.0.Z.V.0.t.Z.f.a.D.N.t.8.m.i.f.i.N.f.m.i.8.M.R._ z.x.z.t.i.N.r.s.N.D.B.f.k.k.a.0.).L.N.b.f.q.e.V.y.{ ' d.V.e.",
"N.V.V.m.q.9.t.V.t.0.a.K.Z.z.t.i.Z.m.'.m.q.N.).a.q.q.8.9.i.M.9.i.x.9.m.M.A.t.t.Z.a.8.s.r.t.(.k.r.t.L.D.D.B.t.i.m.k.9.y.B.).m.q.m."
};
