/* XPM */
static char *b0e319556d5e441d8c87ec7ff0440023eneAs0qq4xHgowt6[] = {
/* columns rows colors chars-per-pixel */
"64 64 206 2 ",
"   c #7E4F35",
".  c #78492B",
"X  c #7B6F5F",
"o  c #88441F",
"O  c #8F4D26",
"+  c #844D2C",
"@  c #8B4D29",
"#  c #864526",
"$  c #984E27",
"%  c #974D28",
"&  c #8D532D",
"*  c #9D5224",
"=  c #95532C",
"-  c #9C552D",
";  c #8C4F30",
":  c #855433",
">  c #8E5233",
",  c #945534",
"<  c #9E5434",
"1  c #965934",
"2  c #995936",
"3  c #9A5B38",
"4  c #975739",
"5  c #A0572E",
"6  c #A2592F",
"7  c #A85B2D",
"8  c #A15433",
"9  c #A35A32",
"0  c #AD5E34",
"q  c #A35A38",
"w  c #AC5F39",
"e  c #BC612F",
"r  c #A36137",
"t  c #AD653C",
"y  c #AE6A3E",
"u  c #A66239",
"i  c #B46435",
"p  c #BB6533",
"a  c #B66C35",
"s  c #BB6934",
"d  c #B5663A",
"f  c #BA663B",
"g  c #B66A3C",
"h  c #BC6B3D",
"j  c #BE703D",
"k  c #C36E3C",
"l  c #C96F3A",
"z  c #C36937",
"x  c #C5713F",
"c  c #CA733D",
"v  c #C27237",
"b  c #9D6645",
"n  c #9E6B4D",
"m  c #8A715A",
"M  c #98765B",
"N  c #AF6643",
"B  c #A06845",
"V  c #A16749",
"C  c #A26C4C",
"Z  c #AA6D4A",
"A  c #AF6B44",
"S  c #B46641",
"D  c #B86641",
"F  c #B46C43",
"G  c #BC6D42",
"H  c #B56B48",
"J  c #BC6D4A",
"K  c #A6704C",
"L  c #B67346",
"P  c #BD7144",
"I  c #B3724B",
"U  c #BD744B",
"Y  c #BF784C",
"T  c #A36B53",
"R  c #AA6C56",
"E  c #B96D51",
"W  c #A17051",
"Q  c #AA785A",
"!  c #BD7751",
"~  c #BC7956",
"^  c #B87957",
"/  c #8A7965",
"(  c #A57D63",
")  c #B07867",
"_  c #C16E42",
"`  c #C47344",
"'  c #C97445",
"]  c #C47B43",
"[  c #CB7945",
"{  c #C5754A",
"}  c #C9774A",
"|  c #C6794B",
" . c #CC7B4C",
".. c #D27A47",
"X. c #D17D4C",
"o. c #D57B48",
"O. c #C47951",
"+. c #CC7D52",
"@. c #CF7D5B",
"#. c #C47756",
"$. c #D17E52",
"%. c #C27A62",
"&. c #B58164",
"*. c #BC8B6D",
"=. c #BE8260",
"-. c #A78474",
";. c #BD8D75",
":. c #B88476",
">. c #AB907D",
",. c #BF9376",
"<. c #CC844D",
"1. c #CA8043",
"2. c #D2814C",
"3. c #DA834D",
"4. c #CD8153",
"5. c #C7865E",
"6. c #CA845C",
"7. c #D38254",
"8. c #D98655",
"9. c #D38459",
"0. c #D98758",
"q. c #DB8959",
"w. c #C38564",
"e. c #C78B67",
"r. c #C48D6E",
"t. c #CA8C6B",
"y. c #C88765",
"u. c #DF8E61",
"i. c #CA916F",
"p. c #C58F71",
"a. c #CE8F71",
"s. c #C58F7A",
"d. c #C88F7B",
"f. c #C49575",
"g. c #CB9474",
"h. c #C59379",
"j. c #CC947B",
"k. c #A79B8F",
"l. c #B69D89",
"z. c #BBA08D",
"x. c #BEAB9E",
"c. c #C79E86",
"v. c #D09D80",
"b. c #CDAD98",
"n. c #DAAE97",
"m. c #DFB296",
"M. c #DCB39B",
"N. c #E3B296",
"B. c #E1B29A",
"V. c #C2AFA1",
"C. c #DBB7A2",
"Z. c #DCB9A3",
"A. c #DDBDAC",
"S. c #DABEB0",
"D. c #E9BFA7",
"F. c #E4BFA9",
"G. c #E8BFA9",
"H. c #E4BEA7",
"J. c #DEC2AD",
"K. c #DDC4B1",
"L. c #E4C2AE",
"P. c #E8C5AF",
"I. c #E4C4B2",
"U. c #E9C6B0",
"Y. c #E3C9BA",
"T. c #EACCBB",
"R. c #E8C8B1",
"E. c #F6CFB9",
"W. c #F4D2BD",
"Q. c #F9D1BA",
"!. c #E6D8CF",
"~. c #F9D5C2",
"^. c #ECDDDA",
"/. c #F0E9E1",
"(. c #FFF5E6",
"). c #FEF5ED",
"_. c #FFFAEE",
"`. c #FCF5F3",
"'. c #FFF9F5",
"]. c #FFFFF6",
"[. c #FFFDF5",
"{. c #FFFBF3",
"}. c #F2FEFE",
"|. c #F7FFFF",
" X c #F5FFFF",
".X c #F6FCFE",
"XX c #FEFAF9",
"oX c #FFFEF8",
"OX c #FFFDFB",
"+X c #FFFEFB",
"@X c #FFFFFA",
"#X c #FEFDF9",
"$X c #F8FFFF",
"%X c #FBFFFF",
"&X c #FAFEFE",
"*X c #FFFCFD",
"=X c #FFFFFD",
"-X c #FEFEFD",
";X c #FCFFFF",
":X c #FDFFFF",
">X c #FEFFFF",
",X c white",
"<X c #FFFEFF",
"1X c #FDFEFE",
"2X c #FFFFFF",
"3X c #FAF6F6",
/* pixels */
",X,X,X,X,X,X,X,X,X,X,X,X,X,X,X,X,X,X,X#X#X`.*X*X,X%X%X,X,X,X[.#X,X,X#X#X#X#X X X%X%X'.).[.[.#X#X%X,X,X,X,X,X,X,X,X,X,X,X,X,X,X,X",
",X,X,X,X,X,X,X,X,X,X,X,X,X,X,X,X%X%X,X3XXXXX,XXX,X,X%X%X,X#X#X[.,X,X,X#X#X,X X%X.X,X#X#X[.[.%X%X%X,X,X,X,X,X,X,X,X,X,X,X,X,X,X,X",
",X,X,X,X,X,X,X,X,X,X,X,X,X,X,X%X}.}.%X%X#X[.#X#X,X,X%X%X,X[.[.[.,XXX,X#X#X,X%X%X.X,XXXXX,X*X X}.%X,X,X,X,X,X,X,X,X,X,X,X,X,X,X,X",
",X,X,X,X,X,X,X,X,X,X,X,X,X,X,X,X X}.#X[.)._.(._.).).{.)._.(.(.).'.'.).).).'.'.{.XXXX).'.).{.%X%X,X,X,X,X,X,X,X,X,X,X,X,X,X,X,X,X",
",X,X,X,X,X,X,X,X,X,X,X,X,X,X,X,X#X[.[.K.b.M.m.n.m.M.C.C.n.n.N.n.M.M.B.N.N.N.M.M.n.n.B.H.C.T.).#X,X,X,X,X,X,X,X,X,X,X,X,X,X,X,X,X",
",X,X,X,X,X,X,X,X,X,X,X,X,X,X,X,X`.{.).L.h.&.=.5.w.=.w.w.w.w.w.y.w.w.w.5.6.5.e.w.e.y.y.~ v.H.(.{.#X,X,X,X,X,X,X,X,X,X,X,X,X,X,X,X",
",X,X,X,X,X,X,X,X,X,X,X,X,X,X,X,X*XXX).I.;.# # $ < 8 3 8 8 q q q q q 9 7 7 6 9 9 - $ $ # p.H._.{.#X,X,X,X,X,X,X,X,X,X,X,X,X,X,X,X",
",X,X,X,X,X,X,X,X,X,X,X,X,X,X,X,X,X*X{.I.h.+ q t d S J H H H H J H F G j j h P L J S d O j.G.{.{.,X,X,X,X,X,X,X,X,X,X,X,X,X,X,X,X",
",X,X,X,X,X,X,X,X,X,X,X,X,X,X,X,X%X,X[.J.f.& u a P G U { U U U { #.U U Y | | L Y U F F 1 h.Y.#X,X,X,X,X,X,X,X,X,X,X,X,X,X,X,X,X,X",
",X,X,X,X,X,X,X,X,X,X,X,X,X,X,X,X%X#X_.J.,.& u h i i d i i t d G L F g d g P g L | L F 3 h.Y.#X%X,X,X,X,X,X,X,X,X,X,X,X,X,X,X,X,X",
",X,X,X,X,X,X,X,X,X,X,X,X,X,X,X,X,X[.).P.f.- a h s l }  .[ ' _ ..` h [ [ [ [ j {  .k h 6 g.U.[.,X,X,X,X,X,X,X,X,X,X,X,X,X,X,X,X,X",
",X,X,X,X,X,X,X,X,X,X,X,X,X,X,X,X,X[.).I.g.1 i x e z .... .' p ' c l 2.2.1.[ j ] X.c v 6 i.P._.#X,X,X,X,X,X,X,X,X,X,X,X,X,X,X,X,X",
",X,X,X,X,X,X,X,X,X,X,X,X,X,X,X,X,XXX'.F.h., N ` G ` $.{ { { G $.` k X.` x | g | 2.x h 7 i.R.[.#X,X,X,X,X,X,X,X,X,X,X,X,X,X,X,X,X",
",X,X,X,X,X,X,X,X,X,X,X,X,X,X,X,X,X,X'.I.c., N U f J #.{ Y { i +.} h 7.[ { <.F | 4.` h 6 i.R.[.,X,X,X,X,X,X,X,X,X,X,X,X,X,X,X,X,X",
",X,X,X,X,X,X,X,X,X,X,X,X,X,X,X#X,X[._.L.h., y P d P @.O.4.| i  .` f 8.} | 4.A Y 4.` h 7 g.U.[.#X,X,X,X,X,X,X,X,X,X,X,X,X,X,X,X,X",
",X,X,X,X,X,X,X,X,X,X,X,X,X,X,X,X[.[._.L.f.= y { g j 4.P | | i 7.} h $.' P 6.F O.7.` h 9 g.U.{.#X,X,X,X,X,X,X,X,X,X,X,X,X,X,X,X,X",
",X,X,X,X,X,X,X,X,X,X,X,X,X,X,X,X,X[._.L.f.2 F P p _ +.J }  .i X.{ h $.[ {  .g { 7.' h 6 g.U.{.,X,X,X,X,X,X,X,X,X,X,X,X,X,X,X,X,X",
",X,X,X,X,X,X,X,X,X,X,X,X,X,X,X,X,X#X_.L.h.2 F P d { 9.} +.| d X.{ ` 7.X. .<.j | 7.' h - g.P.{.#X,X,X,X,X,X,X,X,X,X,X,X,X,X,X,X,X",
",X,X,X,X,X,X,X,X,X,X,X,X,X,X,X,X,X#X_.L.h.1 y P i f _ f i f f $.{ G ` d i a g { $.` k 9 g.R.[.#X,X,X,X,X,X,X,X,X,X,X,X,X,X,X,X,X",
",X,X,X,X,X,X,X,X,X,X,X,X,X,X,X,X,X#X_.I.h.1 F P _ { +.$.+.+.$.@.{ ' X.X.$.<.9.9.+.' j 0 g.U.{.#X,X,X,X,X,X,X,X,X,X,X,X,X,X,X,X,X",
",X,X,X,X,X,X,X,X,X,X,X,X,X,X,X,X,X#X_.L.h.1 F G } ` $.$.+.+.$. . .|  .X.<. .+. . ._ k 8 g.U.[.#X*X,X,X,X,X,X,X,X,X,X,X,X,X,X,X,X",
",X,X,X,X,X,X,X,X,X,X,X,X,X,X,X,X,X#X_.I.h.1 F G G f D d i G _ _ } G h f s g d h  .' h 8 g.P._.#X,X,X,X,X,X,X,X,X,X,X,X,X,X,X,X,X",
",X,X,X,X,X,X,X,X,X,X,X,X,X,X,X,X,X#X_.L.h.1 F G h f $.$.+.@.' +.` h  .X.2.9.{  .+.' k 9 g.P.[.,X,X,X,X,X,X,X,X,X,X,X,X,X,X,X,X,X",
",X,X,X,X,X,X,X,X,X,X,X,X,X,X,X,X,X#X_.L.h.1 F ` h k @.+.} $.h $.| P 0.X.<.7.h { 7.' ` 9 g.P._.#X*X,X,X,X,X,X,X,X,X,X,X,X,X,X,X,X",
",X,X,X,X,X,X,X,X,X,X,X,X,X,X,X,X,X#X_.L.h.3 g J f ` +.{ } { D $.+.f 8.` { <.g ' 7.} k 9 g.P.{.#X,X,X,X,X,X,X,X,X,X,X,X,X,X,X,X,X",
",X,X,X,X,X,X,X,X,X,X,X,X,X,X,X,X,X#X_.L.h.3 y ` d ` 7.+.+.+.h $.{ h 0.[  .4.h { $.} k 8 g.P.[.#X,X,X,X,X,X,X,X,X,X,X,X,X,X,X,X,X",
",X,X,X,X,X,X,X,X,X,X,X,X,X,X,X,X,X#X_.J.h.3 t U f _ +.} } { f X.| D 8.{ ]  .g { $.' h 9 g.P.[.#X*X,X,X,X,X,X,X,X,X,X,X,X,X,X,X,X",
",X,X,X,X,X,X,X,X,X,X,X,X,X,X,X,X,X#X_.J.h.3 t ` h { +.} +.} _ 9.+.` 8.' [  .P | 7.} h 6 g.P._.#X,X,X,X,X,X,X,X,X,X,X,X,X,X,X,X,X",
",X,X,X,X,X,X,X,X,X,X,X,X,X,X,X,X,X#X_.A.f.2 t P i _ $. .+.{ f  .{ h 7.[ <. .P P $.} k 6 g.P.{.#X,X,X,X,X,X,X,X,X,X,X,X,X,X,X,X,X",
",X,X,X,X,X,X,X,X,X,X,X,X,X,X,X,X,X#X_.L.h.2 y P _ } @.}  .{ h $.+.{ 8. . .} P { $.' h 8 g.P.{.#X*X,X,X,X,X,X,X,X,X,X,X,X,X,X,X,X",
",X,X,X,X,X,X,X,X,X,X,X,X,X,X,X,X,X#X_.J.h.2 t P i f _ d f D d  .{ h ` s h h h h $.' h 6 g.P.{.#X,X,X,X,X,X,X,X,X,X,X,X,X,X,X,X,X",
",X,X,X,X,X,X,X,X,X,X,X,X,X,X,X,X,XXX{.L.h.1 b I H { @.} +.X.} u.| { 7. .2.4.<.4.X.` h 6 g.P.{.,X*X,X,X,X,X,X,X,X,X,X,X,X,X,X,X,X",
",X,X,X,X,X,X,X,X,X,X,X,X,X,X,X,X,X#X{.J.f.: m z.R E { ] ..<. .4.+. .2.X.8. .4.| } } f 9 g.G.{.#X,X,X,X,X,X,X,X,X,X,X,X,X,X,X,X,X",
",X,X,X,X,X,X,X,X,X,X,X,X,X,X,X%X#X[.{.I.g.: X k.:.) O.j s s a L ] h h s h h P P } ' h 9 g.L.{.,X*X,X,X,X,X,X,X,X,X,X,X,X,X,X,X,X",
",X,X,X,X,X,X,X,X,X,X,X,X,X,X,X,X%X#X_.L.g.: / x.) #.4.| c [ ] 4.| h  .`  .| P |  .' h 9 g.L.{.,X,X,X,X,X,X,X,X,X,X,X,X,X,X,X,X,X",
",X,X,X,X,X,X,X,X,X,X,X,X,X,X,X,X,X#X[.I.i.+ m l.R ! 7.<.2.[ P 4.| h q.2.7.8.j | $.} k 9 j.L.{.,X,X,X,X,X,X,X,X,X,X,X,X,X,X,X,X,X",
",X,X,X,X,X,X,X,X,X,X,X,X,X,X,X,X,X3X[.I.g.& M c.R _ @.} [ x i O.| a 0.` [ <.g { $.X._ 9 g.L.{.#X*X,X,X,X,X,X,X,X,X,X,X,X,X,X,X,X",
",X,X,X,X,X,X,X,X,X,X,X,X,X,X,X,X,X].{.J.t.2 Q c.Z { $.' [  .f 9.+.j 0.' |  .h } $.} f 9 g.I.{.,X,X,X,X,X,X,X,X,X,X,X,X,X,X,X,X,X",
",X,X,X,X,X,X,X,X,X,X,X,X,X,X,X,X,XXX{.I.t.= b R H } 8.c } ' i O.| G 0.[  .| h ] $...h 8 g.I.{.,X,X,X,X,X,X,X,X,X,X,X,X,X,X,X,X,X",
",X,X,X,X,X,X,X,X,X,X,X,X,X,X,X,X,X{.[.L.t.8 Z ~ H ' 3.c } +.S 9.| ` 8.[ [ | G | $.[ g 5 a.P.{.XX*X,X,X,X,X,X,X,X,X,X,X,X,X,X,X,X",
",X,X,X,X,X,X,X,X,X,X,X,X,X,X,X,X,X#X[.L.i.5 F ! d } o.c  . .f @. .P 7.[  .<.f { 7. .k 5 g.I.{.,X,X,X,X,X,X,X,X,X,X,X,X,X,X,X,X,X",
",X,X,X,X,X,X,X,X,X,X,X,X,X,X,X,X,X#X[.L.a.5 F U f  .3.[ +.} f +.{ P 8.2. .+.G  .+.} h 5 a.P.{.,X*X,X,X,X,X,X,X,X,X,X,X,X,X,X,X,X",
",X,X,X,X,X,X,X,X,X,X,X,X,X,X,X,X,X#X[.K.g.8 D ` g P v s d f J $.| ` ` h a a a ' +.' k 5 g.I.{.#X,X,X,X,X,X,X,X,X,X,X,X,X,X,X,X,X",
",X,X,X,X,X,X,X,X,X,X,X,X,X,X,X,X#X[._.I.a.8 f ` P ] 1.1.$.@.$.$.{ [  .X.4. .+.9.} ' h 5 g.L.{.,X,X,X,X,X,X,X,X,X,X,X,X,X,X,X,X,X",
",X,X,X,X,X,X,X,X,X,X,X,X,X,X,X,X#X[.[.K.d.8 D _ <.Y 1.<.@.@.7. .2. .X.7.8.4.4.4.} ' s 5 g.L.{.,X*X,X,X,X,X,X,X,X,X,X,X,X,X,X,X,X",
",X,X,X,X,X,X,X,X,X,X,X,X,X,X,X#X#X[._.K.d.8 f _ Y y a a S _ ` c  .P h s h h h P } ' f 5 g.L.{.#X,X,X,X,X,X,X,X,X,X,X,X,X,X,X,X,X",
",X,X,X,X,X,X,X,X,X,X,X,X,X,X,X,X[.[._.K.d.8 _ _ y y c ] O.@.x ` ` a [ [  .4.P | +._ f 5 a.G.{.,X,X,X,X,X,X,X,X,X,X,X,X,X,X,X,X,X",
",X,X,X,X,X,X,X,X,X,X,X,X,X,X,X,X[.[.[.K.s.< D _ L L <. .#.@.{  . .{ 0.7.<.7.P +.+.} f 5 h.L.{.,X*X,X,X,X,X,X,X,X,X,X,X,X,X,X,X,X",
",X,X,X,X,X,X,X,X,X,X,X,X,X,X,X#X#X[._.K.h.4 S { S U  .Y | O.g +.} ` 7.{ +.#.F #.@.P a - p.L.'.,X,X,X,X,X,X,X,X,X,X,X,X,X,X,X,X,X",
",X,X,X,X,X,X,X,X,X,X,X,X,X,X,X,X#X[._.L.,., t { d ` 4.' } | h  .{ _ $.' | #.F O.+.J d * r.G.{.,X,X,X,X,X,X,X,X,X,X,X,X,X,X,X,X,X",
",X,X,X,X,X,X,X,X,X,X,X,X,X,X,X,X#X_._.H.p.= i ` e l ..c ' ' p ' [ l 8.....} D }  .k p 5 e.D.).,X*X,X,X,X,X,X,X,X,X,X,X,X,X,X,X,X",
",X,X,X,X,X,X,X,X,X,X,X,X,X,X,X#X#X_.).H.p.- i _ e l o.[ ..' z ..' l o.l ..' f `  .l p * e.D._.XX,X,X,X,X,X,X,X,X,X,X,X,X,X,X,X,X",
",X,X,X,X,X,X,X,X,X,X,X,X,X,X,X,X,X[._.F.p., w ` e l  .c ' ` i ' _ h $... .} h {  .k d * r.G.{.,X*X,X,X,X,X,X,X,X,X,X,X,X,X,X,X,X",
",X,X,X,X,X,X,X,X,X,X,X,X,X,X,X,X%X#X[.K.;., w _ h ` +.' } } D +.| G $.l } ' d `  .G d = *.K.XX,X,X,X,X,X,X,X,X,X,X,X,X,X,X,X,X,X",
",X,X,X,X,X,X,X,X,X,X,X,X,X,X,X,X%X%X{.S.;.> q P 0 f _ g D F w U J F | d h D w G +.F t & ;.A.#X,X,X,X,X,X,X,X,X,X,X,X,X,X,X,X,X,X",
",X,X,X,X,X,X,X,X,X,X,X,X,X,X,X,X%XXX{.S.;.; q G i k ' G { #.G @.U F +.k ` { P #.{ F t @ *.A.{.%X,X,X,X,X,X,X,X,X,X,X,X,X,X,X,X,X",
",X,X,X,X,X,X,X,X,X,X,X,X,X,X,X,X].{._.Z.;.@ q f h G {  .| ` J { Y Y ] | ' ` ` Y G F 9 O *.M._.3X,X,X,X,X,X,X,X,X,X,X,X,X,X,X,X,X",
",X,X,X,X,X,X,X,X,X,X,X,X,X,X,X#X{.{.(.C.&.> u F F g L L ! F H H I I L j P L F F A ! r @ *.Z.(.].XX,X,X,X,X,X,X,X,X,X,X,X,X,X,X,X",
",X,X,X,X,X,X,X,X,X,X,X,X,X,X,X,X].).).I.-.  . b B b n C C n V C W W W K Z Z T W C n : . &.J._.].,X,X,X,X,X,X,X,X,X,X,X,X,X,X,X,X",
",X,X,X,X,X,X,X,X,X,X,X,X,X,X,X#X3X#X{.x.-.A.~.Q.W.W.W.~.E.E.E.Q.~.T.Q.Q.Q.W.E.W.T.W.~.H.>.x.{.#X,X,X,X,X,X,X,X,X,X,X,X,X,X,X,X,X",
",X,X,X,X,X,X,X,X,X,X,X,X,X,X,X,X%X.X,X`.^.).'.{.{.[.[.{.[.{._.{.{.{.{._._.{.{.XXXX`.{.{.!./.,X.X,X,X,X,X,X,X,X,X,X,X,X,X,X,X,X,X",
",X,X,X,X,X,X,X,X,X,X,X,X,X,X,X,X.X.X,X*X3X*X'.3XXX#X.X#X#X{.{.XX,X,X[.{.XX*X*X*X*X*X'.XX[.#X%X%X,X,X,X,X,X,X,X,X,X,X,X,X,X,X,X,X",
",X,X,X,X,X,X,X,X,X,X,X,X,X,X,X,X%X,X,X*X*X*X,XXX%X%X X%X%X#X#X#X,X,X#X#XXX,X%X X.X%X,X`.#X[.3X%X,X,X,X,X,X,X,X,X,X,X,X,X,X,X,X,X",
",X,X,X,X,X,X,X,X,X,X,X,X,X,X,X,X,X,XXX*X*X3X,X,X X%X X X%X,X,X[.%X%X#X#X,X,X%X%X%X%X,X{.#X#X#X%X,X,X,X,X,X,X,X,X,X,X,X,X,X,X,X,X"
};
