/* XPM */
static char *door_removebg_preview1655144707[] = {
/* columns rows colors chars-per-pixel */
"64 64 236 2 ",
"   c #3F2214",
".  c #461D0C",
"X  c #4A2A16",
"o  c #4C2D19",
"O  c #472613",
"+  c #4C301B",
"@  c #532C16",
"#  c #6D3315",
"$  c #7C3B1C",
"%  c #763817",
"&  c #6A2F0F",
"*  c #5A382D",
"=  c #6B3E2B",
"-  c #683C27",
";  c #733C22",
":  c #7A3E22",
">  c #713F28",
",  c #78421E",
"<  c #6A422D",
"1  c #7C4325",
"2  c #73422B",
"3  c #7C452A",
"4  c #7D492C",
"5  c #764525",
"6  c #6C4435",
"7  c #6C4A39",
"8  c #7C4A31",
"9  c #724C3C",
"0  c #724734",
"q  c #6E523B",
"w  c #73533D",
"e  c #7D533B",
"r  c #755442",
"t  c #7C5945",
"y  c #7D5C4A",
"u  c #7B5644",
"i  c #785C53",
"p  c #6C534A",
"a  c #7D614C",
"s  c #7F6250",
"d  c #5B6E7C",
"f  c #536B7D",
"g  c #5D707E",
"h  c #4A667E",
"j  c #6F7172",
"k  c #843D1D",
"l  c #893E1D",
"z  c #883F20",
"x  c #84411E",
"c  c #8A441E",
"v  c #94441E",
"b  c #844423",
"n  c #8B4423",
"m  c #854A24",
"M  c #8C4A25",
"N  c #83462A",
"B  c #844B2C",
"V  c #8B4B2C",
"C  c #8B462B",
"Z  c #934423",
"A  c #934B25",
"S  c #9B4C25",
"D  c #934C2B",
"F  c #9A4E2A",
"G  c #984627",
"H  c #8E502D",
"J  c #84522F",
"K  c #94512C",
"L  c #9C522C",
"P  c #9A5528",
"I  c #834C32",
"U  c #8A4E31",
"Y  c #864E3A",
"T  c #924E32",
"R  c #994F32",
"E  c #855134",
"W  c #8C5334",
"Q  c #83533B",
"!  c #8B553B",
"~  c #86593D",
"^  c #955433",
"/  c #9C5433",
"(  c #935935",
")  c #9D5A34",
"_  c #9D5A3A",
"`  c #95593B",
"'  c #A14E2B",
"]  c #A04D26",
"[  c #A3532C",
"{  c #A5592D",
"}  c #A35533",
"|  c #A35A33",
" . c #AA5D36",
".. c #A35D3B",
"X. c #AB5E39",
"o. c #A95531",
"O. c #9B613C",
"+. c #A46236",
"@. c #AA6136",
"#. c #A4633B",
"$. c #AB643C",
"%. c #AB693E",
"&. c #A66A3D",
"*. c #B0663D",
"=. c #8C5B44",
"-. c #825846",
";. c #945E44",
":. c #895F51",
">. c #8C654B",
",. c #966649",
"<. c #856253",
"1. c #8A6454",
"2. c #8B6A58",
"3. c #936E53",
"4. c #926D5A",
"5. c #986951",
"6. c #947054",
"7. c #9B7353",
"8. c #94725B",
"9. c #9B765C",
"0. c #967156",
"q. c #AC6542",
"w. c #A56B44",
"e. c #AC6C43",
"r. c #A76B48",
"t. c #B26C44",
"y. c #B16C48",
"u. c #AC7145",
"i. c #A4734C",
"p. c #AC734C",
"a. c #B7774B",
"s. c #A47554",
"d. c #AE7B55",
"f. c #A77A5A",
"g. c #B67B52",
"h. c #937463",
"j. c #9B7662",
"k. c #997B66",
"l. c #877162",
"z. c #A57D67",
"x. c #B47E62",
"c. c #C0794B",
"v. c #B7835E",
"b. c #AD815E",
"n. c #9E816A",
"m. c #988673",
"M. c #9F937D",
"N. c #A4836C",
"B. c #AB8366",
"V. c #A68671",
"C. c #A98672",
"Z. c #A68B75",
"A. c #B38C6C",
"S. c #C3875C",
"D. c #C69069",
"F. c #277BB0",
"G. c #556D82",
"H. c #5B7283",
"J. c #587389",
"K. c #527D9F",
"L. c #4A7B9C",
"P. c #677986",
"I. c #6A7C8A",
"U. c #657785",
"Y. c #4E7EA3",
"T. c #1F81BE",
"R. c #2984BC",
"E. c #3287BC",
"W. c #3983AA",
"Q. c #6A8696",
"!. c #728E9D",
"~. c #4884AD",
"^. c #5584A4",
"/. c #5984A5",
"(. c #5C8BAB",
"). c #5888AA",
"_. c #4B8BB3",
"`. c #4888B5",
"'. c #518EB8",
"]. c #5392BD",
"[. c #5C92B4",
"{. c #4E91BE",
"}. c #6791AB",
"|. c #598391",
" X c #1E83C2",
".X c #2485C4",
"XX c #2987C5",
"oX c #2589C6",
"OX c #2A8AC5",
"+X c #2487C9",
"@X c #268BCA",
"#X c #2B8DCC",
"$X c #2987CA",
"%X c #348CC3",
"&X c #318FCD",
"*X c #398DC3",
"=X c #2D91CE",
"-X c #2790CA",
";X c #3991C6",
":X c #3291CD",
">X c #3B93CB",
",X c #3E99CE",
"<X c #3691C6",
"1X c #2C8FD1",
"2X c #2E93D2",
"3X c #2F97D5",
"4X c #3394D3",
"5X c #3997D5",
"6X c #3599D6",
"7X c #3A99D6",
"8X c #3396D8",
"9X c #369ADA",
"0X c #3A9CDB",
"qX c #3897DB",
"wX c #3CA1DE",
"eX c #37A0DA",
"rX c #3B9EE0",
"tX c #3EA2E1",
"yX c #3FA7E5",
"uX c #4597CB",
"iX c #5699C4",
"pX c #439CD4",
"aX c #419EDC",
"sX c #4296D2",
"dX c #40A1DE",
"fX c #49A2D9",
"gX c #409FE1",
"hX c #42A4E3",
"jX c #44A9E6",
"kX c #45A9EA",
"lX c #48AAE9",
"zX c #4CB1EE",
"xX c #52B2F0",
"cX c #60A0C6",
"vX c #A29386",
"bX c #DEB18A",
/* pixels */
"9X4X-X=X-X-XOX4X$X&X0XkX=X<XiX|.j ,.6.2.4.2.6.6.8.8.8.h.h.8.8.4.4.8.8.6.8.3.6.2.l.<.1.;.~ l.).@X&X#X1X1X8X#X@X9X4X4X#X#X4X#X&X4X",
"6X-X-X=X-X:X8XOX1X4X2X#X9X,XW.}.m.9.j.z.z.N.V.N.n.V.C.C.C.V.C.C.N.N.N.N.n.n.n.k.h.2.h.:.f.vX~.5XgXrXrX0X6X8X2X4X9XwX4X6X7X&X#X4X",
"eX6XeXwX9X:X2X#X&X#X#X8XwX,XiXQ.Z.7.r r q q e w w e r r w r w w 9 w w q q q q 7 p 7 < ~ B.vX).5X0X4XtX0X2X6X9X#XeX9XhX9X.X&XlXaX",
":XeX9X6XhXwX0X8X$XqXlXrXeX<XW.|.vX5.O . O O O X o o X X o o o @ o o + + + X X X   O . =.v.m.[.4X&X9X@X@XjXeX.X6XwX8X4X4X4X&X4X&X",
"OX7X2XoX4X=XtXxXjX#X=X-X-XfXcX!.m.f.0 6 w w q a t t t y y y a a s <.s a a a a t i r 2 5.v.m.^.OXOX1X:X#X=X6X9XwXeX6X#X#X4X=XOXOX",
"&X.X#X7XeX4X9X0X8X6X=X=X6XE.iX!.m.s.=.3.9.N.N.n.V.n.N.V.V.V.V.V.Z.Z.Z.m.m.Z.V.N.z.j.;.r.S.M.).>X&X0XhX8X#X9XjXjX6X7X7X#XOX=X4X:X",
"#X$X4X#XR.:X6X2X.X8XeX2X-XE.W.!.N.w.! ,.7.b.8.6.8.8.9.j.9.N.A.Z.n.z.n.k.k.9.9.9.j.B.,.w.S.m.^.E.aX4X#X#X6X=XOX=X-X:X@XOX6X4XR.#X",
"&X4X8XOX-XdX=X.X2X9X2X4X5XuX].Q.z.w.=.>.s.7.>.2.3.3.8.6.>.f.A.A.3.6.3.3.3.3.,.3.f.z.` u.S.n.^.fX7X4X#XOX#X6X4X=XoX.XoXOX=X#X#X4X",
"OX$X.X#X:XOX8X8X9X3X-X-X-XE.'.Q.k.e.` ;.i.i.,.f.b.B.B.b.b.i.b.b.s.f.f.B.b.B.s.i.s.x.;.q.a.n.^.;X.X:XOX6X#X6X5X-X=X7X6X6XOX-X=X4X",
"5X4X0X.XOXOXqXkXyXtXtX XoX%X~.I.f.%.^ ;.r.,.,.s.s.s.d.b.&.b.u.b.r.i.s.s.d.b.s.i.f.d.#.$.v.k.L.fXjX-XOXOXwXOXOX-XwXeX=XtXwX:X4X:X",
"4X5X=X#X4X:X8X8XyX8XyX3X4XuX~.I.s.$.^ _ r.w.O.i.i.s.u.d.i.&.b.a.w.p.d.d.b.v.i.w.p.r.) e.c.k.}.lX>X&X7X4X-X7XdX6X#X#X2X2X=X6X:X#X",
"4X4X@XaX7XOX$X1X3X@X@X-X4X%XY.I.7.%./ ` w.u.O.,.p.p.v.b.u.i.a.a.%.p.p.p.p.g.w.&.r.w. .*.a.h.[.pX5XOX0XzX5XlX9X#X6XoX6X6X=X8X#X4X",
"4X3X9X1X&X&X5XrX8XeXeXwX4XE.~.P.7.@.K ^ &.&.O.&.u.a.a.a.&.u.v.v.&.e.p.u.p.p.#.+.y.q.| @.a.9.Y.5X5XXX.X.X#X0X9X4X8X6X8X9X4X6X0X0X",
"+X+X@X@XOX&X&X$X2X3XeXyX8X;X~.I.7.@.K ^ &.+.O.&.u.u.p.u.%.u.v.%.#.e.e.u.p.p.O.#.w...{ @.a.h./.aXaX4X0X4X4X@X@X4XjX0X0XhX8X=X4X0X",
"3X3X@XzX7XXX$X4X0X2X2XeXOXE.~.P.3.@.V K +.O.) %.%.u.t.u.%.%.a.u.+.e.u.u.p.p.+.#.q.q./ *.a.8.(.:X5XaXdX5X.X#X8X=X=X2X8X3X1X8X1X1X",
"9X9XtX8X.X.X&X8X2X3XeXeXoXE.].I.7.+.M D O.+.) %.%.%.%.%.&.%.u.t.+.w.w.u.p.p.) #._ ..P  .c.9.L.:X&X#X.X&X6X@XoX0X2X=X.XrXtXqX4X#X",
"3X3X1X1X8X6XwXwX-X&X=XtXkXfX`.P.3.@.m C +.+./ #.$.$.%.e.+.%.t.%.X.e.%.w.e.y._ q.....) $.g.k./.&X7X0X#X@X1X$X5X4X4X&X#X4X4X8X6X4X",
"2X@X8X8X+XtX2X-X6X6X=X0X6X>X'.U.5.@.b m | ) ^ #.$.@.$.#.) #.%.t.| q.%.%.q.y._ ......) q.g.k.).>XOXgXhX&X$X4XqX5X&X4X8X&X9X0X4X:X",
"#X3X9X1X X-X2X=XR.wX9X8X-X<X_.I.5.@.n M ) ) ) O.$. .+.+.) #.e.*.| q.#.e.q.e.} ....../ ..c.h./.&X5X#X9XqXqX&XXX$XgXqX&X1X9X9X#X=X",
"9X0X8X8XwX-X-X=X#X6X6XtXeX%X~.P.5. .b M P / / ..$. .+.#./ #.%.*...q.$.e.e.y.;.q...../ X.g.j./.&X.X8XhX4X&X&X:X8XqX&X4X1X#X2X8X6X",
"0X1X$X0XyXeX XeX0XOX4XwX2X;X[.I.5.| b C L L ) O.X. .| ) ^ #.*.*.) q.q.e.y.y./ ....} } X.a.j./.%X5X:X#X4X7X:X1X8X7X:X#X8X:XoX#X#X",
"4X#X#X#XoX2XwXeX:X&X8X@X.XuXiXI.5.| x C K L ^ _ +. .| ) L +.*.q.) q.$.w.y.y./ ..} ;.} ..y.4./.&X7X0X8X8X5X#X&X&X4X8X#X4X0X8X4X8X",
"#X6X6X1X-X3XzXeX4X:X@XoX2X<X_.g 5.{ x m D L K ..@.| ) / D ..%.$./ #.#.q.y.y./ _ _ } R ..t.h.(.7X&X4X4XOX#X$X&X&X&XhXdX4X=X2X6X2X",
"4X0XwX9X-X=X=X2XOX#X:X6X4XR._.P.,.| b b F D V ) | | { P D {  . .D .._ $.q.q./ _ _ / R o.*.4.(.sX5X4X2X@X4XqX:X:XqX&X8X9X:X#X=X2X",
"#X#XoX#X8X=X=X0X=X#X2X4X:X;XcXP.,.[ z : D D M ) } [ L | D } {  .D ) | $.$.q.R _ R R F o.*.1.Y.%X5X9X:X#X:XaX&XqX5X#X&X0XhX8X2X4X",
"7X#X#X8X6X-XT.2X7X=X#X#X-XuX_.g ;.F z $ D Z C ) | L A L M L [ | D / ) X...q.R ) D D F } X.1.(.pXXX@X4X0X&X5XgXhX4XqX1X4X0X0X6X2X",
"-X8X4X0XtXhXtX@X&X4X3X#X4XpX_.g =.F k $ A n n ^ | [ S K v S ] [ G ^ L | o...D ^ D D F [  .1.K.>X:X8XqX9X&X1XqXqXXX$X@X4X=X8XlX6X",
"4X#XqXkX6X3XzXyX&XhXrXrXdX;X_.P.=.S k $ Z c b L L P S L Z P ] [ G D F [ } } M R n z Z '  .1./.%X5X8X$X$X5X4X4XOX&X4X4X&X8X@X6X4X",
"R.oX#X$X9X8X XeXhX4X#XrXkX%X~.d >.S k $ n c c K P [ L S A S ] v Z S S o.o.o.G V G n G ' o.<.^.<XOX:X0X#X$X&X5XqX4XXX9X4X:X#XhX=X",
"OX4XqX.X.X=X1X8X1X&XqX1X&X%X_.g =.S $ k Z l x D P [ S S A S ] ] Z S v [ ' o.A D z l Z ] o.1.).>X:X6X0X@X4X5XXX$X4X4X#X#X8X4X=X8X",
"4X0X-XOX=X#X#X@X$XqXgX#X#X>X'.d =.A k % n c x K S P S A A S S ] v S v o.' } A V Z z l ] [ 1./.OX4XhX0X0XhXqX#X4X5X&X#X4X:X#X6X6X",
"6X0X4X1X4X=X2XrX5X4X+X4X8XE.L.H.=.v % % c c x A S P S S F S S ] A G v [ o.} A D l l ] ] [ 1.(.sXXX#X4X0XqX&X4X&X&XgX0X4X8X4XhX9X",
"xXrX3XrXqX#XqX$X#X0XrX8X7X*X_.H.~ A % , H c c H A S ] F S S ] ] v A v S [ | D D l l l ' o.5.K.sX&X:X0X:X4X&X5XOX&X4X:XqX5X&X+X4X",
"9X XrX1X1X4X#XXX@X#X#X1X7XsX].g e c % ~ D.m , m A S ] G Z S ] v v S v ' [ [ C A k k G ' o.:.K.R.$XqX$X&X0X4XOX&XOX&XqX4X:XqX+X8X",
"2X@X1X3X8X1X#X+X#X@X.X&X4XE.~.d ~ c # O.bXi.b.O.b A G G G F S v Z G G ] ' [ G C n l z ' X.1.(.>X.X2X4XhX&X$X4X0X&X&X:X$X#XrX4X1X",
"#X#X@X@XrX9XrX0X4XjXrX0X4X>X].g ~ S # O.bX7.~ O.J D D Z b Z P v v G A P S L n n l l Z R X.1./.5X4X8X#XqXgX:X&X:X#X$XXX4XrXqX$X1X",
"-X4X8X8XrX3XrXrX0XhX9X0XeXuXiXH.t D # B b., , , c m A M c A A P c M A K K D m b % k l ' X.1.K.&XOX4X4X4X4X#XOX4X6X#X$X8X&X1XqX3X",
"6X:X1X8XyX3X1X2X0XoX X8X6XE.~.f e M & W D.m J +.O.+.$.&.O.( P v ) #.w.w.e.#._ ( k l l F X.1.K.sX5X#X8X6X:X0X8X8X4X8X9XqX1X#X+XqX",
"9X9XyX1X@X1XoX8X2X=X2X#X=X;X'.f ~ A & , O.c K A v v P P P P A P n A D L G D n n l l z ' X.1.K.>X7X0X0X6X9X0X8XqXkX#X+X1X8X9X1X8X",
"=X9X3X3X3X@X8X2X=X8XtX#X=XfXiXg e A % & x M K +.] { [ ] P { P P D L } } } } _ R z z z ' X.1.K.>X&X#X0X7X8X4X0X4X$XrX8X4X3X0XhXrX",
"-X2X X@X1X3X3X@XoX3X3X8X8X<X].g ~ A % # c K ^ [ [ [ [ [ P +.{ P ) R R F G / ..C l z z o.*.:.K.uX:X#X7X-X#X@X1X2X8X8X8X2X8XtXwX#X",
"-X6XyX1X+X@X3X1XoX=X3XqX6X,XiXU.e M % # m K R ) | P { | ) ) +. ._ D ^ _ ..D T T z Z G G $.1.K.%X7X4XR.#X4X X$X@X9X2X3X8X=X2X#XoX",
"-XeXjX9XkX8X9XyX0X3X8X4X#XR._.H.~ H % % C C b U M c M V M M P L m J B m m b N I b b Z R  .1.^.:XOXOX4X4X2X6XtXtX9XqX#X@X X.X=XoX",
"oX=X0XtXyX3X8XrXtX@X#X3X6X,X_.f e A % % B b : U ( ( ^ ` b m L A % 8 ( O.( ^ b > b b n R @.<.).pX5X:X6X.XT.8X4X8XhXtX0X@XoX=XwX9X",
"3X3X3XrX3XtXyX@XoXoX9X2X.XR.`.d e D ; % B 4 4 ! V H V T : N _ D 1 V B C M C $ z b l G / | y ).,XlXfX-X:X0X=X.X=X=X.X0X-X-X:X=X4X",
"3X3X+X1XyXrX8X1X6X=X2X2X@XR.~.H.-.D : > B m 1 W W ^ D U $ C / V b B b m M M $ N z z Z R | <.(.OXR.:X:X5XjX4X#X=X6X:X7X-XOXoX4X6X",
"3X1X1X9X8X2X1X1X4X@X.X4X8X;X'.d e Z $ 1 C N V ( V K M V $ V / A 1 N N V V V : C b z Z F } <.(.%XR.R.fX=X:X7X2X6XtXtXeXwX6X6XeX:X",
"-X=X1X+XT.rXrX1X0XjXtX4X4X>XiXd u M , 1 C N C ^ ^ D V V $ T D A b 4 N B C V % C m z n } | -.(.*X:X:XxX0X4X-X@XjXjX@X-X4X4XdX6XjX",
"eXwX X3X=X-X2X&X8X0X6X-X:XpX].H.t K 1 1 B B N ^ ^ D V V : V ^ K 3 N N I U U : C n n C R / <.(.sX:X2X9XhX4X2XqX2X=X.X0X4X8XdX4X0X",
"jX3X3XyX2X=X8X1X+X3X8X2X4X%X{.f -.K : 5 B B N W V W V H 1 B ^ D 3 N 4 C C M : b N m n R ..1.K.%X:XR.#X4X0X9X8X:X#X.X#X0X@X4XXX4X",
"eX X-X-X=X2X1XqXrX0XhX=X-X:X{.H.t ^ : 2 I B N W W V H H N U ^ K b B 4 B V V : B C M n R } <./.E.dXwX.X4XzX.X.XR.4X4X4X0X:X5X-X4X",
"=XeXeX X2X8X$X1X9X8X2X9X4XR.`.f t ^ : 3 I I N U W W V U 4 W ^ V 1 I B U V V b B m M n R ) 1.K.*XR.:XwX7XqX#X+X#X.X8X#X.XR.4X0XOX",
"6XeX2X-XoXT.1XrX2X X-X6X6X;X~.f -.^ ; : U U N U W T V U N U ^ K b 4 N B C U N C H M b F } 1.K.XX:X7XdX6X6X4XXX8X2X#XOXjXhX=X-X#X",
"-X4X2X=X-X3X9X2X3X6X=X=XeXpXiXG.t D : 3 U I N U ^ W V U 1 U ^ V 4 B B V C U N N V m n R } 1./.sX:XoXOX#X=X:X4X@X8X6X#X:XoX:X4X:X",
"zXeX=XeXeX-X4X0X3X3X6X2XeX:XW.J.u T > 3 I N N U W W V U N U ( D B I I U C U B N N C C R / 1.(.sXXX&X7XoX4XdX:X=X4X6X0X7X:XwXwXhX",
"7X=X=X-X3X-X9X2X1X3X2X4X4X<X`.J.u T > > I I 4 I W U U W 4 I ( W 4 8 I I I U 8 N I U U R / 1.K.%X:X-X=X7XzX5X=X@X=X#XhX6X6X:X:X6X",
"eX6X2X9X#XqXrX8X X3X6XoX.XE.`.G.r W 2 2 8 e 4 Q ! ! W J 8 E O.W 4 E 8 e W I 8 4 4 m B T _ i (.>X:XjXwX4XhX#X&X@X4X0X4XOX@X@X.X4X",
"=X4X6X2X6XqXkXzXyX3XoX6XeX<XiXJ.u W 2 2 0 8 2 4 4 4 1 5 5 4 ! B 5 5 5 5 1 5 4 5 4 B J ^ } <.(.>XaX0X6X7X8X#X0XtX@X0X0X@X4X:X:XOX",
"OX-X0X6X6X3XrX1X8X3X3X2XwXfXiXJ.r B ; 2 4 I 4 W W W W W E E ( H W ` ` ` ` W E 4 3 m C V ) <./.sX7X:X#X8X#X2X2X4X0X#X#X:XlX6X4X#X",
"7X:XoX6XoX8X8X4X3XtXyX2X4X7XiXG.r E % > 4 B E ! W W ^ ( ! E M m J W E E W W E E B N V D R -.^.sX&X:X#X.X0X0X+X$X&X8X0X8X#X.X:XdX",
":XXXOX#XjXOX3X0XtXjX9X:X=XR.~.G.r B ; = 3 8 I I H B H B U I C C B B 3 3 3 N ! W 4 1 b T } :.(.fX5X#X6X#X1X4XqX4X8XqX8X&X@X#X8X7X",
":X5X:X6X6X4X8XkX3X X=X6X-X;XiXG.p 8 - = 0 0 Y e 8 4 4 4 0 I B V I I I W Y Q Q e 4 5 1 U T i Y.OX5X4X@X#X0XrX1X4X0X4X1X3X6X#X4X#X",
"OX&X#X=X@X#X8X9X3X@X9X6X6XfX{.h p 7 * * * - = - = - > - = = > > = - - < = 2 6 6 - @ - Y ! i ~.4X#XqXdXhX0X1X+XqX9XrX9XqXtX0X0X#X",
"5X4X&X4XtX8X1XrXrX3X#X-X6X%X`.J.i u * * * 6 p 7 = 7 0 6 7 0 0 0 0 0 6 9 0 6 q 7 < * - =.-.i '.8X2X#XhX0X0X2XrX4X#XqX4X4XqX8X9X4X"
};
