/* XPM */
static char *Door1655140673[] = {
/* columns rows colors chars-per-pixel */
"64 64 242 2 ",
"   c #4A2B16",
".  c #512C19",
"X  c #7C3B1C",
"o  c #763719",
"O  c #6D3113",
"+  c #5B3626",
"@  c #693C28",
"#  c #773E24",
"$  c #451C0C",
"%  c #7B411B",
"&  c #6C412E",
"*  c #7C4225",
"=  c #7C452A",
"-  c #7D492E",
";  c #74422A",
":  c #6C4534",
">  c #7D4B33",
",  c #734836",
"<  c #75533C",
"1  c #6F513A",
"2  c #1D557E",
"3  c #26597C",
"4  c #795845",
"5  c #705449",
"6  c #535D66",
"7  c #485A6F",
"8  c #57636C",
"9  c #5C6873",
"0  c #4B637D",
"q  c #636C76",
"w  c #6B757C",
"e  c #727A7F",
"r  c #833D1E",
"t  c #853E22",
"y  c #8A3E22",
"u  c #88431E",
"i  c #91451E",
"p  c #844424",
"a  c #8C4523",
"s  c #8C4A25",
"d  c #84462A",
"f  c #8B462A",
"g  c #844A2C",
"h  c #8B4B2C",
"j  c #854A24",
"k  c #924523",
"l  c #944B24",
"z  c #9B4C25",
"x  c #934C2B",
"c  c #9A4E2B",
"v  c #9A4623",
"b  c #8D502E",
"n  c #95512C",
"m  c #9C522B",
"M  c #9A5427",
"N  c #834D32",
"B  c #8B4D31",
"V  c #834E39",
"C  c #944E31",
"Z  c #855135",
"A  c #8C5234",
"S  c #85553D",
"D  c #8B573A",
"F  c #945333",
"G  c #9B5533",
"H  c #9D5A34",
"J  c #97593A",
"K  c #A14E2A",
"L  c #A2532C",
"P  c #A3592D",
"I  c #A35432",
"U  c #A35A34",
"Y  c #AA5C35",
"T  c #A35C3A",
"R  c #AA5E3A",
"E  c #A95636",
"W  c #B05E39",
"Q  c #9A633D",
"!  c #A4623B",
"~  c #AB643C",
"^  c #AB6A3D",
"/  c #A76337",
"(  c #B1673F",
")  c #875B47",
"_  c #925D45",
"`  c #88634C",
"'  c #97664A",
"]  c #8A6754",
"[  c #956954",
"{  c #8D715A",
"}  c #94725B",
"|  c #9C7458",
" . c #9D714E",
".. c #AB6541",
"X. c #AB6C43",
"o. c #AC6D49",
"O. c #A46C45",
"+. c #B46B44",
"@. c #AC724C",
"#. c #A87248",
"$. c #B5774A",
"%. c #A77857",
"&. c #B37C56",
"*. c #A16D55",
"=. c #9C7A64",
"-. c #A57C65",
";. c #A27C71",
":. c #C27950",
">. c #A3836C",
",. c #AB8569",
"<. c #B88667",
"1. c #A78773",
"2. c #AC9079",
"3. c #A68264",
"4. c #C58B66",
"5. c #C4805B",
"6. c #1C5B88",
"7. c #1A5E91",
"8. c #225E8A",
"9. c #255D84",
"0. c #315F81",
"q. c #1D628D",
"w. c #1D6492",
"e. c #1E6899",
"r. c #24618C",
"t. c #2B638B",
"y. c #2B668A",
"u. c #33668B",
"i. c #346A8E",
"p. c #3C6C8C",
"a. c #396785",
"s. c #236593",
"d. c #2A6692",
"f. c #246A95",
"g. c #2C6A94",
"h. c #246D9B",
"j. c #2B6D9A",
"k. c #216798",
"l. c #336C94",
"z. c #3A6D93",
"x. c #326E9A",
"c. c #386F99",
"v. c #2C729D",
"b. c #26719E",
"n. c #3C7294",
"m. c #34729C",
"M. c #3C749B",
"N. c #3A779A",
"B. c #1E6FA3",
"V. c #266DA2",
"C. c #2474A4",
"Z. c #2B74A3",
"A. c #2C7BAC",
"S. c #2978A7",
"D. c #3375A3",
"F. c #347AA5",
"G. c #3D7BA4",
"H. c #337CAB",
"J. c #3B7AA6",
"K. c #2D7EB3",
"L. c #267DB2",
"P. c #337EB2",
"I. c #476C87",
"U. c #556C84",
"Y. c #47718E",
"T. c #577388",
"R. c #43769B",
"E. c #447A9C",
"W. c #4B7B9C",
"Q. c #467494",
"!. c #527C9A",
"~. c #436F91",
"^. c #677887",
"/. c #717E8A",
"(. c #447CA2",
"). c #4B7EA2",
"_. c #437FAA",
"`. c #527FA0",
"'. c #3B82AD",
"]. c #3481AD",
"[. c #2D82B5",
"{. c #2E84B9",
"}. c #3382B4",
"|. c #3C85B4",
" X c #3386BA",
".X c #3589BC",
"XX c #3B8ABC",
"oX c #3B86B9",
"OX c #2E80AF",
"+X c #78848C",
"@X c #788A93",
"#X c #6B8596",
"$X c #4B82A4",
"%X c #4582AB",
"&X c #4C84AB",
"*X c #4A85A9",
"=X c #5383A4",
"-X c #5286AB",
";X c #548AAC",
":X c #5B8BAC",
">X c #5A86A8",
",X c #4C8BBB",
"<X c #468AB7",
"1X c #558CB2",
"2X c #598DB3",
"3X c #518EB9",
"4X c #5C92B5",
"5X c #5893B9",
"6X c #5291B5",
"7X c #6393B4",
"8X c #649ABC",
"9X c #6797BA",
"0X c #6B91AD",
"qX c #6BA1BE",
"wX c #55839D",
"eX c #358AC1",
"rX c #3B8DC2",
"tX c #3E92C8",
"yX c #458DC2",
"uX c #4492C4",
"iX c #4A94C5",
"pX c #4495CB",
"aX c #4C9ACC",
"sX c #4997CB",
"dX c #5699C8",
"fX c #499AD1",
"gX c #549ED1",
"hX c #659DC2",
"jX c #58A4D7",
"kX c #58A0CF",
"lX c #68A3C9",
"zX c #74A6C9",
"xX c #65AADA",
"cX c #7BB2D5",
"vX c #78ACD1",
"bX c #63AFE2",
"nX c #6DB6E8",
"mX c #5BABE1",
"MX c #84929A",
"NX c #DFB28A",
"BX c #8CB9D8",
"VX c #87BBE2",
/* pixels */
",X,XyXyX,XdX,X_.dXgXyX_._.hXBX/.{ ] } ] } ] { } } { } =.} } { { [ } { { { { ] ] ] 4 ] ) D { MX2X2XVXzX`.9X0X9X:X:X-X4XVXVXgXdXdX",
"xXxXdXdXyXdXxXdXgXdXkXdX_.c.`.MX>.| =.;.;.=.>.>.>.>.1.1.1.2.2.1.>.>.1.>.>.>.3.3.=.{ =.]  .1.@X7X>X`.BXVX7X>X>X9X7X7X4X5XxXcXlXhX",
"yXgXdXyX,X_.dXsX_.oXdXnXnXzX>XMX2.} , , < 1 < < < < 4 5 4 1 < 1 < < 1 1 1 1 1 1 : 1 @ ) <.MX/.9XhX`.c.`.VX:XwX$XhX:X2X2X_.hXlXdX",
"_._.gXlXdX,XpXnXmXjXyX,X<XdX0X@X2.[ .                   .     +   . . .       $   $ $ _ <.1./.W.).dX`._.5XvX7XE.R.zXvX_.1X_.hXkX",
"yX_.<XuXkXjXP.<XiX3XaXaX,XG.Q.+X1.3.& & < < < 4 4 4 4 4 4 ` 4 4 ` ] 4 4 4 4 4 4 4 4 : *.<.1.#X$X_.).&X-XhX:XvXVX$Xn.xXcX_.,X,XiX",
"bXpX}.|.J.gXjXiXaXXXXXuXxXgX=XMX>.%.S } | >.;.>.>.>.1.>.>.1.,.>.1.4.MX2.2.1.2.2.=.-.) ' <.>.T.*XhX_.5X).1X8X$XlXzXM.(.lXxX3X<X3X",
"yXjXjXjXdXoX<XuXaXbXjX|.XX5X:X+X>.' ) [ | %.| } [ } | =.| ,.<.2.=.3.3.=.| 3.3.{ =.=._ %.5.1.#X$X_.dX_._.G.&X*X4XvXlX;X4XhXvXhX8X",
"iXbXbXdXgXdXuX XXXaXgXkXXX%X:X+X>.O.D ' |  .) [ [ } | [ ` 3.<.,.[ { [ [ { `  .` | ,.J o.5.,.@X4X_.J.<X3X%XN.&X1X4XlXlX2X&X&X4XhX",
"oXXXaXgXgXjXjXfXaXaXbXnXaXdX0X+X3.^ D ' O. .` %.<.3.<.3.3.3.3.#. .| ,.,.-.<.|  .| &.Q ^ :.-.@XqX8XlXlX6X4X*X$X$X6X&X2X5X&X_.%X&X",
"K.K.<XsXdXgXbXbXiXoXXXjXkXdX9X+X| ^ F ' O.O.' %.#.#.3.3.#.#.#.3. .#.%.%.&.<.#. .%.3.T ( $.3.w $X5X$XlX8X$X;X6X$X;X8X1X5XhX&Xx.&X",
"oXP.K.oXyXdXgXfXaXuX|.XXdX<X>XMX*.^ G J O.O.Q O.#.3.3.#.#.#.#.5.O.#.%.&.&.&.#.O.#.#.m ( :.#.^.W.$X%X6X5X*Xn.6X;XR.-X7X8XzXhXhXR.",
"gXpXeXP.K.K.yXfXnXbXaXuX<X3XQ.e  .~ G J O.o.Q O.$.^ $.$.#.#.5.$.^ @.@.%.&.&.O.Q #.^ / ~ :.| @Xp.N.%X%X6XqX6X$XwX$X).Q.-XvXhXzXBX",
"rXfXfXrX|.}..XrXXXmXnXnXbXdX9X+X ./ n J ^ ^ Q Q ^ $.3.$.^ 3.$.$.! #.#.@.@.@./ ! ..X./ / :. .MX9X$XE.;XE.i.;X$X6X;X=X$Xn.R.8X4XcX",
"tXtXpXjXjXtXK.[..XXXaXaXxXgX:Xe ' / n F Q / Q ^ ^ $.$.^ ^ ^ $.$./ ^ o.#.@.$.Q ! ! ..m / $.' @XBXcXqX8XzXqX4XwX$X;X2X=X;X;X2X_.&X",
"rXeXeXeXfXmXmXtX.X XXX[.tX6XW.w  ./ M M / Q H ^ ^ #.^ ^ ^ ^ 5.^ / ^ o.@.@.$.T / ! ..m Y :.| ^.).$X8X6XE.*XzXqX7XN.$X$X;X4X-X4X1X",
"tXeXeXeXrXtXfXsXsXXXaXjXuXlX9Xw  ./ s j Q / H ^ ^ ^ ^ ^ ^ ^ ^ ( / ^ o.o.@.o.T T ..H U ~ $.| +X).E.;X4XE.a.$X4XcXcX=Xn.n.:X8X-X-X",
"jXmXpXtXtXpXtXeXtXXX.XrXpXkXBXe ' ( p f Y / G ! ~ ~ ^ X.T ^ X.^ / +...X.o.o.T R T T G T :.*./.`.=X$XqX:X~.W.z.E.;XqX8X$X~.=X8X;X",
"K.eXtXeXeXtXfXmXfX.X.XrX}.6X0X+XQ Y p s H H G Q ~ / ~ / H ! +.( U ..! ..o...T R T T T T :.*.^.!.:XwXwXzX9X0X7XW.E.N.Q.$X;Xn.*XqX",
"sX XeXeXrXeXL.{.fXjXrXpXjX6X>Xe  .Y j j m H G Q / / / / G ! X.( P ~ ..O...o._ E T T I E :.;.^.~.!.>X>XwX>XY.=X=XW.=X:X:XwX$Xp.N.",
"yXXXpXpXpXfXeXL.C.sXfXrXaXkX7Xe O.Y j s G H F / Y / T T H ! ^ ( U ......o.o.T ..T .._ T :.*./.!.W.~.!.!.>X7X~.!.Q.wX:XqXlX4X:X*X",
"mXfXeXL.{.pXpXpXXX{.rX.XXX*X:Xw ' U p h m m J H Y U U / n / ( ( U ....o.o.o.T R T I T T :.*.U.I.p.W.W.>X`.qXBX0X:XQ.3 3 $X4X*X4X",
"eXtXtXeX{.eXtX{.rX{.[.[..X<XqX+X' U u f n m F T / Y H H n U ( ( H ~ ..X.o.o.G T _ I C T +.*.9 u.~.`.R.7X0X~.>XqX>X0X=Xn.a.M.(.R.",
"gXfXeXeXeXK.eX X}.OX[.[..X|.wX+X' Y r j n c n ! Y U m H n T ( ~ G T ! X.o.o.G T G T C W +.*./.!.R.z.R.n.;X=X7XW.wXQ.=X*X$Xn.(.M.",
"eXjXmXfXeXeXeXK.{.{.[.[.{.].W.q ' P p p x x h H Y P H H l U / Y x T T ......G T G G G E W ' ^.`.R.(.).E.E.;X~.0XwX=Xn.N.N.%X%X_.",
"L.[.eXpXpX XeX[.[. XtX.X XoX:Xe _ L t r x x f H U L m U z U U U x G T R ....G I F G c G +.[ 7 a.-XE.N.n.i.E.!.Q.Q.7X$Xy.$X].$Xy.",
"C. X[.L.uXfXtXpXtX{. X XXX|.n.q _ K t % x k j G U L x m i M L U l G T T T ..G G x l c E E [ ^.~.n.M.M.l.E.z.Q.!.:XwX2X$Xl.y.$X6X",
"XX}.pXtXK.}.}..X.XrX.X{.rX<X;X8 _ z r X l k j G U m l c i L K L x m G E T E C G x a c I E [ q u.u.M.u.i.p.W.W.~.=X:XE.4X*X$Xl.*X",
"XX}.eXtX.XrX{.S.OX.X.XeX[.<XqX+X_ z r X k u r F L m z m i i K K k x c I G I x c x t c K E [ 0 ~.z.z.z.u.u.W.9X7XW.:X;X$X5X5X$Xi.",
"].A.B.[.[.{.XX XOX}.OXL.{.].W.w _ l r o i u u x m L c z l z K z u c v I I I k x a a k I I _ ^.0.u.R.1X).u.3 u.R.7X$X-X;X$X*X4Xn.",
"dXaX[.[.OXL.A.S.H.A.[.{..XXX;Xq _ z r X k u u n M L M z l z K K i c z I I I v x a k r K I [ U.c.9.0.R.).z.u.3 3 ;X4Xi.n.;X6XlXlX",
"A.uXtXOXA.OXOXXXoXoXXXXXOXS.=Xq D l r o k i r n z M z l l z v i i z v L L P x k y a y c E ) ^.4X2X9.9.u.(.R.M.N.M.lX5X*Xy.N.n.%X",
"C.S.sXjXjXuXXX}. XoXuX.XXXdXwX9 D l o o u u u l z M z z c z z K i l v K L I k x y y y E E ) ^.c.).).9.u.M.i.y.y.y.N.*X4X8Xp.N.l.",
"OXOXB.OX[.{.fXpXuXuXaXaX].%X0Xw > s O % M j u b i z z K z z z z i l i K L L l x t t y E E _ /.dX_.R.z.u.R.c.t.g.y.G.x.y.$X*X;X*X",
"C..XXXOXXX|.A.oXP.H.H.XX,X<X!.q D u % Q 4.% % u l M v v i z z z i x k K M L l l t y y K E ) /.`.hX7X2XR.c.(.).M.t.G.%XN.r.i.$X:X",
"S.S.}..XXXjXfX}.A.V.C.A.A.<X>X8 D u O D NX3.%.Q u l z k v K K i i c v K K m a l y y y K W [ ^.R.c.).)._.c.i.).c.m.g.d.x.$XN.y.'.",
"A.S.B.[.OXC. XjXuX}.S.C.Z.F.$Xw S M % Q NXQ Q Q j M l i i i i i i z v K z z k a y y y K W [ U.~.l.c.).2X4X(.t.R.M.G.l.g.q.N.N.i.",
"H.}.S.B.S.A.C.[.uXoXL.A.S.A.Q.9 ) x O Z 3.% % % j j s s u s M M u s x c M l u j r r y K E ) /.`.).t.l.R.c.(.M.9.y.G.3X_.N.m.N.g.",
"oX|.C.C.C.Z.K.C.A.oX}.S.[.J.~.8 < s O A 4.j b Q H / ^ ^ Q M M i H Q ..o.X./ T G o r y K W [ ^.dX_._.c.R.z.c.2X(.g.9.t.G.N.g.%X6X",
",XiX{.A.}.S.K.L.K.K..X.XK.F.R.9 D s O % Q u m l i z M M M M M M u s c m x x a u y y y I W _ ^._.3X_.c.(.).~.c.).E.c.t.t.%XN.l.N.",
"C.oXuXA.S.}.K.oXP.iXuX}.K.J.~.9 S l o O % s l P M K P L P M M M n m G I G U G n y y y K E [ /._.M.,XR.c.-X).u.p.z.u.y.t.8.N.g.y.",
"XXb.OXOXb.OXOX.X XC.H.P.A.F.~.9 S s o O p x G I L L P L m H H M H n F G C G G x t t k K W _ T.c._.g.1XM.u.R.).~.p.R.c.l.0.d.l.9.",
"Z.A.B.OXb.e.C.e.Z.Z.C.S.Z.D.~.6 S M o O a x x G H P P Y H / / / H b C T H h x F f t k z R _ U.c.x.&Xi.R.).p.`.7XQ.R.R.c.M.i.l.%X",
"b.h.S.b.OXOXB.OXA.H.H.OXoX<X!.q S l o # d f d C j u j h u s m n j g g h d j s f s p a c E [ U.c.c.x.%Xu.u.u.3 ).).u.0.l.l.z.9.y.",
"oXH.].OXb.b.S.C.A.<XOX].H.D.!.q < n o # h p * B G J F J p p G l o B J J J F p # t p k c W ) U.(.x.l.g.).p.u.z.z.z.(.&Xi.z.1X8XE.",
"].<X].].].].'.].v.S.<XXX'.'.p.8 ) x o # g - = A b b h B # f G l * h f B B f X y t p k M Y ) 0 d.J.x.d.u.).R.u.R.E.c.(.4XM.l.N.l.",
"v.F.|.H.].].f.].].b.b.S.F.N.Q.6 V c # # g - - A b G b n X B G s p j t f C y o f t t a M R ) 0 8.d.x.(.M.2 (.c.9.t.l.t.9._.).-XE.",
"G.g.'.<XF.H.].H.|.'.].].OX'.wX9 S f # * p j f F b s h s X h m x % = d h B B # f d p a c U ` I.d.g.x.8.x.i.6.M._.D.(.M.J.x.c.c.n.",
"m.j.Z.v.F.<XH.H.].6X].].OXN.wX9 S s * * d j h J F x s h # C n h p g g h f f o f d p l c I ) U.x.x.J.J.8.d.l.6.l.x.x.J.m.m.J.M.l.",
"j.h.j.H.j.j.H.H.}.|.'.b.F.N.a.9 ) x # = d g d D C F B h * g G x p g g g h g # d f d f C G ) U.j.s.6._.g.x.g.9.9.d.d.g.x.x.x.R.l.",
"'.D.v.k.F.H.h.V.k.h.].Z.b.j.n.6 ) F # = B g d F B B B B * g J h * N = g g f * d g p f C E ] T.D.D.D.D.x.d.3XG.d.8.d.J.g.8.x.c.d.",
"%Xv.Z.v.F.D.A.OXF.b.f.f.v.l.n.8 ) x # = B d d A B n x h d b H x p g g g h h # h f j f c I ) I.j.D._.j.D._.x.3XG.x.x.8.x.J.g.t.t.",
"v.'.w.h.v.'.v.h.Z.].'.].|.'.Q.8 ) c # * N f d C F b h x * b m h p N d h h h p h h s y G Y ` U.g.k.V.x.6.d.l.x.l.g.g.s.8.l.l.t.M.",
"f.F.|.v.F.b.oX<X].].v.OXv.f.Y.9 < n # * B g p A A x h h * b G x p g g g f h p f f a s c E _ T.j.D.D.D.J.g.6.x.J.x.x.J.x.g.D.c.2 ",
"f.r.].6XF.v.v.S.'.].f.f.v.v.a.8 ) b # * N g g Z A A h h * A F b d - g g f B d d h h f x I ) I.V.k.J.D.J.,Xx.t.g.8.s.d.x.t.8.c.l.",
"f.f.f.w.j.v.v.Z.v.'.'.y.f.].p.8 ) B ; ; N > = Z D A B A = B D b - > > Z d B d N B f f C T ` T.Z.V.j.j.j.g.g.j.g.g.8.8.s.i.x.9.u.",
"j.v.q.q.s.s.v.b.OXv.'.v.f.y.p.9 4 A ; ; > > - Z A A B Z - Z J A g - > Z N B N # B B B C G ` I.h.V.V.k.q.'.J.d.8.g.d.8.8.r.g.u.2 ",
"f.v.v.w.q.f.h.w.q.].y.f.].i.p.8 4 A * # > > ; S A A Z N - B _ A - > > Z A Z g = d d f C T ` T.k.e.V.D.V.8._._.D.D.d.8.8.6.d.c.9.",
"q.q.w.b.g.h.b.v.q.l.].y.].3 Y.8 4 b ; @ > - * - - * * * ; = C g * = ; ; * * - = N f B C G ` !.Z.Z.k.k.d.V.s.s.x.x.s.x.x.x.r.t.t.",
"v.f.f.v.j.q.w.e.q.f.].].y.].0 8 < h X ; > - g A D A F F Z A F C A J D J J A b g p d f C G ) T.j.e.w.D.k.8.D.c.8.D.D.8.s.d.8.t.8.",
"f.g.v.F.v.v.f.w.b.f.3 OXy.y.3 6 4 j ; ; - - Z D D F D J D A h p A A Z A b b A Z d N f C c ) Y.Z.w.V.k.V.V.j.V.s.8.j.d.s.6.d.8.9.",
"f.g.v.f.f.f.f.w.f.].v.f.OX].0 6 4 p @ @ ; - V N Z B g N ) t V f g g = = ; - D Z N d d B C ` T.H.e.e.V.7.x._.D.x.V.D.d.s.d.x.J.d.",
"q.q.w.q.q.s.f.e.q.f.l.g.3 i.0 6 5 g @ & , , S < > - - - # ) V N N V > S Z Z D < ; @ # V C ) Q.V.A.V.7.e.7.s.V.d.r.s.J.D.d.s.j.M.",
"q.q.f.h.h.s.w.q.q.q.f.].f.f.$X6 5 , + + @ @ & @ @ @ @ @ @ # @ # # @ @ ; & : 1 & @ O @ V C 5 p.B.B.V.7.7.s.7.7.x.s.s.k.c.x.d.8.d.",
"f.q.q.w.w.w.w.q.q.q.q.y.].f.0 6 5 4 + + + + : & @ & , ; @ 5 @ # , # & & & & : & + + + ) _ 5 z.B.V.V.V.V.V.s.d.7.s.7.k.6.j.d.6.8."
};
