/* XPM */
static char *_48736f2eddf4119c209250f3fa7cf4dnI2Dklx79T4ArXEb[] = {
/* columns rows colors chars-per-pixel */
"64 64 256 2 ",
"   c #3B1601",
".  c #3D2A00",
"X  c #202033",
"o  c #4B1C00",
"O  c #541B03",
"+  c #492809",
"@  c #552908",
"#  c #5A3609",
"$  c #563619",
"%  c #4D2F14",
"&  c #652907",
"*  c #782901",
"=  c #693404",
"-  c #793802",
";  c #7B2F15",
":  c #573B24",
">  c #5E3F3D",
",  c #6D1D02",
"<  c #7C4307",
"1  c #684315",
"2  c #764B0D",
"3  c #534833",
"4  c #674827",
"5  c #644B38",
"6  c #765536",
"7  c #74502A",
"8  c #5D441B",
"9  c #2F3945",
"0  c #765848",
"q  c #6B564B",
"w  c #79655B",
"e  c #6C664D",
"r  c #765F66",
"t  c #685C61",
"y  c #863902",
"u  c #9A3901",
"i  c #923B10",
"p  c #B52A01",
"a  c #AC3908",
"s  c #B83604",
"d  c #B63814",
"f  c #AA3013",
"g  c #C62C01",
"h  c #DB2500",
"j  c #C93701",
"k  c #D93807",
"l  c #CF391E",
"z  c #E73205",
"x  c #DA1E00",
"c  c #884408",
"v  c #984706",
"b  c #94561B",
"n  c #8E4F16",
"m  c #A74905",
"M  c #B84702",
"N  c #A65703",
"B  c #BB5B01",
"V  c #B85706",
"C  c #A95919",
"Z  c #B75A17",
"A  c #AF4917",
"S  c #976A12",
"D  c #BB6604",
"F  c #A8611A",
"G  c #BA6718",
"H  c #B07212",
"J  c #86562C",
"K  c #965929",
"L  c #A55924",
"P  c #B65728",
"I  c #946937",
"U  c #A96728",
"Y  c #B66827",
"T  c #B66B35",
"R  c #AA7636",
"E  c #B97236",
"W  c #AE702C",
"Q  c #C44503",
"!  c #CC5B01",
"~  c #C65805",
"^  c #D65A02",
"/  c #C65915",
"(  c #D14E12",
")  c #E44A1D",
"_  c #CD6A03",
"`  c #C76407",
"'  c #D36402",
"]  c #D36B01",
"[  c #DB6B01",
"{  c #D3640B",
"}  c #D96708",
"|  c #C97709",
" . c #DC7302",
".. c #D87706",
"X. c #C76716",
"o. c #D56B15",
"O. c #C67215",
"+. c #D67619",
"@. c #E36501",
"#. c #E26B02",
"$. c #E86808",
"%. c #E47403",
"&. c #E67804",
"*. c #F77B02",
"=. c #E57816",
"-. c #F47B18",
";. c #EA670E",
":. c #CE5227",
">. c #E9552C",
",. c #CC6C29",
"<. c #D76C28",
"1. c #C97625",
"2. c #D97927",
"3. c #C76B35",
"4. c #C57C36",
"5. c #D77735",
"6. c #D56D36",
"7. c #E87826",
"8. c #E47A37",
"9. c #EA7030",
"0. c #92704E",
"q. c #B97845",
"w. c #A57957",
"e. c #B06B46",
"r. c #856B66",
"t. c #877978",
"y. c #917B6F",
"u. c #AB7F74",
"i. c #C67B44",
"p. c #D07546",
"a. c #E67742",
"s. c #7C8273",
"d. c #BB8437",
"f. c #AE8035",
"g. c #BB911B",
"h. c #D88503",
"j. c #D98619",
"k. c #D4920B",
"l. c #E78504",
"z. c #F88704",
"x. c #E79404",
"c. c #E68417",
"v. c #F5881A",
"b. c #E7951A",
"n. c #FF9D1A",
"m. c #D8A216",
"M. c #F2A914",
"N. c #D98528",
"B. c #C88532",
"V. c #DA8736",
"C. c #D39030",
"Z. c #EB8928",
"A. c #F98B29",
"S. c #EA9428",
"D. c #FE952A",
"F. c #E58938",
"G. c #F58A37",
"H. c #E4973B",
"J. c #F99838",
"K. c #D5AC2D",
"L. c #F9A335",
"P. c #E8AE33",
"I. c #B48953",
"U. c #8E846F",
"Y. c #BA9976",
"T. c #B08B70",
"R. c #9E9657",
"E. c #C78547",
"W. c #D78848",
"Q. c #CE9551",
"!. c #E78945",
"~. c #E69447",
"^. c #F2964C",
"/. c #D6AB4A",
"(. c #FDA44A",
"). c #EFA953",
"_. c #C99878",
"`. c #CE9765",
"'. c #D0AD6F",
"]. c #E6A767",
"[. c #ECAF73",
"{. c #E39B75",
"}. c #F4C64E",
"|. c #F4CF71",
" X c #D2C545",
".X c #877D84",
"XX c #908D8B",
"oX c #A79688",
"OX c #B49C85",
"+X c #AA9995",
"@X c #BFA78D",
"#X c #A7A49C",
"$X c #B2AC95",
"%X c #B9B8B6",
"&X c #ADA5A9",
"*X c #A5A0A2",
"=X c #D1B095",
"-X c #EBB78E",
";X c #C7B5A9",
":X c #D3BAA8",
">X c #C7B5B1",
",X c #E2B9B3",
"<X c #BDC5B7",
"1X c #F3D18F",
"2X c #D6C8B1",
"3X c #F8CDA7",
"4X c #E8D8B6",
"5X c #FCD9BC",
"6X c #EECDAD",
"7X c #E4DD98",
"8X c #B3BFD5",
"9X c #C7C7C4",
"0X c #D8D6C8",
"qX c #CDD4D5",
"wX c #D8D8D7",
"eX c #D3CFC9",
"rX c #F5D7CA",
"tX c #E8DAD5",
"yX c #F5DBD5",
"uX c #E7D4C5",
"iX c #DBE4DD",
"pX c #D3EBDD",
"aX c #FEE7C9",
"sX c #E6E6D7",
"dX c #F9E9D8",
"fX c #F5EFD4",
"gX c #D1DBEC",
"hX c #DAE1E6",
"jX c #DAF0F5",
"kX c #ECECEC",
"lX c #E7E6E6",
"zX c #F9EBE7",
"xX c #ECF4E9",
"cX c #F5F3E5",
"vX c #FFF4E3",
"bX c #F4F4ED",
"nX c #FCF4EC",
"mX c #FEFCEC",
"MX c #F5FDE8",
"NX c #ECEEF2",
"BX c #E4EAF4",
"VX c #FCECFB",
"CX c #F6EBF6",
"ZX c #EDF3F5",
"AX c #EDF5FD",
"SX c #ECFCFE",
"DX c #E8F8F7",
"FX c #F4F4F4",
"GX c #FBF6F4",
"HX c #F5FCF4",
"JX c #FDFDF4",
"KX c #F3F5FB",
"LX c #FDF5FD",
"PX c #F4FDFE",
"IX c #FEFFFF",
"UX c #FFDBF0",
/* pixels */
"IXIXIXIXIXIXIXIXIXIXIXIXIXIXIXIXIXbXGXIXIXIXIXIXPXPXPXSXxXIXIXzXIXIXIXIXIXIXIXIXIXIXIXIXIXIXIXIXIXIXIXIXIXIXIXIXIXIXIXIXIXIXIXIX",
"IXIXIXIXIXIXIXIXIXIXIXIXIXIXIXIXPXIXIXIXIXGXGXIXGXJXcXIXPXIXhXIXIXIXIXIXIXIXIXIXIXIXIXIXIXIXIXIXIXIXIXIXIXIXIXIXIXIXIXIXIXIXIXIX",
"IXIXIXIXIXIXIXIXIXIXIXIXIXIXIXIXPXAXNXZXIXIXJXnXJXJXmXmXcXIXIXPXIXIXIXIXIXIXIXIXIXIXIXIXIXIXIXIXIXIXIXIXIXIXIXIXIXIXIXIXIXIXIXIX",
"IXIXIXIXIXIXIXIXIXIXIXIXIXIXIXIXIXIXIXIXIXHXFXHXPXlXmXJXnXHXIXPXIXIXIXIXIXIXIXIXIXIXIXIXIXIXIXIXIXIXIXIXIXIXIXIXIXIXIXIXIXIXIXIX",
"IXIXIXIXIXIXIXIXIXIXIXIXIXIXIXIXIXGXNXFXSXSXSXHXSXSXPXZXIXJXbXIXIXIXIXIXIXIXIXIXIXIXIXIXIXIXIXIXIXIXIXIXIXIXIXIXIXIXIXIXIXIXIXIX",
"IXIXIXIXIXIXIXIXIXIXIXIXIXIXIXIXGXIXJXJX0XoXe 3 s.9XPXPXIXIXIXJXIXIXIXIXIXIXIXIXIXIXIXIXIXIXIXIXIXIXIXIXIXIXIXIXIXIXIXIXIXIXIXIX",
"IXIXIXIXIXIXIXIXIXIXIXIXIXIXIXIXIXIXdXY.7 < c b o   y.FXIXIXIXJXIXIXIXIXIXIXIXIXIXIXIXIXIXIXIXIXIXIXIXIXIXIXIXIXIXIXIXIXIXIXIXIX",
"IXIXIXIXIXIXIXIXIXIXIXIXIXIXIXIXPXBX$X0.W ^.D.%.(.m o w hXPXPXGXIXIXIXIXIXIXIXIXIXIXIXIXIXIXIXIXIXIXIXIXIXIXIXIXIXIXIXIXIXIXIXIX",
"IXIXIXIXIXIXIXIXIXIXIXIXIXIXIXIXSX4XH S.2.!.o.l.=.l.x.+ &XAXHXMXIXIXIXIXIXIXLXPXIXIXIXIXIXIXIXIXIXIXIXIXIXIXIXIXIXIXIXIXIXIXIXIX",
"IXIXIXIXIXIXIXIXIXIXIXIXIXIXIXIXSX6XC.S.V.^.+. .$. .M.U r IXxXHXIXGXbXnXIXJXIXJXIXIXIXIXIXIXIXIXIXIXIXIXIXIXIXIXIXIXIXIXIXIXIXIX",
"IXIXIXIXIXIXIXIXIXIXIXIXIXIXIXIXFX'.H.b.N.~.+...7. .x.Y   tXFXIXJXJXIXPXIXHXbXcXIXIXIXIXIXIXIXIXIXIXIXIXIXIXIXIXIXIXIXIXIXIXIXIX",
"IXIXIXIXIXIXIXIXIXIXIXIXIXIXIXIXMXQ.L.c.N.V.+.] 7.c.l.V.1 r IXIXPXIXSXZXPXPXIXIXIXIXIXIXIXIXIXIXIXIXIXIXIXIXIXIXIXIXIXIXIXIXIXIX",
"IXIXIXIXIXIXIXIXIXIXIXIXIXIXIXIXaXE.J.v.G.F.<.} 2.7.] S.I.$ IXIXKXIXIXlXsXZXIXAXIXIXIXIXIXIXIXIXIXIXIXIXIXIXIXIXIXIXIXIXIXIXIXIX",
"IXIXIXIXIXIXIXIXIXIXIXIXIXIXIXIX3XE.G.7.^.F.o.;.+.+.{ +.E % t.XX+Xr.$ @ 0.2XIXIXIXIXIXIXIXIXIXIXIXIXIXIXIXIXIXIXIXIXIXIXIXIXIXIX",
"IXIXIXIXIXIXIXIXIXIXIXIXIXIXFXFX=X`.F.2.Z.1.O.~ O.,.<.Z.B.w.> 3 4 n O.+.O.R =XJXIXIXIXIXIXIXIXIXIXIXIXIXIXIXIXIXIXIXIXIXIXIXIXIX",
"IXIXIXIXIXIXIXIXIXIXIXIXIXGXFXFX2X1X~.1.G Y G V D Z M ~ 4.dXSXsX1X2.! *.*.O.`.uXIXIXIXIXIXIXIXIXIXIXIXIXIXIXIXIXIXIXIXIXIXIXIXIX",
"JXIXIXIXIXJXJXJXJXMXPXPXMXcXAXwXtXgX%XR (.(.).J.N.N.+.^ P yXhXsX@X,.-.=.|  .=.Q.IXAXPXPXIXIXPXPXHXPXbXIXIXIXKXKXIXPXIXbXIXIXlXIX",
"HXIXIXIXIXJXJXPXHXCXIXtXbXsXeXIXzXBX9XY.[.1X-X(.^.~.+.[ A ;XhX0X0XW.( o.O.&.o.Y nXIXPXIXIXJXIXPXHXIXIXlXIXCXIXIXZXIXKXIXhXLXIXkX",
"IXIXIXJXHXPXPXIXFXLXaXR oXMXMXCXGXNXZX=X-X,X-X-X^.!.o.[ A y.BX9XsX_.u G o. ._ C 2XIXIXIXGXdXGXIXIXNXIXIXIXIXIXzXIXPXIXIXIXhXIXHX",
"IXIXJXJXPXIXIXIXIX6XG P.J $XmXIXIXFXIX+X{.-X-Xp.8.3.{ [ m e LXwXgX;X; G ` ] ] X.=XJXIXIXIXzXJXIXIXIXCXIXIXGXrX:X;XdXIXIXZXIXFXJX",
"IXJXJXMXIXIXIXLX7Xg.L.L.}.. 9XIXSXZXIXXXJ p.<.:.:.Z ~ ' y q IXlXgXqX4 F ~ ~ ` ! Y.mXIXSXIXIXIXDXkXIXIXlXLXOX_.q.J 0.vXcXIXZXIXbX",
"IXIXMXPXIXIXvXaXI. X|.}.M.S r IXSXIXIX*X@ M ^ Q ~ Z B _ * t.PXzXBXhX3 v / / Z B I.aXIXPXPXKXPXPXJXIXIXGX@X0.Q.X.Y b J uXIXBXHXJX",
"IXJXJXIXLXLXaX|.].|.|. Xm.m.# IXPXJXGXqX8 m Q ( ~ B B X.& %XSXnXlXjXe < ~ Z Z D Y {.yXIXGXNXIXPXIXFXIXsX$ i.F.#.z.F.n : bXIXIXGX",
"IXJXJXIXLXVX7XQ.|.fX7X Xm.k.2 gXIXmXcXSXq m Q Y ! B N V O BXSXJXzXDXs.- M m C ` ' C Y.rXIXJXGXIXbXIXPXy.4 ).{ *.*...Y # +XLXIXGX",
"IXdXIXSXIX1X/.|.4X7X).c.-.D.# 8XHXLXmXHXr i ..~ M ' X.i 0 VXBXPXPXzXXX. / s m m m Z X.R uXPXIXGXIXPXpX% B...-.o.B M -.j.= CXLXJX",
"PXzXIXPXsX1X).1X7X|.S 2 c 1.= #XJXLXnXHXr y  ./ ^ } ~ n q IXIXFXPXVX#X. Z s m v m M V c r.lXFXIXKXIXXX= B.} { X.Z.G.A._ = %XIXbX",
"KXIXIXIX6X[./.|.}.P.7 9 9 W.c 6 HXLXmXPXt.- %.X.! } D K 0 IXIXmXPXLX%X+ Q s m a a a m - % wXlXFXDXmX: b !.-...N.+.! ~ B n > LXJX",
"KXIXIXmX'./.P.}.m.M.S X X F.D + sXIXnXPX.X-  .o.X.` N @ w IXhXIXIXLX%X% d s m d u a s A + >XZXkXHXuX+ p.!.7.o.N.] ! #.v.~.% wXxX",
"PXPXvX3XH.K.P.m.K.M.k.5 6 -.c.+ qXIXnXPXXX- &.1.W.v c + 5 IXjXIXPXVX<X% d j M a a M p A O t.IXFXSX$X& !.<.o.` D ..=.=.] _ & >XDX",
"mXIXaX].c.b.M.x.m.x.M.W.!.*.=.@ %XLXnXPX.X- x.+.R * B.F 1 >XIXPXIXCXqX% d j Q p d s p ( & w IXbXSXU.n ^.X.o.o._ ' { ] ~ B - oXPX",
"mXPXvX5.#.c.j.x.M.k.h.| $.^ ..= *XPXbXPX.X< b.+.c N L.L.Y 0.LXIXHXVXhX: f k j p p g g :.; w IXxXAXt.n ^.V.2.=.;...o.v.n.D.K r SX",
"JXAXnXZ ^ { | l.l.x.h.j.#.%.N.* *XPXnXDXXX- b.+.- N.z.*.Z.2 yXGXPXLXBX4 f j j s l g g ( , r.HXHXPXoX- ].~.1.{ ;.} { ` Q } y r.SX",
"KXIXfXQ.` ~ { V.b.h.h.h.%.$.$.y XXIXBXJX6 0.E.=  ...c.%.v.G w.IXDXUXVX3 f h l s s j h >.  XXGXHXAX9X$ [.o.-.{ / ' M ~ M X.- r.xX",
"IXIXGX3XV...c.Z.h.l.l.| [ $.v.- XXZXPXJX6 I c c  .=.A.v.A.O.w.PXHXCXlX% f k k g k j x >.% 9XIXFXIXeX$ ].o.[ } { <.7.[ &...- y.PX",
"IXFXIXmX-XV.j.h.h.h.l.+.} $.A.< +XPXSXxX4 2 * +.[ ..c.&.z.X.0.mXPXFX>XO l k j h z h x l $ xXLXLXIXeX$ ].G.[ } { M } %.l.S.= +XAX",
"mXIXPXLXdX[.| h.h.h. .Z.-.$.A.< >XIXjXhX4 - m o.#.=.=.%.-.` 0.JXLXDXU.* ) k Q z z k k :.4 HXLXIXIXtX$ ].G.$.#.} ] ' ! M L + sXPX",
"JXIXPXKXIX5XQ.| | h._ H.G.A.^.2 >XIXAX9X7 F | B #.=.A.n.L.N.w.GXJXpX1 A ) Q ( z k ( >.T e HXCXDXPXlX$ `.7.$.! o.&.[ [ G & q IXMX",
"IXGXIXIXPXmX1XE G ....N.Z.(.^.7 lXNXIXoX7 ].N.D @.=.Z.v.D.2.I.IXIX<X& >.) Q ) ) >.,.5.3.T.cXlXpXwXtX5 i.5.-.' { Z =.%.J.= $XIXAX",
"IXbXJXIXSXPXcX-XB.O._ H +.A.4.U.IXxXJX0.R ).H.N.} } o...v.O.w.IXIXU.u >.{ ) 9.1.8.4.5.P T.2XyXhXqXiXr.I F.7.} { Z { ! X.1 lXPXIX",
"KXIXMXxXPXSXLXGX[.O.N D D ! L 9XPXPXpX0./.H.C.B.;.<.Z.A.D.4.I.IXHX7 / } D 9.>.d.6.4.3.d w.T.rXMXPXPXT.= ,.o.o.+.` ~ ~ i y.PXxXvX",
"IXIXIXIXIXIXIXIXHX:XU D N M e.HXfXIXdXb [./.K.E.k.N Z.v.n.g.Y.HXxX7 B $.;.6.3.p.E U v Z ~ W.dXPXIXHXGX5 J W.M @.^ o.L : lXHXIXJX",
"IXIXIXIXIXIXIXIXIXzXrXR N a =XjXSXgX%XI.'.Q./.C.N.+.9.9.G.1.=XVXlXT.G o.9.p.p.A n m m ,.P -XnXKXIXJXIX;X+ T 2.;.=.Z 2 T.bXIXFXIX",
"IXIXIXIXIXIXIXIXJXLXIX=XU m :XjXhXPX$XK.Q.Y./.C.B.W.3.8.V.q.zXVXjXT.T ^.T L T u C Z ^ <.e.tXIXIXPXIXIXnXOX7 C C m c 0.JXPXIXkXJX",
"IXIXIXIXIXIXIXIXmXKXPXxXU / `.2XuXlX0.S 4._.K.B.H B.Y W.I.Y.IXAXJX=Xq.p.T n A X.P ^ @./ T.KXIXJXZXIXZXHXGXT.7 J J w.2XIXPXKXIXIX",
"IXIXIXIXIXIXIXIXMXIXSXMXS ;.=.R [.w.S N / q.B.R 1.C.V.~.Q.7XHXjXcX:XU y C Y m } G  .&.Z 4XKXSXmXIXIXZXIXKXGX2XoX:XdXIXZXPXIXIXIX",
"IXIXIXIXIXIXIXIXHXPXIXMX`.{ @.h.Y I.'.D ! N H q.:.Z C L I =X0XqX0X0.C X.X.1.+.' j.c.+.R vXPXHXmXIXKXIXPXlXIXIXzXIXIXIXNXPXIXKXIX",
"IXIXIXIXIXIXIXIXHXzXIXPXfXq.{ z.b dX5XN [ B H e._._.w.`.T.,XtXCXAX0.b (.+.G H.{ Z.O.R Y.mXGXIXIXIXFXIXKXIXkXGXIXLXIXIXIXIXGXbXIX",
"IXIXIXIXIXIXIXIXSXGXGXSXSX=X,.] '.BX&XC [ ' j.L iXJXfXmXLXLXLXIXSX;X* m V N G m ! - 6 9XIXnXIXHXGXIXFXIXIXIXIXLXIXNXIXIXIXGXIXIX",
"IXIXIXIXIXIXIXIXIXPXIXIXLXdX:XY.DXbXE _ &.o.B  .I 0XIXSXIXIXIXLXPXZX2Xt.q q 5 5 q #XcXIXIXIXIXIXIXIXIXIXIXIXIXIXIXIXIXIXIXIXIXIX",
"IXIXIXIXIXIXIXIXIXPXIXIXIXmXzXdXSXyXE  ._ V O...1.b 4XJXwXIXIXIXIXIXPXGXmXJXmXmXxXJXIXIXGXIXIXIXIXIXIXIXIXIXIXIXIXIXIXIXIXIXIXIX",
"IXIXIXIXIXIXIXIXIXIXIXIXIXIXJXJXIXuXF l.z.2.5.m *.N.n 2XmXIXlXIXKXIXIXIXHXIXIXGXPXIXGXbXIXIXIXIXIXIXIXIXIXIXIXIXIXIXIXIXIXIXIXIX",
"IXIXIXIXIXIXIXIXJXIXIXIXGXPXPXIXPXrXF ..&.` 7._ @.j.1 0XIXPXJXFXIXIXIXIXKXIXIXIXbXHXIXIXIXPXFXIXIXIXIXIXIXIXIXIXIXIXIXIXIXIXIXIX",
"IXIXIXIXIXIXIXIXGXIXIXIXIXIXPXPXNXdXR h.z.@.@. .m I $XIXBXIXIXLXbXFXIXIXIXIXPXPXIXIXIXIXIXFXIXIXIXIXIXIXIXIXIXIXIXIXIXIXIXIXIXIX",
"IXIXIXIXIXIXIXIXIXIXPXJXIXIXIXIXIXGXI.D l.=.~ | T.zXAXPXIXIXLXIXIXIXIXIXIXIXIXPXIXKXNXFXIXIXIXIXIXIXIXIXIXIXIXIXIXIXIXIXIXIXIXIX",
"IXIXIXIXIXIXIXIXIXIXIXJXJXIXIXIXJXIX%XR N e.T.6XIXIXKXIXGXzXIXNXIXIXIXKXGXIXIXIXIXIXIXIXIXIXIXFXIXIXIXIXIXIXIXIXIXIXIXIXIXIXIXIX",
"IXIXIXIXIXIXIXIXIXIXIXJXJXGXIXIXJXLXFX5X6XVXKXSXGXxXIXMXnXmXFXPXIXIXIXIXIXJXGXIXLXIXIXIXFXIXIXIXIXIXIXIXIXIXIXIXIXIXIXIXIXIXIXIX",
"IXIXIXIXIXIXIXIXIXIXIXIXIXIXIXIXGXIXIXIXIXIXIXIXIXIXIXIXIXIXIXIXIXIXIXIXIXIXIXIXIXIXIXIXIXIXIXIXIXIXIXIXIXIXIXIXIXIXIXIXIXIXIXIX",
"IXIXIXIXIXIXIXIXIXIXIXIXIXIXIXIXIXIXIXIXIXIXIXIXIXIXIXIXIXIXIXIXIXIXIXIXIXIXIXIXIXIXIXIXIXIXIXIXIXIXIXIXIXIXIXIXIXIXIXIXIXIXIXIX",
"IXIXIXIXIXIXIXIXIXIXIXIXIXIXIXIXIXIXIXIXIXIXIXIXIXIXIXIXIXIXIXIXIXIXIXIXIXIXIXIXIXIXIXIXIXIXIXIXIXIXIXIXIXIXIXIXIXIXIXIXIXIXIXIX",
"IXIXIXIXIXIXIXIXIXIXIXIXIXIXIXIXIXPXIXIXIXIXIXGXIXIXIXIXIXIXIXIXIXIXIXIXIXIXIXIXIXIXIXIXIXIXIXIXIXIXIXIXIXIXIXIXIXIXIXIXIXIXIXIX",
"IXIXIXIXIXIXIXIXIXIXIXIXIXIXIXIXIXIXIXIXIXIXIXIXIXIXIXIXIXIXIXIXIXIXIXIXIXIXIXIXIXIXIXIXIXIXIXIXIXIXIXIXIXIXIXIXIXIXIXIXIXIXIXIX",
"IXIXIXIXIXIXIXIXIXIXIXIXIXIXIXIXIXGXIXIXIXIXIXIXIXIXIXIXIXIXIXIXIXIXIXIXIXIXIXIXIXIXIXIXIXIXIXIXIXIXIXIXIXIXIXIXIXIXIXIXIXIXIXIX",
"IXIXIXIXIXIXIXIXIXIXIXIXIXIXIXIXIXIXIXIXIXIXIXIXIXIXIXIXIXIXIXIXIXIXIXIXIXIXIXIXIXIXIXIXIXIXIXIXIXIXIXIXIXIXIXIXIXIXIXIXIXIXIXIX",
"IXIXIXIXIXIXIXIXIXIXIXIXIXIXIXIXIXIXIXIXIXIXIXIXIXIXIXIXIXIXIXIXIXIXIXIXIXIXIXIXIXIXIXIXIXIXIXIXIXIXIXIXIXIXIXIXIXIXIXIXIXIXIXIX"
};
