/* XPM */
static char *Fish1655140673[] = {
/* columns rows colors chars-per-pixel */
"64 64 256 2 ",
"   c #36211C",
".  c #512518",
"X  c #51342E",
"o  c #6F3924",
"O  c #60220B",
"+  c #764D32",
"@  c #564336",
"#  c #4D3C43",
"$  c #38617D",
"%  c #245171",
"&  c #56494D",
"*  c #71544C",
"=  c #71635C",
"-  c #4E5B6C",
";  c #46677A",
":  c #546A75",
">  c #6E7170",
",  c #635F72",
"<  c #8D330D",
"1  c #BB3B03",
"2  c #AA2C00",
"3  c #C23B04",
"4  c #954918",
"5  c #B44D12",
"6  c #8B4E2D",
"7  c #B0582C",
"8  c #B46D34",
"9  c #A36429",
"0  c #C54507",
"q  c #D85817",
"w  c #CE510D",
"e  c #E25D10",
"r  c #D86A16",
"t  c #E76808",
"y  c #EA7706",
"u  c #F47A09",
"i  c #E96816",
"p  c #E87815",
"a  c #F57915",
"s  c #F16E18",
"d  c #CD5A24",
"f  c #CE732E",
"g  c #E97A27",
"h  c #EE742B",
"j  c #8C6C4F",
"k  c #B87949",
"l  c #B5744D",
"z  c #967A69",
"x  c #8B7470",
"c  c #A97A65",
"v  c #CD7B47",
"b  c #ED7C42",
"n  c #738179",
"m  c #F8880B",
"M  c #F9940B",
"N  c #EB8817",
"B  c #F88818",
"V  c #FD931B",
"C  c #F99918",
"Z  c #EC8B11",
"A  c #D48733",
"S  c #E88826",
"D  c #F78A25",
"F  c #E9962A",
"G  c #FD9B24",
"H  c #F99627",
"J  c #E5883A",
"K  c #E99737",
"L  c #F79A35",
"P  c #F88736",
"I  c #FCA22A",
"U  c #F9A337",
"Y  c #EBA239",
"T  c #FFA118",
"R  c #B58654",
"E  c #978875",
"W  c #8E846F",
"Q  c #B08D6E",
"!  c #9F885F",
"~  c #D89647",
"^  c #CE8D50",
"/  c #EC9B46",
"(  c #EF9B50",
")  c #DDA259",
"_  c #F8A647",
"`  c #F3AA52",
"'  c #CC976A",
"]  c #D6A773",
"[  c #EEAD6C",
"{  c #E09C77",
"}  c #1B5C88",
"|  c #195F91",
" . c #245D89",
".. c #365F82",
"X. c #1C628D",
"o. c #1D6492",
"O. c #1C6999",
"+. c #24628E",
"@. c #2B638B",
"#. c #296488",
"$. c #37688B",
"%. c #246592",
"&. c #246A95",
"*. c #2C6A95",
"=. c #246C9B",
"-. c #2B6E9A",
";. c #286695",
":. c #336C93",
">. c #3B6D94",
",. c #326E9A",
"<. c #356894",
"1. c #2B729D",
"2. c #27729B",
"3. c #3D7495",
"4. c #34729C",
"5. c #3C749C",
"6. c #39779B",
"7. c #3A718E",
"8. c #1C6EA5",
"9. c #1D73AA",
"0. c #1D76A8",
"q. c #1F79B2",
"w. c #266EA3",
"e. c #2473A4",
"r. c #2C74A3",
"t. c #2375AB",
"y. c #247AAD",
"u. c #2B7BAC",
"i. c #2B78A7",
"p. c #3375A2",
"a. c #337AA4",
"s. c #3C7BA5",
"d. c #357CAB",
"f. c #3A7DAA",
"g. c #3776A5",
"h. c #257CB2",
"j. c #2B7DB3",
"k. c #2779B8",
"l. c #347EB2",
"z. c #57778B",
"x. c #416E94",
"c. c #437394",
"v. c #43759B",
"b. c #447A9C",
"n. c #4B7B9D",
"m. c #497796",
"M. c #537B99",
"N. c #4B6C88",
"B. c #687A87",
"V. c #6C788F",
"C. c #447CA2",
"Z. c #4A7DA2",
"A. c #447AA8",
"S. c #517FA4",
"D. c #2C7FC4",
"F. c #2D82AC",
"G. c #3B82AC",
"H. c #3782A9",
"J. c #2C81B5",
"K. c #2C84BB",
"L. c #2986B8",
"P. c #3382B4",
"I. c #3B84B3",
"U. c #3486BB",
"Y. c #3389BC",
"T. c #3C8ABC",
"R. c #3A88B8",
"E. c #3B92B9",
"W. c #1E81AB",
"Q. c #57839A",
"!. c #4D8297",
"~. c #648497",
"^. c #748794",
"/. c #4C82A4",
"(. c #4382AC",
"). c #4C84AB",
"_. c #4A86A9",
"`. c #5383A5",
"'. c #5385AB",
"]. c #548AAD",
"[. c #5C8BAC",
"{. c #5A85A7",
"}. c #4C8BB4",
"|. c #438CBC",
" X c #4B8CBA",
".X c #4687B3",
"XX c #548CB3",
"oX c #5B8CB3",
"OX c #558CB9",
"+X c #4991BB",
"@X c #5C92B5",
"#X c #5893BB",
"$X c #5791AD",
"%X c #618CB1",
"&X c #639ABE",
"*X c #6695B9",
"=X c #7091AA",
"-X c #75A6B9",
";X c #348CC2",
":X c #3B8CC2",
">X c #3A8EC9",
",X c #3D92C5",
"<X c #3A94C8",
"1X c #448EC2",
"2X c #4593C5",
"3X c #4C94C4",
"4X c #4394CB",
"5X c #4A98CB",
"6X c #539DCD",
"7X c #5798C6",
"8X c #4A9CD2",
"9X c #549ED2",
"0X c #508FC2",
"qX c #679CC3",
"wX c #709FC9",
"eX c #5AA2CE",
"rX c #54A2D4",
"tX c #5AA6D8",
"yX c #4CA6D8",
"uX c #68A2C9",
"iX c #74A6CA",
"pX c #65A8D7",
"aX c #77ADD4",
"sX c #75B2DB",
"dX c #6BB4E6",
"fX c #5CADE2",
"gX c #8E8B90",
"hX c #AE978C",
"jX c #9098A8",
"kX c #8DA4B2",
"lX c #B0ADB7",
"zX c #AEA298",
"xX c #CEAE91",
"cX c #ECB885",
"vX c #CFBAB3",
"bX c #CCA491",
"nX c #F2CBAC",
"mX c #E9CAA8",
"MX c #8AB2D0",
"NX c #9CBAD8",
"BX c #B0C6DC",
"VX c #D1CCD1",
"CX c #E8D7D2",
"ZX c #F9E5D9",
"AX c #F8E8D3",
"SX c #D5D8E5",
"DX c #DAE9F7",
"FX c #E7E6E8",
"GX c #F8ECE9",
"HX c #FEF4E8",
"JX c #F4EDF5",
"KX c #ECF6FA",
"LX c #F7F5F8",
"PX c #E6E7F0",
"IX c #E6DBE9",
"UX c #C2B7C7",
/* pixels */
"7X9X0X0X X X0X X7X.X X7X0Xl.g.pXNX1X0X0XOXOXOX%XXXuX|.R.l.f.#X/.>.s.<.>.oXqXS.wX%X%X*X`.*XoX'.iXaX%X*X*X%X%X[.'.sXNXqX3X6XsXpXfX",
"0X7XpXpXpX7X0X#X9XuX7X9XeXqXA.g.}.pX3X7XqXpXiXqXuXuXeX.X0X0X'.@X).Z.OX>.C.S.%XS.[.oX%X`.].wXOXS.wXMX%XS.*X*X*XoX0XpXaXpXpX0XeXtX",
"|. X.Xl.7X9X X.X.X9X.Xl.0XdXdXfX7XG.7XpX|.s..X}.A.OX7XaXA.S.A.S.'.XX).S.<.x.S.S.{.`.n.'.Z.].wX].x.%XNX{.c.oXuX[.#XA.uXqX7XtXeX3X",
"3X1X6X0XI.7XpX3X XtXdXeX9X0X1X0X7XpX2X|.7X7XqX XA.}.oXwXMXqXA.v.Z.C.'.Z.x.<.x.S.{.].[.n.'.C.v.OXoXZ.qXaXoXv.[.aX].}.(.7XeX+X7XpX",
"I.R.2X|.I.T.2XpX3XI.3X3X3X5X1Xi.I.+XpXeXpX3X+XsXqXA.S.x.A.MXqXC./.Z.Z.@XS.x.x.x.n.{.oXb./.}.b._.).'.&XXXMXuX:.7XMX}.}.+X#XeX7XeX",
"|.I.2X6X2XI.F.|.rX3X7X|.1X2XtX9XR.|.7X7X5XpX}.s.qX@XoX&X).A.iX&Xc.>.$.'.%XwXv.n.!.c././.$./.}.}.XX).#X#XXXaX$X4.eXiX}.}.}.+XpXeX",
"8XT.I.2XtXtXrX|.R.1X5XtXrXT.T.5X2XI. X X.X X7X XA.(.C.,.7XOXZ.iXaXiXS...S.wX*XS.%X&X$XiX@X5._.].).C.5._.XXuXiX}.#XuXuXuX#X}.H.uX",
"T.rX2X2XfXpX9XrX5XT.P.2XrXrX|.I.3X7X+X+X X|.7X Xf.(.A.p.C.OX).qXqX-XMX{.x.S.%XS.n.`.[.&XiXqX(.b.}.XXC./._.#XqXiX#X_.}.#XeX#X_.G.",
"R.:X1XR.|.5XrX9XtX9X5X8XtXdX8X6X7XI.Y.F.F.F. XpX.X4.H.4.6.(.6.5.S.x.`.iXwX[.*X%XS.n.S.Z.).&XuXeXuXXX@X)./.}.XX).#X$Xb./.OX}.XX#X",
"4X9Xl.j.l.R.5X8XrXdXrXU.|.rXrX3X7X0X2X5XyX3X1..XdX7XG.H.4._.A.5.Z.n.v.c.`.v.*X*XM.{.{.%X`._.XX}.7XqX/.@X].C.@X@X@X#XZ.,.).7X_.XX",
"0X1X5X:Xk.l.:X1X5X9X9X1XR.R.5X|.7X9X>X4XR.tXeXs.G.pX X6.(.3.].#X@XZ.Z.Z.@.n.v.%X{.n.n.S.@X/.b._._.uX).6.*XC.b.$XqXiXuXqX>.'.qXqX",
"1X9X9X9X4XU.U.k.U.1XtXdXrX2X2XR.l.7XOXS.b./. X+Xs._.uX&X].6.:.*.v.qXXX&XXX<.x.Z.%XM.*Xn.'./.3.(._.[.uXZ.C.'.'.3./.uXuXMXiX).).).",
":X1X1X1X5X5Xl.l.I.Y.,X6XtXdXdX6X7X%XV., jXV.7.(.s.f.,.oXiXuXA.4.<.<.6.}.uX).b.Z.{.$.{.iXwXqX_.b.XXZ.3.].].$X`./.3.b.&X*XaX#X@XC.",
":XD.:X1X1X5XfX9XU.U.J.Y.5X6XtX7X%X> x z zXx : x..XA.A.<.<.wXaX.Xs.g.4.6.4.#X/.v.*X*Xm.S.%XiXsXuX@XiXqX@Xb._.@X[.].].].b.7X&XwXqX",
"5X8X8X1X:XU.Y.rXfX4XE.Y.R.P.,X$X> E R ^ ) R z > m.s.A.g.3.$.}.aXOX(.G.|.+X].6.c.S.*X[.`.`.b._.$X@Xb.[.iXiX_.3.!.].*X/.@XXXXXZ.#X",
"9X8X4X4X:XU.:X,X4X5X5X,X2XyX2X-XE ' ~ _ / ~ R E B.m._. XC.b.5.OXOXC.Q.z.Q.=XMX-XN.x.S.%X[.].c.].%XZ.7.b.uXMX&X3.3._.uXXX'.oX).).",
"4X9X9XrXtX5X4X4X>X:X:X:XY.:X5X-X' A F _ Y _ [ ' Q kX=XsX$X3.(.}.-XQ.n E Q Q E UXDXB.$.Z.%X{.[.S.=X[.m.c.c.Z.@X&X_.3.].&X{.v.).uX",
"4X;Xl.j.:X>X:X;X4X8XrX:XT.|.H.~.R F Y Y U _ _ [ ' vXkX$ [.oX5.7.~.zX] ] [ ) 8 + bXFX=XN.M.z.[.S.[.-X=X*X[.v.b.n./.].7.'.iXoX*..X",
">XyXrX8X;X;X:X>XL.L.<XyXT.2XtX~.R U I I G I U _ A ' FXQ.$ !.M.B.! ) _ U H p S ` R z SX=Xm.n.M.S.S.{.`.c.{.n.n.{.$X/.!.7.m.iXZ...",
"K.8XfX4XL.4X>X4X8XL.W.E.8X:X5X=X~ Y I I V C G F F ~ HXDXNX~.=XE ) C N M y Z C I ` 9 x NXM.S.v.m.S.m.oX[.c.M.M.{.*X-X$X$X/._.qX`.",
"1XT.U.9X8XY.L.L.<X<X<XL.E.,XE.~.~ a m m y N N F F ~ CXLXKXKXKXxXA F Z y m T C C H 8 j lX$ $.5.3.S.{.n.iXMX{.n...% v.@X).$X/./._.",
"5X:XR.1X3X2X;XL.E.E.+X!.6.7.z.W f t u u Z B Z C L ~ AXKXKXKXHXAXA Z B B C M C m u / Q ^.N.>.>.s.C.=X=X: ^.^.=XV.=Xz.N.@./.&X6.6.",
"k.>X5X9X8X;X;X;XF.H.7.n n ! R ~ H V m m M m M C K ] HXLXHXLXLXAX) K N B C M M u B _ Q gXB.`.7.6.v.; > E Q c c * x lXSXBXM.].#X6.",
"k.k.k.U.rXrX1Xd.$X-XkXzXbX) K F M m M m M M M H A cXHXJXLXLXLXHX[ Y L H Z m u m B P ^ = z.!.!.N.^.W ] ' ) ~ v 7 o * x UXKX[.].$X",
"L.L.L.J.H.b.-XBXDXKXLXCX' ^ F C M M M M M M C Y ] AXHXLXLXLXLXLXnX/ _ L G C B a B g k = ; $ M.hXR J F S S S F K ( v +   hXDXN.v.",
";XY.y.2.z.^.gXvXHXJXLXJXHX' K T M T T M C C Y ` AXHXHXLXKXLXLXHXnX) _ U U H V H p g 8 x B.$ lXcXJ u B m B G G U P P l o   jXBXM.",
"k.Y.T.z.j c ' ^ mXLXJXJXLXnXA H C C C F I F A 8 c hXGXJXKXLXJXHXnX) ` Y U U L L G S 8 j > VXKXhX/ B C G C I B B a s h 7   X SX{.",
">Xu.`.W l 5 4 R xXHXLXJXJXGX^ K I C I I N S Y ( ~ l x JXKXPXGXHXmX) ) Y U U U L H K ^ bXFXLXJXnX/ D G I M m Z y u a h h l @ jXMX",
":X{.W k f 4 < k ' CXKXKXGXHX{ f I C V H H H U U L [ j gXHXKXJXGXnX) / F L L U U _ _ / [ HXJXLXAX) S p y Z Z B H V G u S A 6 & kX",
"c.> R K F f 7 ~ ^ cXAXPXFXGXnXk F C B B H H C C H L ^ + CXJXFXGXnX~ K H H L L U U L _ ~ xXHXJXHX[ J B V H L B B B B B D ( v # jX",
"= Q K T I G C G F R AXFXFXFXAX' K C u B B M m M V H / 4 xXLXPXGXcXK P D S D C H H G D _ ] ZXGXHXnXf g H L H G C G G H D P v   V.",
"l f H M M C M M C A mXFXDXFXZX^ S m t D B m m m V B L 9 W JXPXGXcXA D B B B B N B B B L ^ nXHXFXnXv s B B a M y u t t t e d . V.",
"f r Z M m M V m a f bXZXSXIXZXc p u a V B u u u B B V f * IXIXGXcXA S a B u B N u a B g g xXIXCXnXl g H B m B m m u u a h 4 . B.",
"9 d w y m m B Z u i c CXVXIXnXv g t a a a u u s a B D f . UXIXCXxXf h a u a p i a s a a g v CXCXmX7 g u V C B u u u u a J O   ^.",
"6 6 d r t Z p y a f c CXCXCX{ 7 h t s a a a s s i a a f X lXIXCXcXf h s s s i i e e t r 8 k vXvXQ 7 ( N u Z H G m u u s f . - jX",
"> = 4 7 r r p i g 5 c VXVXvXl d e w t t u a e e i i P 5   vXVXVXxXk f e q q q w e 0 5 5 5 o x lXhXc ( _ G V y Z m V M / ' o MXV.",
"x.; @ + < d r f w 4 z vXvXj 7 h w w t s h s e e e q b 4 X VXUXVXbX7 q w w 5 3 3 1 1 0 w r 9 E VX- = l f L I G N u y F ` * , =XS.",
"2.:.V., X o < < 6 6 zXvXj 6 d d w e i e q d w q w q < O bXUXlXvXc 4 5 3 1 1 3 0 w q g S L ( zX=X..B.= 9 8 A / Y F P ~ 6 # lXz.m.",
"r.s.4.{.V.V.# X   * x * o < 7 1 7 d q w d 3 0 3 7 < O z UXjXgXhX6 < 1 0 e e i a p B N N N ^ > Q.N.S.z.: = W R ' k k +   jXkX{.M.",
"d.i.d.t.A.%Xv.V.N.N.- # X O O < 2 1 1 1 1 2 2 2 O . X B.^.M.V.= o 7 r t u D H G I U F Y A 6 - n.C.,.).v.$ : & * @   # kXiX$ N.7.",
"1.&.e.|.r.s.p.g.s.s..XC.N., & . < 2 1 3 2 2 2 < & , M.v.}..X6.~.! ^ F G G H C I _ ` ` [ c X z.,.).,.$.b.n.N.; ; ; $ x.<.% 7.C.C.",
"H.H.O.w.d.e.e.e.0.0.8.y.=.<.M.* 6 1 q q q q d 7 B.n.(.U.;XK.P.b.> ! ~ K _ U F F F ` cX] x B.x.C.p.s.b.$.[.`.v.s.5.3.+.p.s.:.<.s.",
"6.a.d.r.&.F.u.y.0.0.y.P.u.H.A.~.z ^ h a a t e 8 W /.r.U.8X<X2XR.H.n W R Y Y _ _ / A j * gXZ.>.,.A.*.$.#.@.[.7.$ <.@.x...$.[.3.g.",
"2.O.g.1Xa.2.F.y.h.h.e.I.R.F.d.3.> Q ( B V V u A Q ^.7X>XF.Y.,XL.L.H.z.n = 8 R R 9 j > ^.N.5.p.;.,.A.7.$.$.$.b./.$.c.S.%Xb.v.Z.>.",
"(.1.w.r.+X.XH.F.P.;Xi.r.H.E.H.H.7.= ) Y N B G J v , S.8X,XY.Y.>XE.Y.P.6.!.Q.z.- z.kXMXx.@.<.s.5.<.@.).3.$.Z.,.C.@Xm.x.c.#.X.#.c.",
"+X.X5Xi.2.H.p.H.u.w.f.p.o.F.a.H.F.$ ! / L S L ` { E v.k.P.P.J.K.K.>X;XL.Y.T.l.(.s.;.-.=.%. . .*.A.:. .A.$. .;.;.#.3.n.).H.*. .@.",
"2.1.w.I.1.f. Xs.G.d.6. XH.F.j.d.H.!.> ) ` K S J [ x Z.j.j.5XY.P.K.K.F.W.L.Y.y.j.U.y.O.y.u.w.%.,.} ,.<.% Z.).4.a.p.5.>.v.:.:.5.>.",
"2.2.&.=.-.-.a.d.G.H.5.}.R.Y.u.y.E.!.; E ] ` _ ( { hX).>XP.P.2XY.K.y.L.L.L.<X8XK.;X;XL.0.O.r.r.p.s. .,.<. .-.p.p.4.4.v.3.#.:.+.+.",
"1.1.a.r.2.2.s.&.2.H.a.H.I.i.u.u.r..X5.: E cX) [ bXV.A.1X4Xu.J.Y.<X;XJ.Y.L.L.8X8X<XL.L.2Xj.w.w.} (.4.*.%.} +.%.,.*.,.5.5.$.6./.6.",
"1.1.H.I.1.1.o.a.a.1.i.o.r.i.i.=.&.d.a.7.: E bXbXV.x.d.D.Y.:X;X;Xj.:X<X:XY.L.L.;XF.Y.P.t.l.u.g.g.%.4.%.#X-. .;.,.6.} 4.:.@.*.#.C.",
"i.&.=.G.p.1.1.2.a.r.r.r.O.2.e.i.H.2.O.2.3.; ; z.v.g.:Xk.L.;XL.<X>XL.K.L.K.J.y.:XJ.q.j.8.w.w.w.l.s.4.s.s.}.4.,. .*.s.*.#.<.@.@. .",
"=.-.&.1.H.&.&.a.a.1.i.G.H.a.T.H.1.i.y.y.H.|.6.1.d.8.t.k.q.W.L.L.;XY.J.J.K.h.9.K.,Xy.h.l.i.r.=.=.-.+.+.,.,.,.,.,. .:.<.@.>.3.$.@.",
"-.1.1.X.4.G.a.2.d.G.H.2.I.i.=.2.F.e.2.e.=.H.7X(.i.+XE.l.j.J.J.0.q.J.q.L.U.:X>X9.,X:Xy.y.e.e.r.a.4.4.g. .g.,.<.s.g.<.5.*.% <.5.>.",
"=.&.1.2.X.H.}.1.=.r.H..X2.O.2.e.9.u.2.d.+Xu.-.l.F.F.2X6X;XL.L.;Xq.Y.L.h.h.j.;XU.0.y.u.y.u.e.=.e.g.s.(.,.@.,. .;.<. .@.>.*. .<.5.",
"p.1.X.&.1.%.2.2.1.1.i.I.I.&.a.=.2.e.f.-.=.e.w.t.0.q.h.y.L.;Xq.k.;XL.;X:X;X;X<X8XT.t.u.y.u.u.O.w.-.-.%.,.*.;.@. .@.*.*.@. . . . .",
"&.1.a.2.2.o.X.&.&.1.1.2.H.a.O.1.p.1.%.;.-.&.w.w.9.9.q.q.0.L.k.k.L.L.;XJ.K.K.j.4X,X,XF.T.u.e.t.w.*.} .X4.%.;.;. .@. .:.;.%  .<.@.",
"&.&.X.&.1.1.o.&.&.&.&.1.=.1.1.1.:.s.s.-.*.:.-.d.d.i.F.F.L.h.D.D.q.q.9.h.h.t.t.t.U.U.j.l.P.e.o.w.a.-.| .Xs.p.*.;.}  . .*.*. .+.5.",
"2.H.4.%.X.&.=.&.=.=.=.1.d.r.1.-.g.,.(.(.4.,.4.s.d.e.2.e.F.K.D.q.L.q.q.y.j.K.y.h.u.t.e.8.u.J.8.O.o.=.-.%.%.g.,.;.4.,.+.%.#.,.% } ",
"G.1.2.;.&.=.1.2.o.&.} X.1.p.4.1.=.p.H.1.:.6.4.p.r.=.F.R.J.T.>XL.q.L.L.q.h.k.:Xl.t.t.u.t.u.u.=.=.w.=.&.-.;.o.g.;.;.} @.O.} } =.%.",
"-.%.-.1.=.2.2.a.&.&.&.r.&.1.-.&.&.&.%.&.-.*.%.2.O.=.8.Y.E.u.J.<Xq.0.K.h.t.k.k.tX8XU.j.t.t.i.O.O.=.&.r.-.w.%.%.;.| ;.+.% } 4.+.&.",
"&.X.&.+.O.1.1.o.&.X.2.4.4.%.4.a.%.| %.1.;.;.;.| =.i.e.8.u.y.y.J.4Xk.t.k.h.t.8.k.;X;XU.j.l.l.k.O.O.o.j.f.w.;.,.;.+.;.r.A.+.+.s.;.",
"+.X.X.&.o.X.X.o.1.o.X.%.1.&.%.1.w.| } 1.g.+. .;.i.8.t.j.0.y.J.0.h.k.t.t.w.9.h.8.8.9.w.t.t.w.w.w.| o.| w.g.| ;.r.g.+.;.;.,.} p.G.",
"&.X.% X.o.&.2.o.X.o.} X.;.H.*.%.g.g.;.%.,.%.| w.O.8.t.9.q.J.9.y.h.t.t.8.9.t.8.w.8.8.w.t.u.w.%.%.w.| | | | ;.+.;.;.g.%.+.;.%.} ;.",
"&.2.&.O.o.} &.O.X.X.%.X.X.&.6.*.,.s.,.;.;.-.g.g.t.D.k.q.q.0.y.y.j.k.t.8.8.t.k.8.8.8.t.8.w.w.w.w.w.w.w.%.;.| %.;.+.;.<.} | +.;. ."
};
