/* XPM */
static char *fishclown_removebg_preview1655144708[] = {
/* columns rows colors chars-per-pixel */
"64 64 253 2 ",
"   c #301413",
".  c #342C2D",
"X  c #3A1F1E",
"o  c #49190B",
"O  c #572817",
"+  c #6D270E",
"@  c #593835",
"#  c #502F2B",
"$  c #733C28",
"%  c #55433C",
"&  c #764A30",
"*  c #473946",
"=  c #504E53",
"-  c #70514A",
";  c #52576A",
":  c #685B64",
">  c #6E7277",
",  c #43687A",
"<  c #39586A",
"1  c #8E310D",
"2  c #AA2B00",
"3  c #B93902",
"4  c #A03201",
"5  c #C23F11",
"6  c #964617",
"7  c #BA4205",
"8  c #B24F13",
"9  c #8C4D2D",
"0  c #AC562C",
"q  c #926738",
"w  c #B36A3A",
"e  c #B56A2E",
"r  c #C34606",
"t  c #D55407",
"y  c #C94D12",
"u  c #D55817",
"i  c #CC520D",
"p  c #E25D0E",
"a  c #DC6309",
"s  c #DC6717",
"d  c #DD7517",
"f  c #CC721A",
"g  c #E86804",
"h  c #EB7706",
"j  c #F57A09",
"k  c #E76715",
"l  c #E97717",
"z  c #F47815",
"x  c #F06E17",
"c  c #CB5B25",
"v  c #D96B22",
"b  c #D87627",
"n  c #C8783A",
"m  c #D57B35",
"M  c #C96B2E",
"N  c #F17C25",
"B  c #EC772C",
"V  c #8F7052",
"C  c #AA7747",
"Z  c #B67850",
"A  c #89776B",
"S  c #90756D",
"D  c #A26956",
"F  c #C77D48",
"G  c #73857E",
"H  c #FB8D0C",
"J  c #F5870B",
"K  c #F89407",
"L  c #EB8618",
"P  c #F38413",
"I  c #F58B14",
"U  c #FB8C13",
"Y  c #FD8C1B",
"T  c #F88618",
"R  c #F4941B",
"E  c #FC921A",
"W  c #FC9B1C",
"Q  c #F89716",
"!  c #EC8A13",
"~  c #DA8523",
"^  c #CA8638",
"/  c #D98C38",
"(  c #E88428",
")  c #F98926",
"_  c #EA9428",
"`  c #FC9422",
"'  c #F39A24",
"]  c #FD9B24",
"[  c #FD9C2C",
"{  c #F6952A",
"}  c #E99838",
"|  c #FD9C33",
" . c #F39D3B",
".. c #F69735",
"X. c #E48638",
"o. c #FCA125",
"O. c #F9A339",
"+. c #FAA018",
"@. c #BA8858",
"#. c #B08B53",
"$. c #968877",
"%. c #8F8772",
"&. c #A88A66",
"*. c #B38E6E",
"=. c #AE9061",
"-. c #D68849",
";. c #D6944C",
":. c #C98A56",
">. c #CE9153",
",. c #E89A47",
"<. c #F39B46",
"1. c #E79653",
"2. c #DCA155",
"3. c #EBA449",
"4. c #F9A746",
"5. c #EBA756",
"6. c #F9A959",
"7. c #FFB151",
"8. c #C99C6B",
"9. c #CE966C",
"0. c #D8A362",
"q. c #D3A772",
"w. c #E5A96C",
"e. c #F8B267",
"r. c #EDA872",
"t. c #E09965",
"y. c #347DB0",
"u. c #2C77A1",
"i. c #5A7888",
"p. c #507795",
"a. c #737A8C",
"s. c #407FAB",
"d. c #267FC3",
"f. c #947980",
"g. c #1D82BD",
"h. c #2685BD",
"j. c #3987B8",
"k. c #3F87AF",
"l. c #49839E",
"z. c #56859B",
"x. c #5D868C",
"c. c #6C889C",
"v. c #768796",
"b. c #758787",
"n. c #4986AA",
"m. c #578AA7",
"M. c #4789B9",
"N. c #578BB5",
"B. c #4692BA",
"V. c #5695B9",
"C. c #5091AB",
"Z. c #6B92A8",
"A. c #6E91AD",
"S. c #6FA0BE",
"D. c #1D84C2",
"F. c #2486C4",
"G. c #2A86C5",
"H. c #258AC5",
"J. c #2A8AC6",
"K. c #2586C9",
"L. c #268BCA",
"P. c #2B8DCB",
"I. c #2B86CB",
"U. c #338CC4",
"Y. c #318ECD",
"T. c #3789C4",
"R. c #2C91CE",
"E. c #2791CB",
"W. c #3292CD",
"Q. c #3B93CC",
"!. c #3895C9",
"~. c #2C8ED2",
"^. c #248DD0",
"/. c #328ED3",
"(. c #3A8FD3",
"). c #2E92D2",
"_. c #2D9AD3",
"`. c #2D95D9",
"'. c #2995D8",
"]. c #3395D3",
"[. c #3995D4",
"{. c #3599D6",
"}. c #3A9AD5",
"|. c #3495D9",
" X c #3996DA",
".X c #359ADA",
"XX c #3A9DDB",
"oX c #35A1DC",
"OX c #3CA1DD",
"+X c #36A0D4",
"@X c #2FA1DB",
"#X c #399DE2",
"$X c #2B9AE2",
"%X c #3DA3E2",
"&X c #3BA9E5",
"*X c #448CC5",
"=X c #4896C8",
"-X c #5597C6",
";X c #459AD7",
":X c #41A2DD",
">X c #46A4D8",
",X c #56A1DB",
"<X c #71A8CE",
"1X c #439EE2",
"2X c #42A5E3",
"3X c #44A9E6",
"4X c #45ABE9",
"5X c #49ABE9",
"6X c #48B2EC",
"7X c #50B5F4",
"8X c #7FB3E2",
"9X c #7EC1EC",
"0X c #8E918C",
"qX c #AD9588",
"wX c #B7A586",
"eX c #8F96AC",
"rX c #BC9DA3",
"tX c #8FA6B1",
"yX c #B6ACB1",
"uX c #D0AD8D",
"iX c #EAB789",
"pX c #CDB8B0",
"aX c #D2A898",
"sX c #D7C4B6",
"dX c #F4CCA8",
"fX c #EDCAB0",
"gX c #EFC49A",
"hX c #92B3CE",
"jX c #B8B7C9",
"kX c #CABDC6",
"lX c #89C2EB",
"zX c #AED1EB",
"xX c #AFCEDF",
"cX c #D4CCD1",
"vX c #E7D8D5",
"bX c #F5D8C9",
"nX c #FBE5C8",
"mX c #F9E5D8",
"MX c #FFF1DE",
"NX c #DDDCE4",
"BX c #E5DEE2",
"VX c #D2EDFD",
"CX c #E6E6EB",
"ZX c #F7EBE7",
"AX c #FEF4EB",
"SX c #FFF5E8",
"DX c #F3EDF3",
"FX c #F9EFF0",
"GX c #EBF6FB",
"HX c #F3F3F4",
"JX c #F4F5FB",
"KX c #FBF7F8",
"LX c #ECEDF1",
/* pixels */
"Y.[.XXP.XX3XOX.X'..X&X.X.X`.L.g.g._.@X'.&X&Xh.!.H.R.L.~.(. X[.'.W.}.}.;X].P.[.|.3X|.[.2XW.R.}.J.W.W.P.R. XOXL.).OXXX].].{.W.J.J.",
"J.].W.P.R.).4X7X%X_.^.L.).%X5XOX>XOXoX&XoXOX:XP.E.].]. XI./.].).J.P.P.P.P.K.K.).~.XX#X).].{.J.P.R.W.P.R.].R.OX3X%X.XP.P.P.Q.J.Y.",
"Y.J.J.XXOX).`._..X'._.R.R.L.{.}.OXOX%X4XL.^.[.].}.J.[.%X|.I.L.:XQ.J.].P.].).).P.P.XX2X].W.].].}.Y.W.3XW.).%X2X4X'.XX2XK.P.Y.Y.W.",
"J.J.W.P.H.).)..XL.^.OX).L.L.L.[.L.{.2X|.L.).^.2X_.W.h.P. XXX].'.R.P.Y.J.~.].[.~. X.XL.L.P.P.].P.:X:X[.J.].P.P.].R.R.P.J.[.[.F.P.",
"Y.[. XR.P.%X).d.L..XXX].{.XXW.P.P.].)./.|./.|.#XJ.H.J.F.J.3X.X^.XX2X[.P.].P.].{.].OX].P.%X{.H.XX}.[.K.J.P.].P.).H.K.J.G.Q.Y.J.[.",
"K.J.J.J.P.].].^.{..XP.H.P.W.[.XX[./.^.~.#X^.|.P._.H.P.}.P.R.oXoXR.P.P..XR.K.XXXX).H.L.R.F.D.].{.F.F.].].P.2X.X).P.P.].K.R.P.Q.Y.",
"].Y.P.P.^.P.|.6X%X.X{.R.L.h.h.Y.].~.).P.|.~..X^. XP.P.W.L.).).P.R.R.{.XX{.H.].R.).{.R.{.OX).L.].}.P.J.].W.H.R.H.XX3XXX4X].P.P.[.",
"/.].#XK.P.|.).%X6XR.4XK.H.[.W.]. X[.{.R.H.].4XR.P.1X[.W.P.P.L.D.K.%X%XR.4X{.).XX{.P..X)..X{.H.7X3XY.J.J. X.X).[.].).H.{. X].{.P.",
"}.XXK..X XP.P.^. X{.[.).].{.J.J.!.E.{.%XoX3X:X+XP.|./.5X;X;X{.{.P.%X%XH.XXR.H.J.P.K.R.R.%X%X{.&XP.R.%X%X).XXOX).L.).'.{.).R.].P.",
"P.R.~.%XXX^.~.XX).R.].).].F.F.P._.h.E.&X.XR.E.!..X#X/.(./.J.OXOXH.H..XXXL.].XX2X.X.X).H.).oX%XXX.XP.XXOX.X4XoX).).L.{..XR.].R.).",
"].].[.K.L.P.|.).OX{.3X2XR.J.{.F.P.E.I.d..X/.XXE.E.`.4X^.K.;XE.g.].R.H.).K.}.{.P.}.XX).).%X.XL.).%XD.g.H.L.).{.R.XXR..X%XE..XoX#X",
"P.K.L.P.P.).).P.R.).P.4XOXR.J.}.W.;Xd.M.*Xj.J._._.E..XP.E.'.oX+XD.).P.XX2XP.W.5XXXP.XXOX).P.E.%X#X.X%X.XR.).L.].4X%XoX3X).L.)..X",
"].W.P.6X].P.H.R..X.XP..XR.D.F.R.>XB.i.> v.m.=XoXoX_.Q.}.E.E.6X@X).).P.].2X[.W.:XXXJ.P.J.H.].`..X.X#X.X).P.P.].E.H.R.{.P.^..X).L.",
"].OXXXXXD.F.).).|.).%X.XH.L.OX!.n.i.A S aX%.m.=X>XR.J.}.{.>X@X&X.X.X].J.].XXY.P.W.W.K.J.XX{.K.P.).K.~.).].P.P.XXW.P.P..X3X|.~.).",
"[.].[.W.].].%X3XP.L..X%X&X.XR.B.v.$.&.:.9.=.%.i.M.Y.R.F.OX5XOX3X.X).K.K.Y.W.P.J.Y.P.[.2X{.P.~.[.2X[.K.K.].G.]. XW.].J..X.X|.|.).",
"].P.P.].W.OX).)..X'.E.|.3X%X'.n.%.0.;.6.3.-.#.$.A.s.G.).F.!.R.XX{.Q.k.n.p.n.lX9Xj.j.[.R.E.2X{.)./.1X2XP.K.Y.}.].Y.P.[./.H.OX[.|.",
"[./. X/.K.U._.R.F.2X%X].P.P.`.l.&.} } 7.,.5.5.8.wXtXj.$XK.P.L.E.+Xl.Z.qX$.*.$.jXVX<X;XoXOX{.XX/.Y.Y.XX X#X XI.].2XY.].Q.:X5XF.R.",
"^.|.|.~.J.H.R.E.P.|.).{.|.).].C.=.~  .O.} 7.3.e.@.sXhXy.Q.!.}.!.C.tXuXq.e.5.w & yXVX<XJ.OXXXJ.Y.(.}.|.|.~.P.P.I. X|.R.h.!.W.).).",
"&X'.`.3X4X_.J.W..X`._.OXOXJ.L.l.#.O.o.O.' o._ 7.;.8.VX<XM.h.j.l.$.q.3.O.' d ( 5.#.A zX<Xh.}.[.P.g.E.OXXX).P.(.[.)._.]._.K.^..X'.",
"_.E.^.^._._.R.[..XL.].{.F.}.2XZ.#.o.o.o.o.R +._ ~ >.SXVXzXS.S.0X0.' R R h H [ | e.q A zXj._./.].OXR.W.].[.].J.(.OXH.E.+X[.^.^.'.",
"P.H.P.].E.{.%X%X_.XX[.h.h.}.}.Z.-.N N g ! ! ! R { ;.bXKXJXGXGXwX^ ! ! ! P o.` { ) M V hXB.{.D.|.OXXX_.{.}.J.*X(.U.].^.~.1X(.[.].",
"/.2XW.Y.G.].7X.X+Xh.j.M.n.l.z.G X.g j j J J R R | ;.bXKXKXKXKXnX3.! ! ! W W ` U J } &.eXy.].4X).I.;X!.k.k.p.s.N.<X<X,X(.T.(.}.R.",
"[.#X X;X[.K.`.].h.k.l.Z.0X%.=.;.{ U J K K K K R _ w.SXJXJXKXJXnX2.' ! K H H H j Y ..9.a.M.P.OX>X(.M.m.G %.$.S - > jXVXlX-Xj.Y.Q.",
"~.P.Y.T.Y.}.T.j.V.8XtX0Xq.0.} _ J Q K J K K K ' ^ iXKXJXHXGXHXSXw.,.R Q U J h J U ..Z a.M.H.j.n.A.0X$.q.2.-.F w & - A jXVX-XT.}.",
"{.F.P.U.!.n.m.xXVXGXGXvX*.>.} R Q H K K K K ' } q.nXSXHXHXJXHXKXgX3. .| [ R ! J J ~ Z > M.j.V.tX=.^ / _ ( ( X...;.:.9 X eXVX*XT.",
"R.{.Q.=XZ.v.0XsXKXHXHXAXMX8._ o.E W +.Q +.+.O.e.nXSXAXHXHXJXJXAXdX0.6. .| | _ ` J ( q 0XV.M.hXpX/ J H H U E [ | ) X.w $   eXzXM.",
"I.(.Q.S.%.C >.=.fXKXDXFXKXdX^ { W Q W ' o.! ~ e @.wXZXGXJXJXJXAXdX0.5. .3.O. .| ` ~ C A c.zXGXwX<.P E ] W W E J T l B 0   # VXV.",
"/.T.m.b.C e 8 w uXAXFXDXZXMX:.} ' +.o.o._ L } 5.t.D A DXDXDXLXSXdX0.3. .O.O.<.O.| ..:.uXLXGXHXfX<.T [ o.R K j h g z N -.Z = 0XhX",
"h.m.> @.n 8 1 Z 9.bXZXLXHXMXuX^ O.+.` ` ` { O.O.,.r.q 0XKXDXHXSXdXt.,... .3. .O.3.4.3.w.MXLXKXnXt.( N h h J U E ` Y z B -.9 ; eX",
"p.a.@.3./ f M -.>.uXMXCXCXSXfXF } W U U ` ] W Q ` ..>.& vXHXCXZXdX;.} { { { ..O. .O.O.,.gXAXDXSXiXB L ) ] ` Y I H J Y ..6.F * A.",
"S *./ ' ' ' ' ' } >.nXCXCXCXnX:.} U h z Y U H H U { 1.9 aXHXCXZXgX/ _ T I U R { { [ )  .8.mXFXAXgX^ z [ | { ] W ] [ ) ) N F # a.",
"Z m ' Q +.+.K Q W m sXCXCXBXmX:.( J h Y T J J J E R ..0 %.HXCXmXiXX._ I P I U T ) Y U | -.fXZXZXdXn l P P L U j h g g g p M X a.",
"m b z H ! K K H I b qXDXNXBXmXF l j j T Y j j j Y Y ) M - NXNXmXr.X.N T P P z T z T z ) m q.BXvXfXw ) ) U H J P J j j j B 1   v.",
"M 8 t J J ! I P j B Z vXvXvXfXZ N g z Y U j z z z z ) m O kXBXvXuXm N l l l l l x x z N m :.vXvXfX0 k T U W Y j j g h z <.+ . A.",
"9 q 8 a d j l L L f Z NXcXvXaXc B p x z z z x x x x x m # jXNXvXiXe ( x x x x g k k k s c D sXpX*.w <.L P P { [ H J j l M O ; <X",
"a.: 9 c f f l k l 8 D cXkXsXw c p t g x h x g p x k B c   jXNXcXaXw d k p u t t t i r 7 3 6 S yXqXD 5.4.| ) h J H Q U ..:.@ hXV.",
"(.s.= $ 6 c v v i 1 qXkXpXD 0 v u t k x z x t g p u B 6 # cXkXcXqXw c y y r 3 r 3 r r i ~ 6 $.xXp.a.V -. .O.| l h h ) t.9 : <Xd.",
"`.;Xs.a.@ $ $ 1 9 9 rXpXS 9 c y y u s a s t t t i c 6 o rXjXyXjXD 6 y 3 3 3 7 r i a l ( o.2.yX<Xy.N.G V C ^ 3.O.{ } -.9 = hX*X;X",
"_.W.*XM.A.p.; * X - f.- + 1 3 8 y u u y y 7 5 5 0 1 o S pXeX0XqX9 4 3 r t p k N l ( T d ! #., =X=X!.B.C.x.%.&.8.Z w - . hX<Xy.Y.",
"}.>X5XU.d.d.N.s.p.p.; * @ O + 1 4 3 5 5 3 2 2 2 + o = a.A.A.p.: 9 e v l z Y ) [ | O.{ _ } q p.[.XX XoX+X=XV.x.> = . = S.hX*X}.{.",
"). XI.*X[.Y.*X*XT.=X,X*Xs.a.: O 1 2 2 5 2 2 2 1 : p.N.*X*X*XM.c.S ;...[ o.R Q O.7.7.7.e.@.% n.(.U.Y.{.W.U.Q.-XM.C.V.-X-XW.oXoX&X",
"~.].I.P.~.].|.K.L.'.'.'.#X*XN.> 9 8 u v p u u D v.-XT./.U.Y.].V.> D ;.,.7.O.' ! } e.e.8.A i.M. X].J.{._.J.J.P./. X XJ._.oX&X@XE.",
"D.$XoXL.L.P.).^.^.'.$X`.;X=X;Xz.S :.B z z x p M a.N.Q.XXP.].XX[.j.Z.%.#.;.} 4.7.,.F V = Z.V.h.Q. X(.F.J.W.J.d.^. X}.}.oXE.E.E.H.",
"'.@X6X_.3XE.oX&X$X$X#X~.K.F.].-X> *.3.P T ) x F qXp.y.|.R.P.W.).^.=XZ.G G #.w @.q V > Z.V.U.;XJ.].).R.}.R.}.5X X].W.h.h.H.h.E.E.",
"L.P.%XOX&X_._.@X3X).I. XOXR.E.j.C.G 0._ ) ' { / @.> M.#X`.P.J.]..XF.*X-Xn.z., < p.hXlX-XI.XXW.OXK.^.).L.H.{.{.:X5X:X+XL.D.|.[.[.",
"`.].XXXX+X&XoX'.P.K. X[.P.E.R.!._.l.=.5...L ..7.t.S N.~.'..XXX XXX|..X;XXXP.!.=X;X*Xd.|.2X`.J.}.4X%X`.).E.P.h.J.}.E.{.^.`.|.[.OX",
".X).J.R.).4X%XL.E.E.[.U.h.P.P.W.+XB.G 8.5.3.~ X.r.S N.|.~.).|.3X2X%X XJ.P.W._.}.;X[.#X%X#X`.:XW.W.XXP.].3XW.P.].R.L.|.).^.H.H.W.",
"`.`.P.{.4X].K.].{.R.h.Y.P.P.{.oX@Xj.x.0Xq.5.<.<.r.0XN.#X/.~.P.].[.).].7X:XF.OX}.T.I.|.`.D.^.].J.y.F. X X:X{.R.P.$X#X%X~.R.].+X!.",
"].P.).[.F.{.XXR.P.).P.W.].)..X]._.W.B.z.qXiXe.r.aXa.s. XK.Y.[.J.F.P.J.5X XP.J.G.]. X].|..X.XXXL.L.L.7XP.P.W.R.3X3X.X{.3X]._.}.+X",
").{.P.H.D.].[.).%X6X2X{.{..X.XP.R.OX2XB.x.0XwXwXa.p.*X1XXX{.].h.}.W.Q.P.F.J.Y.].}.~.).~.4X7X).).P.R.7XXX{.W.).XX2XD.H.R.].OX+X3X",
"OX%XL.].).L.).P.P.].XXP.H.XX.X.X}.{.^.XXV.l.i.m.M.T.d./. X4X%XOX{.{.2XXX{.W.P.XX].].P.P.`.P..X.X].R. X;XE.E.XX).R.F.OXW.W.:XR.+X",
"4X.XP.%X.XP.R.).).).).{.{.P.E.'.].L.).#X_.h.j.!.XX1X$X|.]..XE.).{.].R.}.OX;X].].[.[.XXXX|.).].H.P.F.D.{.OX].XX).H.K.R.{.R._.E.{.",
"XXL.).).R.XXP.{.{.XX%XR.R.OX.XP.`..X`.L.7X6XW.F.#X%X%XI.|.].Q.h.Q.].L.F.P.%X XP.P.].[..X.X].P.D.XX}.H.{.5XR.g.L.).{.)..X].{.R.R.",
"].].).H.E.).E.).XXXX).].R.D.R.).~.|.|.P.oXE.D.E._.|.3X].P.F.G.Y.P.H.].J.].[.].[./.P.R.|.R.P.].].R.W.}.{.{.F.F.P.H.R.).H.F.W.{.W.",
"{..X'.R.P.H.R.).R.H.)..X[.W.L.].[. X5X}.h.R.OX).P.J.P.R.P.(.K.[.{.K.P.].XXP.R. XP.D.].[.].}.J.H.J._.5X3X{.R.{.R.R.L.P.XXXX).].E.",
"{.R.XXL.D.L.).XX].L.R.P..X%X]./.2XXXW.!.W.W.{.L.Y.U.;XW.XXXX~.F.[..XP.).P.P.XX].].XXK.H.W.].P.H.{.}.J.U.W.R.H.).].).P.3X{.P.R.H.",
"XX].)..X].R..XL.P..X).{.XX[.].P.[.R.g._.'.E.'.L.[.J.{.%X%X%X%X^.L.).~.).P.J.].~.K.P.R.[.{.XX].XXH.h.].F.K.%X].).XX].].P.K.[.%X[.",
"3XOXL.OXOXE.'.%X.X).).).%X].P.J.!.W.H.E.&X.X.X%X[.J.W.[.R.'.%XOX.XL.XX2X[.^.P.}.K.].].P.R.}.Q.P.E.E.R.{.:X[.].P.].].2XOXXX.X2X%X",
".X).L.H.).L.{.L.H..X{.R.).].P.].F.R.`.^..X2XU.j.G.Y.].W.].OX&XR.].].P.].4X2X%X5X.X3X3X.X{.P.K.R.P.{.].}.5X].[.D.P.{.XX{.~.L.P.].",
"{.{.].XX).OX4XXXD..XR.P.K.).J.[.R.L.|.`.$X{.[.(.Y.(.(. X[.H.W.W.G.].].[.[..X2X4XXX].].L. X3XOX].].6XOXR.:X).P.~.). X[.L.P.P.J.P.",
"[.].]. X).].&X6X3XR.L..X{.).XX[.H.~.].#X#X`.~.|..X~.~.;X;XG.Y.}.W.J.W.J.K.P.].6X).P.{.R.K.P.|.].XXOXXX{.).J..X2XP.[..XP.].P.P.W.",
"K.P.XXXX{.{.%XP.).oXL.).3X%X X).J.3X#X|.K.#X2X.X.X`./.d.Y.].:XXX[.[.P.[.:X].F.P.P.P.].].|.~.P.XXXXP.P.{.].).XX|.XXR.].R.4X}.].J.",
"[.].P.{.P..X.X).E.%XOXXXR.%X%XH.J.Q.}._.].].3XW.P.].#X`.).P.W.J.J.W.P.XXXX].OXR.).%X.X).#XXX^.XX)..XP.L.#X[.K.K.).). X].].J.[.:X",
"P.J.K.P.{.L.L..XoX4X%XL.].L.F.].].W.J.h.W.h.h.].[.R.#X`..XR.].Y.G.J.J.W.W.H.].}.XX{.~.~.P.].|.3X].P..XL.).).).[.{. X}.{.F.R.].;X"
};
