/* XPM */
static char *Water1655144708[] = {
/* columns rows colors chars-per-pixel */
"64 64 215 2 ",
"   c #177BB7",
".  c #1D7FBC",
"X  c #1E80BD",
"o  c #1F81BE",
"O  c #1E82BE",
"+  c #1F83BF",
"@  c #2082BF",
"#  c #1E82C0",
"$  c #1F83C1",
"%  c #2183C0",
"&  c #2084C0",
"*  c #2185C1",
"=  c #2284C1",
"-  c #2084C2",
";  c #2185C3",
":  c #2385C2",
">  c #2286C2",
",  c #2387C3",
"<  c #2486C3",
"1  c #2686C3",
"2  c #2184C5",
"3  c #2286C4",
"4  c #2387C5",
"5  c #2587C4",
"6  c #2488C4",
"7  c #2589C5",
"8  c #2688C5",
"9  c #2488C6",
"0  c #2589C7",
"q  c #2789C6",
"w  c #268AC6",
"e  c #278BC6",
"r  c #278BC7",
"t  c #2888C5",
"y  c #2989C6",
"u  c #288AC7",
"i  c #2A8AC7",
"p  c #288CC7",
"a  c #2A8FC7",
"s  c #268AC8",
"d  c #278BC9",
"f  c #298BC8",
"g  c #2B8BC8",
"h  c #288CC8",
"j  c #298DC8",
"k  c #298DC9",
"l  c #2A8CC9",
"z  c #2A8EC9",
"x  c #288CCA",
"c  c #298DCB",
"v  c #2B8DCA",
"b  c #2A8ECA",
"n  c #2B8FCA",
"m  c #2B8FCB",
"M  c #2C8CC9",
"N  c #2C8ECB",
"B  c #2E8ECB",
"V  c #298CCD",
"C  c #2A8ECC",
"Z  c #2B8FCD",
"A  c #2A8DCE",
"S  c #2B8ECF",
"D  c #2D8FCC",
"F  c #2F8FCC",
"G  c #2C90CB",
"H  c #2C90CC",
"J  c #2D91CD",
"K  c #2E90CD",
"L  c #2E92CD",
"P  c #2C90CE",
"I  c #2D91CF",
"U  c #2F91CE",
"Y  c #2E92CE",
"T  c #2F93CE",
"R  c #2F93CF",
"E  c #3090CD",
"W  c #3191CE",
"Q  c #3092CF",
"!  c #3292CF",
"~  c #3095CD",
"^  c #3094CF",
"/  c #2C8FD0",
"(  c #2D90D1",
")  c #2E92D0",
"_  c #2F93D1",
"`  c #2E91D2",
"'  c #3193D0",
"]  c #3092D1",
"[  c #3393D0",
"{  c #3094D0",
"}  c #3195D0",
"|  c #3195D1",
" . c #3294D1",
".. c #3296D1",
"X. c #3094D2",
"o. c #3195D3",
"O. c #3395D2",
"+. c #3296D2",
"@. c #3397D2",
"#. c #3397D3",
"$. c #3494D1",
"%. c #3595D2",
"&. c #3496D3",
"*. c #3696D3",
"=. c #3093D4",
"-. c #3194D5",
";. c #3296D4",
":. c #3397D5",
">. c #3396D7",
",. c #3597D4",
"<. c #3797D4",
"1. c #3498D3",
"2. c #3498D4",
"3. c #3599D4",
"4. c #3599D5",
"5. c #3698D5",
"6. c #369AD5",
"7. c #3498D6",
"8. c #3599D7",
"9. c #3799D6",
"0. c #369AD6",
"q. c #379BD6",
"w. c #379BD7",
"e. c #3898D5",
"r. c #3999D6",
"t. c #389AD7",
"y. c #3A9AD7",
"u. c #389CD7",
"i. c #3598D9",
"p. c #3799D8",
"a. c #369AD8",
"s. c #379BD9",
"d. c #3699DA",
"f. c #379ADB",
"g. c #399BD8",
"h. c #3B9BD8",
"j. c #389CD8",
"k. c #399DD8",
"l. c #399DD9",
"z. c #3A9CD9",
"x. c #3A9ED9",
"c. c #389CDA",
"v. c #399DDB",
"b. c #3B9DDA",
"n. c #3A9EDA",
"m. c #3B9FDA",
"M. c #3B9FDB",
"N. c #3C9CD9",
"B. c #3D9DDA",
"V. c #3C9EDB",
"C. c #3E9EDB",
"Z. c #389BDC",
"A. c #3A9EDC",
"S. c #3B9FDD",
"D. c #3A9DDE",
"F. c #3B9EDF",
"G. c #3D9FDC",
"H. c #3BA0D8",
"J. c #3CA0DB",
"K. c #3CA0DC",
"L. c #3DA1DD",
"P. c #3EA0DD",
"I. c #3CA0DE",
"U. c #3DA1DF",
"Y. c #3FA1DE",
"T. c #3EA2DE",
"R. c #3FA3DE",
"E. c #3FA3DF",
"W. c #3EA2E0",
"Q. c #3FA3E1",
"!. c #40A0DD",
"~. c #40A2DF",
"^. c #40A4DF",
"/. c #41A3E0",
"(. c #43A3E0",
"). c #40A4E0",
"_. c #41A5E0",
"`. c #41A5E1",
"'. c #42A4E1",
"]. c #42A6E1",
"[. c #40A4E2",
"{. c #41A5E3",
"}. c #43A5E2",
"|. c #42A6E2",
" X c #43A7E3",
".X c #44A6E3",
"XX c #40A3E4",
"oX c #41A4E5",
"OX c #42A6E4",
"+X c #43A7E5",
"@X c #45A7E4",
"#X c #44A8E3",
"$X c #44A8E4",
"%X c #45A9E4",
"&X c #45A9E5",
"*X c #46A8E5",
"=X c #46AAE5",
"-X c #44A8E6",
";X c #45A9E7",
":X c #47A9E6",
">X c #46AAE6",
",X c #47ABE6",
"<X c #47ABE9",
"1X c #49ABE8",
"2X c #49ADE9",
"3X c #4AACE9",
"4X c #48ACEA",
"5X c #49ADEB",
"6X c #4BAFEA",
"7X c #4CAEEB",
"8X c #4DAFEC",
"9X c #4CB0EC",
"0X c #4CB0EE",
"qX c #4FB3F1",
"wX c #50B4F0",
/* pixels */
"T.R h R R r r #.& #.T.n.#.#.#.#.p a G p a G R R ( G H ;.-.( ( d.f.>.) ) 8.s.s.;._ 7.d c H.-.$ o.C s H ) F g ( 2.' F B h F R F Q ",
"R R R 2.2.#.h r #.r & #.2.R G R T T 3.u.#.p p _ _ 7.v.V.D.Z.-.V c.( s s _ K.v.s.c I $ Z s.-.I 7.I.J.c.c.h.&.R ' t.i.2.%.( Q %.&.",
"n.n.2.R R #.#.R r r #.T.`.2.#.n.G p _ H.H.R p T d _ i.c.D.Q.v.( s._ ( H _ s.W.W.-.-.I ` o._ _ :.C.n.u.n.N.2.F Z n.N.C.t.' ' 2.N.",
"R #.T.T.`.n.#.h r 2.`.2.#.R R & T p G u.Q.n.T G d H _ ( -.v.D.f.;.s.c.7.) ( s.W.W.f.H.W._ I _ I R h G T &.&.;.' t.2.2.' F F #.2.",
"#.R h h R #.`.wXT.n.R r h T.T.R H.R.R.n.H.H.#.c | _ _ _ P H ( s.C ) ;._ H C C ( 7.;.H.H.` o.;.o.B h F ( %.n.T.(.h.&.R F F F H Z ",
"& & R 2.2.#.2.T.#.R h R #.2.T.`.u.,X9XH._ T a.7.7.T _ c.7.H H 8.) c s C _ ;.H $ I ;.>.-.o.o.) o.2.&.;.' #.t.C.!.h.;.F h R F F s ",
"#.R h r h R #.#.r R n.2.h O O h H c.R.#.d H #.H.T d G T 7.s.7._ ;.) C C ;.>.;.) o.K.7.I _ _ Z o.C.h.' F B #.&.#.( R Z B F F F h ",
"h R #.h #.n.R O h 2.2.R #.T.T.#._ T H T _ T | a.H G 6 $ ( K.c.H s.s.s.) C C ;.K.o.W.o.$ :.7.) K.h.;.Z t B #.#.g : & g h h R Q ( ",
"h & O r R h R n.T.2.R h h r R #.) _ ( c T a.~ p c.& G T 2.r #.n.C C C ;.;.C C W.C s C C ` ) $ :.. F Q R %.%.Q Q h.t.2.&.' F F ' ",
"#.2.#.r r 2.`.`.`.T.#.r h h h r 7.( ) ( P #.a.P T #.#.G 6 T R O C s.s.v.K.;.) ;.;.) s.;.7.` ) Q.(.g . Z ;.h B ' h.2.2.h.h.;.' ' ",
"#.R R #.R r h 2.n.T.2.R R 2.2.R v.( 8.Q.u.c.W.u.#.#.R n.G 2.G p C K.W.s.s.;.) ) ) C ) ) f.K.i.4Xi.#.t.C.2.h.n.Q R F ' &.2.Q F Z ",
"2.h R n.n.h r R #.R #.R R R h r _ 9 8.Q.J.c.I.u.#.T #.R.#.u.#.#.C s.8.) ) ) ) s.8.C s C K.Q.f.Q.r g T.@X2.(..XB g h F ;.%.Q ( #.",
"R R R r h 2.n.#.2.#.#.T.2.R & h ( $ V -.( H ( ( H c.`.G p T H.p C C c ) 7.P ) W.W.s.;.) f.K.` H.C.O O &.#.' h.Q h.n.n.h.2.%.h.T.",
"r r r r h h h R n.2.2.`.T.h h 2.d.-./ V H H H _ #.T H.p G p u.#.C x c s.I.a.;.I.s.s.K.8.;.Z $ W.:X' Q ' s g ( R C.N.N.t.&.' O.2.",
"2.h #.T.2.r O R h R #.2.R 4 h 2.D.Q.>./ v.K.7.K.T.h h u.u.^ n.:X) ) P ;.I.c.| s.) C ) ) ;.` x H.' T.@X&.h F #.( ;.' R #.3.( F g ",
"R n.T.#.r r R #.#.n.T.n.h r R n.( Q._ c Q..X7.K.J.2.G c.^  X X(.a.s.) c ;.s._ ) s.s s s s.K.C ) F g 5 F %.h B h.R g B &.T.C.( g ",
"2.( H 7.c.i.c.n.o.c I Q.4XQ.o.I s.W.' # t F F #.' 5 r ( 2.C.(.V.;.F 5 5 g F ' t.h F ' 2.' F F Q i.2.' t 5 h &.N.g F R Q ' #.#.&.",
"Z #._ Z H i.v.8.;.7.7.I ` H.7.I P ;.#.' ' h t ( #.g g F B R ' ' h.&.;.' ' ' ' ;.& F i.V.C.T.h.#.2.h.h.#.F R &.&.n.( F ( 2.C.&.' ",
"Z ( ( H d Z H c Z f.W.H.` o._ c d G n.#Xh.h h ' F s F Q t g R ' 2.t.h.V.n.&.&.h.n.(.(.&.;.h.#.5 B &.h.2.' Q F B C.#.B F i.V.&.F ",
"Q.;.#.Q.Q.( d _ I I f.Q.W.I c I G d J.1Xh.F ' Q F Z ' &.R R #.' ' ' ' &.' R ' &.#.&.;.F ' 2.2.F r ( h.&.' R h R &.#.R F F F F ' ",
"K.( H v.K._ ( 7.7.o.I 7.>.` o.K.F Z t.N.R R ' g #.' t.n.&.' ' g t.;.F g 5 = 5 R = 5 F &.N.t.#.F R &.n.&.Q R ( ^ Q Q ( F h F F ( ",
"C H s $ s 8.K.c.o.:.I $ x -.H.s.h g F h 5 h F 5 F R %.2.' ' #.g C.&.F g 5 t F 2.t.' #.i.2.Q B h t.2.&.( g B F F t.#.R ' &.2.#.R ",
") v.c.C C K.+XW.$ o._ C C o.;.Z h h t R #.B 5 Z h B %.' g ( &.#.!.&.( H R Q 2.N.h.&.Q g g ( i.(.%.' ' F h F ( B &.&.&.&.%.#.' Q ",
") c.K.a.( c ( 7.I c Z o.` x x o.g F Z h.(.( 5 &.( &.h.#.5 t ' ' C.#.R h h B B R ( t.2.t 5 #.h.&.R R E F ' 2.&.' B t.C.2.B t R &.",
"( H s c ` ) ) ;.s ;.;.C ) K.K.W.h.<X.Xi.&.2.#.R 5 &.F 4 B B t #.g ;.h.' g F ;.2.i.2.&.R g 5 r g #.%.h B %.2.#.i.t.B R N.`.2.Q Q ",
"_ _ ( ) >.` C ) ;.) s $ ;.7.c $ n.&.#.&.h.Q g ' &.O.r t 2.( r h &.R ' n.2.' h.7X&.F B F %.i.h.&.4 ' &.' ' Q &..X( F ( &.n.h.h.&.",
"_ 7.7.c.W.K.;.s.Z K.s.) ;.s.;.Z ;.F 5 F 2.' g ( h.' ' C.:Xh.g R g Q #.h g ' ' ' ;.' F ' #.' %.#.F ' #.' t.t.%.h.t B R B ' &.h.2.",
"C _ ;.s.Q.W.W.Q.` K.I.I.W.>.o.K.B ' R g #.h.' g g ' V.@X@Xn.;.n.5 i.N.%.;.C.2.5 #.h.C.2.R r t h #.%.h F 2.%.Z R R R R g F %.2.&.",
"4 C C C ;.7.;.K.Q.) $ W.;XZ $ o.t 2.&.' &.h.' h 4 Z 2.&.' &.i.h.' F &.`.@XN.2.n.( h.T.T.i.' ' ' 4 ' ' F h t g &.&.Q B ^ ;.' ' %.",
"C _ C 9 s c C ) ) s.o.o.>.;.C ) F #.' h.i.F g &.( F h & = &.V.F ' Z F h.i.Q ' %.' ' #.h.(.(.&.' F &.&.' #.( F ' #.h g ( &.' R #.",
"7.v.;.c C C C ) $ W.Q.Z s s.s.;.F ' R ' 2.R R Q.n.' Q F 5 F &.g #.&.&.&.#.' ' ' ' F h ' n.N.&.F h.h.&.2.T.h.F g F ' ( R F ;.#.O.",
"7.K.;.C H ) _ s.H.Z $ ` 7.s $ o.s &.' r R h.C.(.' Q N.(.F r F r ' . r C.N.: : t.R F F Q &.2.2.2.& ' i.C.h.#.Z ' %.T.C.#.F h.C.h.",
"qXs.>.H.;.o.7.I x K.K.;.) ;._ 8.r ' 2.%.' ' ' #.g h R R Z Z g g i.Q B ' ;.F h R F ' &.h.V.h.&.' E O.O.W ! <.! g %.W ! r.e.E g B ",
"W.C I 7.o.I C $ C C x ;.K.s.>.K.2.N.n.( F &.;.F h.h.t.%.R H F ' F B Z g Q %.' ' &.&.&.&.' Z 5 # g Q %.O.O.Q E B 1 B <.<.W B ! <.",
") $ s o.` ) Z $ s s $ s ) C s C Q %.' F ' h.2.E h.i.h.i.&.h.n.C.n.C.n.Q Q &.%.g g h ' &.V.C.V.h.g B <.h.e.E E O.E E B M ! N.<.1 ",
"o.c x ) :.7.s.f.s.Q.W.>.;.;.;.8.r r g #.i.h.h.&.r g Z F ' #.&.&.`.(.n.' ' 2.&.( R R ' %.&.2.;.' B B O.h.e.B E %.<.E y g e.!.<.t ",
"o.o.) ;.f.H.f.W.K.W.W.K.K.8.8.W.t.R F h.h.F Z 2.#.#.' ' #.' ' %.' Z g F %.&.C.@Xi.&.2.%.%.( F R O.B h #.' B g R g Z F #.! F ' h.",
"` 7.7.7.K.7.) ;.f.s $ Z c.C $ 8.!.%.F ;.R 5 s &.C.n.&.' ' ' &.2.' h g Q &.#.h.`.#.' ' ' #.h.2.2.N.%.#.%.%.#.#.%.;.F R &.' g g #.",
"I f.:._ 7.) x ) 7.Z $ ) s.| ( ;.#.R s g h F F #.F g B h F R Z g h.&.' ' R h F ( ' F g r t h t g %.h.h.i.&.h.i.2.C.&.F R 2.&.' F ",
"o.H.o.c ) Z c f.$ W.W.x ( Q.Q.s.t h Z g #.C.i.s F #.&.C.N.i.F r h ( R t 5 B Q R ' F h B h R Q ( g &.h.;.' &.2.%.F &.t.' ;.V.(.Q.",
"C c c x c I I c 9 _ v.7.;.7.;.) F g h ' p.&.%.' C.( ^ e.B 5 ' V.R : t #.F = s h.#.5 s 2.#.= : h.F ' h B B h %.( &.( ( 3.n.T.h.t ",
"$ H.Q.` c 7.H.c d C ) ( _ s.K.K.s #.&.' Q &.' 5 ' %.n.' F 2.n.F 5 %.h.%.' &.#.F &.h.h.' F ' R g n.R B 2.Q X O h t.Q F B B #.#.g ",
"` 7.W.Q.H.o.-.W.W.c._ _ _ ( H ( g ' 2.&.2.;.&.h.R : h 2.#.R F g h.#.#.&.' Z ' (.&.C.h.Z Z &.&.r r r h R #.2.H.Q.T.3.R r + & h r ",
"o.A o.Q.Q.o.o.W.8._ _ 7.7.H H _ ' &.&.' R i.C.C.&.: g t.%.g Z #.2.B ' Q.h.g s &.&.#.' &.&.%.&.n.( ' #.& r 2.#.T T.n.2.#.h G u.i.",
"I :.:.:.W.Q.Z.A H c H _ ( d Z ;.' C.t.& @ ' %.r n.V.C.;.Z &.(.h.h.n.i.Q B ' 2.&.i.Q ' n.h.' %.(.3X#.2.7.#.G O p T h #.^ h h c.n.",
"s.-.I _ H.W.i.$ _ _ ( C s 4 s ;.h.R F #.Q : = 5 K.h.i.%.g F 2.n.Q.h.h.&.#.#.&.C.#.%.;.#.' ' ( F G p n.u.c.Q.R #.#.h R _ h p G G ",
"I.I Z o.7.o.` _ Z ( ( H H ;.i.K.i.h R C.n.t 5 t.2.t h t.( : r ' h 5 ;.8X3X#.: h F #.' F ' h.' &   r  XH p n.H G :Xn.n.K.2.2.n.2.",
"$ :.i.$ $ i.H.I K.Q.K.u.i.i.;.g r (.`.B : i.C.F B F t.h.&.2.' 4 ' F g 5 5 g F ' #.F F ' (.@XV.Z T T 9XT._ #.G :Xn.H h #.2.n.T.`.",
"Q._ C o._ C d I :.s.s.I _ W.H._ n.h n.`._ G n.K.c.2.4 6 n.:XH.n.C.N.n.C.h.F F %.#.B g Z ' %.i.T.H &.C.C.2.' ' &.F g h.( R (.n.i.",
"5XQ.7.7.s.o.) I c _ _ C C _ -.` R R h #.n.#.H h n.T.#.G c.n.R R ' 2.t.Q #.n.2.Q %.2.i.h.#.h t g R & 5 #.C.2.#.' Z . F C.&.F 5 h ",
"o.Z s d I :.:.-.s.I.I.s.:._ o.:.R 2.R R :XT.h G c.R.H.7.#.T h G Z F g r F h.t.Q h ' &.V.2.Q g s N.R h h.N.F = & F ' &.&.#.' N.#.",
"s.7._ c c Z ) I s.o._ :.:.C d Z r #.R G #.R r r R 3.7.R G h R _ #.5 : R 2.( ' 2.h h F ' &.%.' F R ' i.(.n.g r B 4 R g r 5 g h.r ",
"7.s.:.Z d d ` _ _ $ $ ) :._ Z _ n.c.T.K.R #.h.#.r h _ R G R #.h 2.F Z &.&.F F u.O.F Z h R ' F s g ;.V.i.Q R F ( 2.' Z (.C.h #.t ",
") _ _ A c Z _ H.s.) _ s.W.s.:.:.K.s h T 4 h 7.r G G 2.n.n.2.2.t F &.;.' F h ( ( g g B Q ;.h.' g &.2.' g t Q ' t ' h g ' ( B ' g ",
"Q.Q.H.W.7._ ` :.:._ _ :.:.:.Z d C.F g %.u.n.&.;.#.R &.N.h.C.T.( h ( %.' R R ' ;.5 Z R ' #.&.&.&.g 5 5 h 2.C.h.R ;.h.(.' B T.@XQ.",
"W.I d _ 7.o._ :.) :.:.:.:.:.) C h F s Q }.2.Z h.Q r F Q h n.`.h.2.F ' (.(.&.h.:Xh.C.C.&.F Z F R F Z ' !..Xt.h r ' r (.T.#.' R C.",
"s.:.:._ d I.Q.:.$ _ _ Z $ d Z ) 5 g ( 2.h.h.#.F Z g t.2.N.R Q B h E R ( u..X@X.XV.n.' Q h.n.&.&.' `.`.n.2.' g g F h.e.Z = 5 g F ",
"s.c s.Q.I.:.Q.0XW.) d _ s._ s.Q.B #.2.&.%.#.' Z %.F ' h ;.F e.t.' F F t & 5 &.3X5 F F Z #.#.F ' C.C.&.F ' ' i.(.' ;.&.&.%.&.( Z ",
"d Z s.s.) :.W.s.7.s.:.:.W.Q.W._ F ;.e.O.' h.h.2.2.' R t ' F t.N.#.g h i.h.F t F h ' #.( ' ' F ;.h.#.B R &.' F 2.F g Z ' &.' Q B ",
"Z _ ) C Z :.:.d :.Q.W._ :.Q.s.# t ' %.B h 2.C.h.' F %.#.i.F O.E &.B g &.T.n.#.' h.n.%.' &.&.&.C.R Z t Q i.' r t &.#.#.&.' B #.T.",
"s.d s :.W._ o.Q.Q.s.:._ ) d Z :.! h.e.B y B ! B #.E O.E r.B ! W . r R #.#.#.&.&.' #.B h #.2.&.n.' &.F r ( n.&.&.t.' R #.F r F h.",
"Z Z I o.:.I o.Q.:._ :._ _ ) :.s.h.C.N.<.W ! ! W t.E E 1 W M h.!.5 F %.#.' ' g = t R g g Q ( g F ' N.;.g #.h.2.&.h.' h ( #.Q h s ",
"$ 7.:.d Z _ _ I.d _ :.:.7.W.7.C r.%.e.N.N.r.<.r.r.E E t O.B N..X@Xh.F s F R F F Q %.#.' %.F g h B t.n.h.h.;.h Z h.h.h.h.T.(.h.' ",
"s.) s _ Q.:.Z Q.Q.d $ :.W._ d Z W M B r.h.! W ! O.E e.O.C.O.t.&.Z F i.(.C.;.;.(.' i.h.' #.' &.C.h #.i.C.C.#.F h.g #.&.' ' &.&.' "
};
