/* XPM */
static char *_b5cab37356a4a0dfda80f56a75c43ffGahqV2fac0qv0olu[] = {
/* columns rows colors chars-per-pixel */
"64 64 141 2 ",
"   c #5706FE",
".  c #5900FF",
"X  c #560BFF",
"o  c #5D0CFE",
"O  c #5513FF",
"+  c #5F12FD",
"@  c #541CFF",
"#  c #6115FD",
"$  c #631BFD",
"%  c #5423FF",
"&  c #532CFE",
"*  c #5A2BFD",
"=  c #4F3CFD",
"-  c #5134FE",
";  c #5933FD",
":  c #513BFE",
">  c #5B3DFC",
",  c #6623FC",
"<  c #6827FC",
"1  c #6429FB",
"2  c #6A2CFB",
"3  c #6F3DF7",
"4  c #6435FA",
"5  c #6D34FA",
"6  c #603FF9",
"7  c #6F3AF9",
"8  c #703DF9",
"9  c #4F44FD",
"0  c #4E4CFE",
"q  c #5043FE",
"w  c #5F43FB",
"e  c #514CFE",
"r  c #5C4BFC",
"t  c #4D53FE",
"y  c #4C5BFD",
"u  c #555DF7",
"i  c #5554FC",
"p  c #5A55FA",
"a  c #555BFB",
"s  c #5C5DFA",
"d  c #6544FB",
"f  c #6D42F8",
"g  c #634BFA",
"h  c #6B4DFA",
"j  c #7345F7",
"k  c #754CF7",
"l  c #784FF6",
"z  c #7243F9",
"x  c #764CF8",
"c  c #784FF8",
"v  c #6F50F7",
"b  c #6452FC",
"n  c #6951FB",
"m  c #645FFB",
"M  c #6A5FFA",
"N  c #7752F6",
"B  c #7954F6",
"V  c #7C5CF6",
"C  c #7751F8",
"Z  c #7A55F8",
"A  c #735DF8",
"S  c #7C5BF8",
"D  c #4B64FD",
"F  c #4B69FC",
"G  c #5B63F7",
"H  c #586BF7",
"J  c #5266FC",
"K  c #526CFB",
"L  c #5773FA",
"P  c #5A75F9",
"I  c #5E79F9",
"U  c #6D6AF7",
"Y  c #6463F9",
"T  c #6B64F9",
"R  c #636CF9",
"E  c #6A6CF9",
"W  c #7667F4",
"Q  c #7E63F5",
"!  c #736EF6",
"~  c #7B6DF6",
"^  c #7E61F8",
"/  c #736CF8",
"(  c #6B75F6",
")  c #657DF7",
"_  c #6C7CF6",
"`  c #6475F8",
"'  c #6A74F9",
"]  c #657CF9",
"[  c #6B7AF9",
"{  c #7673F5",
"}  c #7C73F5",
"|  c #737CF6",
" . c #7C7CF6",
".. c #7474F8",
"X. c #737AF8",
"o. c #787EF8",
"O. c #8066F5",
"+. c #826CF5",
"@. c #8167F8",
"#. c #8574F4",
"$. c #8876F5",
"%. c #877AF3",
"&. c #897CF3",
"*. c #6B85F6",
"=. c #6E89F6",
"-. c #6880F9",
";. c #7484F6",
":. c #7C84F6",
">. c #748CF5",
",. c #7C8BF5",
"<. c #7188F9",
"1. c #7988F8",
"2. c #7790F4",
"3. c #7C93F4",
"4. c #8C87EF",
"5. c #8C88EF",
"6. c #9194EF",
"7. c #959CEE",
"8. c #8283F4",
"9. c #8C84F2",
"0. c #828CF4",
"q. c #8E8BF2",
"w. c #908EF2",
"e. c #8394F3",
"r. c #8B93F2",
"t. c #859AF3",
"y. c #8A9CF2",
"u. c #9293F1",
"i. c #959BF1",
"p. c #989FF2",
"a. c #8FA2EF",
"s. c #96A2EE",
"d. c #99A5EE",
"f. c #96AAEE",
"g. c #9BADED",
"h. c #9DB0ED",
"j. c #8CA0F2",
"k. c #96A1F0",
"l. c #98A3F0",
"z. c #9CACF0",
"x. c #9DB0F0",
/* pixels */
"q.w.. . . q D . . . . . . . . . +.d.. : F @ . . . . . . . . . Q h.T F y X . . . . . . . . . . . . . . . . . . . . . . . . . . . ",
"w.6.. . . % F % . . . . . . . . 8 g.8   a D X . . . . . . . . o 7.7.( K D - . . . . . . . . . . . . . . . . . . . . . . . . . . ",
"7.d.o . . . D y . . . . . . . . . g.7.$ @ F y X . . . . . . . . 2 h.6.e.K D D = . . . . . . . . . . . . . . . . . . . . . . . . ",
"u.g., . . . t F e . . . . . . . . 4.h.6.  y F 0 X . . . . . . . . 4.f.h.g.a.D t   . . . . . . . . . . . . . . . . . . . . . . . ",
"z g.#.o . . . 0 D t . . . . . . . . 5.g.6.X D D 9 @ . . . . . . . . . l 7.h.f.*.u & . . . . . . . . . . . . . . . . . . . . . . ",
". g.d., . . . . y F - O . . . . . .   p.g.Q 4 D D 9 @ X   . . . . . . . X +.g.h.a.P F y = . . . . . . . . . . . . . . . . . . . ",
". 6.g.B $ . . .   D D 9 & . . . . . . f g.6.O.s F y p - @ X . . . . . . . . N d.g.a._ F F 9   . . . . . . . . . . . . . . . . . ",
". z g.&.5 o o . . @ F y 0 & X   . . . . f.d.4.N i D I Y > * O .   O . . . . o 3 7.g.f.>.K F y O . . . . . . . . . . . . . . . . ",
". . g.p.B z 2 . . . t D y 0 9 - @ O . . 4.g.7.%.3 u H ) U ~ U & O % % o . . . . $ 7.g.f.a.H D y & X .   . . . . . . . . . . . . ",
". . 6.d.#.l 3 o . . . 9 D D t = - - @   . #.h.d.%.N 6 ) *.>.:.| u % @ % @   . . . + 4.g.g.a.L F D t %   . . . . . . . . . . . . ",
". . l h.+.O.3 5 . . . . y F D y 0 - & %   . 7.g.7.#.Q v ;.2.>.4.,.( = % % % O . . .   6.g.g.g.I D F F y O . . . . . . . . . . . ",
". . $ g.+.V l 3 1 . . .   F H D t i r q & X . %.h.d.%.+.j ( 2.e.r.5.>.p % % % @ X . . . + +.g.g.f.) D F y %     . . . . . . . . ",
". . . d.6.j #.V V # . o   * ) I D R o.U r - O X r.h.6.&.+.j | 2.a.t.e.0.( - @ % % @   . . . 3 7.f.f.>.K F D - O . . . . . . . . ",
". . . w.h.V %.4.#.k , l 3 o u ) ) J H  . .m 9 - * 3.7.4.%.+.+.} >.y.a.r.t.>.p & % @ @ O . . . $ a.g.f.t.K F D = @ . . . . . . . ",
". . . o 7.s.Q 4.4.#.5 5 B 3 + % ;.>.H G :.0.| p = d 3.t.+.%.9.&.&.e.a.a.6.t.e.( = % @ % @   . . o %.f.f.a.P F F t % . . . . . . ",
". . . . 5 g.7.#.4.&.Q k 3 B k 5 * ;.3.) Y | 8. .U 9 _ t.| W 9.r.6.5.t.t.a.6.y.e.,.u - % % % O   . . 5.g.g.f.P F F F y % . . . . ",
". . . . . 6.g.O.+.w.4.B z 8 +.&.B 5 ,.a.t.:.;.%.8.X.s E t.1.g +.5.q.6.a.a.y.y.r.e.e._ 9 & @ % @ o . . . 3 6.f.h.e.L F F F 0 . . ",
". . . . . o d.d.O.4.5.&.8 3 3 +.#.O.j ,.a.y.,.:.%.8.:.' ] y...T  .9.6.7.s.a.y.a.r.r.e.,.G 9 % % % @   . . . o W s.h.y.H D F e . ",
". . . . . . 5 g.s.+.&.5.O.7 7 V #.4.#.V 3.y.y.e.1.0.8.0.;.[ 2.0.{ ! ~ Q 9.6.s.a.a.y.t.t.e.| e = O % % X . . . .   &.h.f.3.J F : ",
". . . . . . . 6.g.%.+.9.6.x 2 3 V #.%.4.+.,.t.y.e.1.0.0.0.:.<.<.t.t.3.{ Q ~ 9.6.6.a.y.t.t.t.:.s 9 % @   . . . . . . 5.g.g.g.*.G ",
". . . . . . . o 7.d.5.%.w.9.j 1 3 O.+.%.9.&.3.t.e.e.:.:.0.e.,.;.' | t.t.e.e.4.#.4.u.q.e.e.,.>.>.( u > @ . . . . . . . . j 6.g.h.",
". . . . . . . . 2 h.d.9.#.5.9.j < V O.4.&.q.q.t.e.e.0.0.X.8.t.e.,.[ m b :.e.e.a.f.5.9.&.&.e.3.3.;.) H 9 - @     . . . . . .   E ",
". . . . . . . . . 4.g.d.4.&.6.6.V $ V O.&.9.9.y.y.t.e.e.0.:.o.e.t.,.;.' b & d ,.e.f.g.g.g.g.d.9.>.*.) P D 9 % O . . . . . . . . ",
"- . . . . . . . . . 2 7.h.7.%.6.w.O.k V V &.w.9.9.r.y.e.t.e.,.X.:.t.t.;._ R r @ * M e.d.g.g.h.h.g.7. .R D F D u & . . . . . . . ",
"F X . . . . . . . . . o 5.h.6.#.4.4.+.l O.O.#.4.4.w.w.r.e.3.t.t.o.;.1.t.e.o.' R > @ % ; h #.w.i.g.h.h.g.u.; y D F F y & . . . . ",
"F e . . . . . . . . . . . 4.h.s.N #.&.4.+.%.4.&.4.u.w.u.y.t.<.t.y.0.o.,.,.e.1.' ' Y ; % % % @ B #.9.7.d.h.l.V o - y F F D t % . ",
"9 F : O . . . . . . . . . . 6.g.7.j O.+.4.#.&.9.9.q.u.9.u.p.i.;.>.j.y.1.1.,.0.0.;.E E b & % % O   < B O.9.g.h.d.+.# . & i D F D ",
"X D D & O . . . . . . . . . . 4.h.7., 5 V %.%.5.u.i.k.p.w.9.i.p.r.<.e.j.t.e.1.,.8.,.' E E g & X . . . # $ C 7.g.g.g.u.$ . . % q ",
". t F t % O . . . . . . . . . . 5.h.d.N 5 #.&.4.u.i.u.i.k.p.u.u.i.p.e.1.t.j.t.3.2.1.:...E T M & X . . . . . o   C 7.h.7.Z , o . ",
". . q F 0 % O . . . . . . . . . . 7 d.h.6.j O.%.#.$.9.w.u.7.k.p.r.u.p.q.&.&.r.t.3.<.*.] X.E T r - %   . . . . . . . 5 p.h.k.u.q.",
". . . q F D - . . . . . . . . . . . o 5.g.6.B l +.9.%.%.9.w.p.l.k.u.w.u.u.9.$.%.r.e.3.-.I F H : - & % X . . . . . . . o q.7.u.q.",
". . . . y D D 0 X . . . . . X . . . . . #.f.d.O.j #.9.&.9.&.q.u.p.l.p.q.q.q.q.q.&.~  .:.| ] F F 9 & & O . . . . . . . . . . . . ",
". . . . . O 0 F D 0 X . .   % @   @ O . . q.g.g.9.O.+.#.q.6.u.w.q.u.p.p.u.q.9.q.w.q.$.@.A / R K K D 0 : % O . . . . . . . . . . ",
". . . . . .   & D F 9 % @   X @ % & % @ X . 2 s.g.d.5.#.O.9.w.u.u.w.9.8.q.u.w.9.9.9.&.$.@.c x h ` K F F D e : % O . . . . . . . ",
"Q . . . . . . . O y D 9 = & O O @ % % & % % X o 9.g.g.g.d.6.9.4.q.u.u.q.$.$.$.&.9.&.9.#.$.@.@.Z 8 5 & t D F D D 0 & @ . . . . . ",
"g.%.. . . . . . . @ F y q = - - & @ & - & % % @ o . l 6.f.g.g.d.9.&.q.w.u.i.w.9.$.+.+.^ S @.Z c x z 7 + . & y D F F D t y t % . ",
"%.g.s.. . . . . . . 0 F F y 0 = - & & - = : & % % @ X . . c 7.g.h.u.9.5.w.w.p.p.i.u.q.$.+.^ Q Z z z $ o . . . . % t y i D F F D ",
". 7.g.6.. . . . . . . X 9 F D D 9 : - - % - : - & % % @ X . . # #.h.h.d.l.z.l.q.u.u.w.q.9.9.&.$.@.S x z 5 $ # . . . . .     & q ",
". . 5.h.6.. . . . . . . . O y J y 9 9 9 : - ; - : : & % % @ X . . # r.p.q.k.z.z.g.l.w.#.@.@.+.+.#.V O.O.O.z 8 $ o . . . . . . . ",
". . . 7.h.%..   + . . . . . . % y F y t 0 9 9 e q : : : & % % % X . . . . . . 8 u.l.x.h.l.k.i.k.k.p.k.p.$.c S Z S Z Z x 8 V w.d.",
". . . . &.h.7., 7 2 5 o . o . . X 0 F F F D t 0 9 9 9 = : - % % % @   . . . . . . . $ c q.p.q.7.k.p.l.z.h.g.g.l.d.z.d.k.z.x.g.l.",
". . . . . 6.h.7.8 7 O.j 3 8 , # + . . % y F D y t 0 9 t 0 q : & % % % @   . . . . . . . . . . . . .   o c u.p.u.k.k.6.p.u.z # o ",
". . . . . . %.h.p.B , O.O.B l l B 5 $   . & D F F y t 0 0 i t 0 : & % % % @   . . . . . . . . . . . . . . . . . . . . . . . . . ",
". . . . . . . 6.h.h.4.< j O.O.+.#.#.Q Q k +   y F F F F t 0 0 0 e e - & % % % @   . . . . . . . . . . . . . . . . . . . . . . . ",
". . . . . . . . # 4.h.g.5., +.&.4.5.&.9.5.8.+.2 o : D F F D y y t t 0 = - & & % % @ . . . . . . . . . . . . . . . . . . . . . . ",
". . . . . . . . . . 5 i.g.%.O.9.5.w.u.q.%.9.u.w.$.C $ - F F D y y t y 9 q 9 : - & %   . . . . . . . . . . . . . . . . . . . . . ",
". . . . . . . . . . . + %.g.7.5.9.9.q.w.w.q.%.w.w.q.w.+.7 a D F F D D y t e e q : : * O   . . . . . . . . . . . . . . . . . . . ",
". . . . . . . . . . . . . 4.g.g.g.d.u.u.q.w.u.w.9.w.9.9.q.&.S g a F F F D D y e q : : : ; O X . . . . . . . . . . . . . . . . . ",
"q % . . . . . . . . . . . . . j 7.f.g.s.5.5.6.i.i.w.&.9.9.9.9.9.$.z p y D D F F y 0 9 = - & % % O   . . . . . . . . . . . . . . ",
"D F D t . . . . . . . . . . . . . , 4.h.h.f.5.5.u.u.w.w.9.&.$.&.9.9.$.^ f r D F F D y y e e : & % % O   . . . . . . . . . . . . ",
". % y F 0 X . . . . . . . . . . . . . , 7.g.g.d.9.&.w.w.w.w.w.%.@.O.&.9.&.+.Z n J F D D F F y t q - % % O . . . . . . . . . . . ",
". . . e F D 9 X . . . . . . . . . . . . . # &.g.h.d.w.9.9.w.i.p.u.9.@.^ +.%.$.$.@.[ ` y D F F F F y i : - % X   . . . . . . . . ",
". . . . i D F D y %     . . . . . . . . . . . + 6.d.h.z.d.9.%.9.u.l.p.u.$.Z z Z +.$.+.S z $ & y F F F F D t 9 - @ X . . . . . . ",
"W o . . . . & y F t - = = - @ . . . . . . . . . . . 7 u.g.h.g.d.&.+.$.9.w.w.9.$.S Z C Z x 7 8 , . @ = y F F F F D y D y & X   . ",
"h.7.2 . . . .   9 F D 9 t t 0 = % X . . . . . . . . . . . j w.d.g.g.l.p.q.q.q.w.w.q.#.S c z 8 5 . . . . . X & y D y D F F F y y ",
"2 7.h.6.7 . . .   t D F y y t t t 9 = & O . . . . . . . . . . . , S i.z.z.z.z.p.u.w.u.9.$.+.@.c z , # . . . . . . . .   & t y t ",
". o 9.g.h.g.w.7 , 3 5 ; u D D D y t t 0 0 = % X . . . . . . . . . . .   Z i.g.z.z.g.g.z.z.u.9.O.O.Z z , o . . . . . . . . . . . ",
". . . . 8 5.h.d.%.~ O.O.l f u D F F F D t t 0 0 : % O   . . . . . . . . . . . 7 w.k.p.g.x.z.x.z.w.+.+.^ c z < # . . . . . . . . ",
". . . . . . j d.h.d.6.&.%.W V N f > u D F D y t 0 t 9 - % O   . . . . . . . . . . . . o $ Q k.g.x.z.g.k.g.k.&.z 8 2 < o . . . . ",
". . . . . . . + 6.d.h.g.d.5.%.} V V l 3 w J D F D y t t 0 : & % O O . . . . . . . . . . . . .   z u.d.u.p.z.g.g.p.w.p.7.q.p.7.q.",
". . . . . . . . . o B p.g.d.6.#.#.O.O.O.O.l h H F F D y t t 0 - ; & % @ X . . . . . . . . . . . . . . . . . 7 u.p.9.u.7.q.7.k.w.",
". . . . . . . . . . . o x d.h.s.%.O.V l B B V z 4 0 F D D y t t 9 q : - % O X . . . . . . . . . . . . . . . . . . . . . . . . . ",
". . . . . . . . . . . . . o 4.d.g.g.7.4.%.O.V z 5 , * u D F D F D t 0 q = - & O . . . . . . . . . . . . . . . . . . . . . . . . ",
". . . . . . . . . . . . . . . . 7 6.g.h.g.s.7.d.7.%.B N Q r.s.y.a.=.D D D y F D q & O   o . . . . . . . . . . . . . . . . . . . "
};
