/* XPM */
static char *Water1655140673[] = {
/* columns rows colors chars-per-pixel */
"64 64 202 2 ",
"   c #194E78",
".  c #1D4F72",
"X  c #1F5279",
"o  c #25557B",
"O  c #235A7D",
"+  c #2B5B7E",
"@  c #1A5583",
"#  c #1D5B85",
"$  c #1C5D8B",
"%  c #215680",
"&  c #235C84",
"*  c #295E83",
"=  c #215E8A",
"-  c #2A5F89",
";  c #1C638D",
":  c #1D6592",
">  c #1E6993",
",  c #1D6B9A",
"<  c #266186",
"1  c #2B6285",
"2  c #23628E",
"3  c #2C648B",
"4  c #2E6A8E",
"5  c #326387",
"6  c #32668C",
"7  c #336A8D",
"8  c #3A6B8E",
"9  c #39708F",
"0  c #246692",
"q  c #2A6692",
"w  c #236B95",
"e  c #2B6A95",
"r  c #246D9B",
"t  c #2B6D9A",
"y  c #336C93",
"u  c #396E93",
"i  c #316F9A",
"p  c #386F98",
"a  c #25719C",
"s  c #2B739D",
"d  c #2E7093",
"f  c #347095",
"g  c #3C7295",
"h  c #34729C",
"j  c #3C749B",
"k  c #3C799E",
"l  c #1B6EA2",
"z  c #156AA0",
"x  c #1D71A5",
"c  c #1E73AA",
"v  c #1F79AE",
"b  c #236FA0",
"n  c #296FA2",
"m  c #2473A3",
"M  c #2B75A3",
"N  c #2C79A4",
"B  c #2376AB",
"V  c #2977A9",
"C  c #2579AD",
"Z  c #2C7BAC",
"A  c #3275A2",
"S  c #3B76A1",
"D  c #327AA5",
"F  c #3D7BA3",
"G  c #337DAB",
"H  c #3B7EAA",
"J  c #257CB2",
"K  c #2B7EB2",
"L  c #327EB2",
"P  c #427295",
"I  c #42769B",
"U  c #49779C",
"Y  c #447A9D",
"T  c #4A7B9D",
"R  c #507E9F",
"E  c #447DA3",
"W  c #4B7DA2",
"Q  c #417FA9",
"!  c #497FA9",
"~  c #517EA3",
"^  c #2E80AE",
"/  c #3581AE",
"(  c #3B82AD",
")  c #2680B5",
"_  c #2C81B4",
"`  c #2C84BA",
"'  c #2E89BD",
"]  c #3383B4",
"[  c #3B84B3",
"{  c #3D88B6",
"}  c #3485BA",
"|  c #3A86BA",
" . c #3489BD",
".. c #3B8BBC",
"X. c #3589B7",
"o. c #3E90BF",
"O. c #4581A5",
"+. c #4C82A4",
"@. c #4483AB",
"#. c #4C84AA",
"$. c #4C89AE",
"%. c #5283A5",
"&. c #5285AB",
"*. c #5987AA",
"=. c #548AAD",
"-. c #5B8BAD",
";. c #5D90AF",
":. c #4386B2",
">. c #4B86B1",
",. c #4489B5",
"<. c #4C8BB3",
"1. c #438DBC",
"2. c #4B8EBA",
"3. c #5186B2",
"4. c #548CB3",
"5. c #5B8DB2",
"6. c #538FBA",
"7. c #4C91BD",
"8. c #4491BF",
"9. c #5491B5",
"0. c #5C92B5",
"q. c #5493BB",
"w. c #5C94BB",
"e. c #5B98BE",
"r. c #608DAE",
"t. c #618EB5",
"y. c #6393B5",
"u. c #6395BA",
"i. c #649ABD",
"p. c #6B99BC",
"a. c #358CC1",
"s. c #3C8DC2",
"d. c #3C91C5",
"f. c #3D93C9",
"g. c #3E99CE",
"h. c #3690C4",
"j. c #428EC2",
"k. c #498FC0",
"l. c #4392C4",
"z. c #4B94C4",
"x. c #4395CA",
"c. c #4B96C9",
"v. c #4699CD",
"b. c #4C9ACC",
"n. c #5396C2",
"m. c #5B97C3",
"M. c #5499C5",
"N. c #5C9BC4",
"B. c #5297CA",
"V. c #539CCC",
"C. c #5B9DC9",
"Z. c #459BD2",
"A. c #4C9CD2",
"S. c #529ED1",
"D. c #649CC2",
"F. c #6A9DC3",
"G. c #639EC9",
"H. c #659BC7",
"J. c #5CA1CD",
"K. c #4DA0D4",
"L. c #4FA2D8",
"P. c #54A2D4",
"I. c #5CA4D3",
"U. c #53A4DA",
"Y. c #5CA6D9",
"T. c #56A8DB",
"R. c #5CAADC",
"E. c #5FB0DF",
"W. c #65A2C6",
"Q. c #6DA2C5",
"!. c #64A3CC",
"~. c #6BA4CA",
"^. c #6CAACE",
"/. c #72A4C6",
"(. c #72A6CA",
"). c #75A9CC",
"_. c #7AABCD",
"`. c #65A6D2",
"'. c #64A9D4",
"]. c #6CABD3",
"[. c #61A7D9",
"{. c #62ACDC",
"}. c #6AADD9",
"|. c #74ACD2",
" X c #79AED2",
".X c #75ABD7",
"XX c #6BB1DF",
"oX c #72B2DD",
"OX c #7BB4DB",
"+X c #7AB3D7",
"@X c #5DAEE2",
"#X c #56ABE2",
"$X c #5DB0E6",
"%X c #62AFE5",
"&X c #6DB3E2",
"*X c #67B8ED",
"=X c #69B6EA",
"-X c #71B4E1",
";X c #77BDEA",
":X c #8ABADC",
">X c #81B4D8",
",X c #83C9F6",
/* pixels */
"L ..b.L L [.S.B.,.k.k.2.2.2.n.n.F :.oX`.! B.H.! n.m.H.3.3.I 3.3.8 I 5 ! F.m.t.t.F.~ t.t.t./.u.0.p.*.=.=.|.OXJ.M.].'.&X;XP.8.z.b.",
"L K L j.k.| z.[.&XI.k.n.`.G.6.C.}.D H C.m.6.6.`.G.H.OX! ! m.3.m.! 3.! I ~ ~ ~ H.~ *.H.F.W *.>X0.+.Q.F.$.W.^.N.!.J.'.I.,XI.R.M.M.",
"j.j.Z | 1.| b.k.H V.n.Q ,.1.:.2.-X}.M.n.B.C.m.Q ! k.3.`.H.E 4.! 3.~ 3.u I ~ ~ ~ ~ ~ P u.u.W u._.T #.0.w.#.$.!.J.M.M.M.XX[.B.V.z.",
"c.S.j.L L c.S.L j.V.V.k.I.}.`.n.H M.M.J.m.Q k.m.H.S Q H.OX].! u 3.~ ~ I u ~ ~ ~ 5.5.~ U 5.-.Y i./.+.+.(.w.O.N.M.M.J.J.J.{.1.Y.V.",
"| s.S.x.s.:.:.S.| L z.[.2.H k.V.J.1.> @.&X'.J.e.`.H.q.S E H.N.w.P U ~ F.~ 5 U ~ 5.E ~ ! Y =.#.i.).).T =.+Xq.O.q.n.'.C.-XC.M.k.V.",
"V V c.B.j.s.L c.I.[ H k.k.B.B.,.7.{.V.{ 1.M.J.J.i C.q.N.#.Q H.0.U U 8 ~ H.U U U ~ ~ p ! 9.O.4.e.&.).0.E i.~.9.<.@.n.`.}.&XC.:.:.",
"L L s.| j.B.j.L B.Y.I.j.j.z.V.I.{ ,.7.1.1.,.:.e.`.Q S S F N.4.|..Xp.U 8 ~ H.t.t.&.>X5.I 4.4.#.f +.0.~.e.=.~.^.N.q.:..XB.,X`.n.2.",
"s.j.L s.j.j.S.c.c.=XY.z.B.j.H I.P.X.8.8.b.M.{ 8.:.2.H @.h Q $.9.F.(./.U ~ t.U ~ 5.5.|.w.I $.#.#.#.+.p.Q.e.$.+.~.e.@.>.>.`.,Xk.V.",
"n } j.j.| L | j.| j.A.S.Y.S.S.S.R.P.b.1./ ( ,.N J.<.F h h O.k d P P p.F.t.u.-.W ! ~ ! F.D.~.9.5.#.+.&.4.4.#.@.$.4.>.n.q.q.}.oX`.",
"A.} c | A.A.j.j.L | x.S.Y.S.k.| P.P.P.K.8.8.7.8.h }.J.( F k O.O.~ u I U W u.y.U 5.&.3.W w.e.D.@.0.T 9.0.0.y.j j 9.q.4.N.!.!.].n.",
"U.U.A.j.| x.c.j.| L L x.S.S.c.s.s.l.l.b.V.z.n.J.( D !.N.h ( #.9.9.=.T g u W u.W W 5.0.p W 4.e.Y +.+.Y =.Q.).F.E $.e.m.|.oXN.`.].",
"L A.%XA.| j.A.A.b.j.L L s.A.S.@Xl.d.} ..l.{ / 1.7.2.h q.W.Y j e O.;.9.-.I u =.&.5.&.W 5.E Y &.|.%.O.-.7 k  X(.OX&.I H.6.e.].@.oX",
"| L } x.A.x.s.x.A.x.s.} L } A.#X=X@Xb.b.P.z.G D ( ( #.h 0..X@.y 4 f O.9.9.Y +.W I F.(.5.P &.T 9 O.;.=.%.I Y D.Q.9./.h =.W.<.!.@.",
"x.} } j.x.j.| | s.x.A.A.x.} | x.#XU.A.S.R.[.k.[ e ( ( k q $.OX0.k f d $.=.O.#.y.W U y.(.:XF.Q.Q.0.Y ;.=.5.y.I =.F.i.e.#.e.^.9.@.",
"L s.f.s.s.A.U.A.s.s.x.L.A.x.a.a.} ....| 1.S.S.,.:.2.@.f h f f |.9.O.O.O.#.O.Y w.y.&.*.U *.%.*.+.).0.O.Y %.0.i.5.3.=.w.$.$.e.9.<.",
"A.j.} s.A.U.A.f.x.} ` s.A.A.x.x.A.U.U.j.| V.[.2.7.k A q.3.j E $.$.O.$.9.0.=.3 7 E 5.&.*.T y.%.P %./._.O.u 0.0.&.=.&.+.$.#.9.~.e.",
"s.| } L | x.A.A.#XA.s.Z.Z.s.a.a.a.x.*XA.c.c.k.k.@.q.n.N.D.@.I &.i.+.j O.&.y.5.P P R y.r.*.r.r.R 9 +.;.;.+.Y %.i.9 ;.;.O.i.+.;.+X",
"c.f.s.} s.f.s.L K x.x.K | A.L.a.s.s.j.#Xc.c.j.k.z.<.h e #.4.E y D.i.#.Y 4.5.5.(.~ P P P R y.y.r.y.%.P %.%.+.+.;.Q.+ ;.^.+.Q.O.0.",
"s.Z.A.x.s.} x.L.a.a.} a.s.f.Z.f.x.Z.} U.c.j.k.Q ,.7.@.S F O.! O.j 0.D.3.E #.W 1 r.U U T R ~ r.*.%.%.+.%.;.+.O.9 i.;.O ;.F.j p.%.",
"L x.U.A.f.f.A.%Xx.s.Z.A.s.c J U.f.x.A.x.S.j.S.L G :.n.m.>.j F 4.q.E &.F.9.&.4.#.W U ~ r.R P T ~ 8 P +.%.;./.;.+.=.W.O.+ F.+.#.;.",
"a.a.f.Z.A.Z.s.a.#Xf.J } Z.Z.s.K  .X.P.d.x.z.z.1.G t s @.6.>.F y y y e ! e.+.y I U j u 8 u R *.*.:X/.%.+ + T ;.%.=.W 4.Y g D.6 j ",
"a.` ` a.a.a.a.a.f.f.s.K ` a.s.} } _ l.K...c.] z.( D D H :.q.2.A F >.F 3 4 ! W j &.W P 8 8 ~ r.-.%.%.r.%.T 9 9 +.9.E j +.E &.&.p ",
"J ` J J J J a.Z.Z.f.a.a.} } } K  ._ ..K.l.b.1.1.[ ,.n.7.:.7.C.q.@.t @.q.@.S ! E @.W &.~ P P ~ %.r.r.%.%.%.%.P +.;.O.O.y 0.&.3.4.",
"` ` ` ` a.J J J Z.A.Z.s.} } a.K Z _ _ ..b.x.I.L 8.] 1.J.M.n.M.7.C.N.2.@.>.F h ! u y E &.W g U %.P %.%.%.9 P +.9 k 9.O.3.>.4.#.#.",
"J ` f.a.` J ` ` K a.x.s.s.s.a.L  .` s.b.o.o.l.1.{ / r [ H r H H ( ( A 2.6.Q @.I 4.j - y &.g 5 g +.+ ;.=.+ O.+.4 3 $.O.O.^.e.f j ",
"` J J ` a.s.a.J J K } s.d.x.x.s.X.X.K X.K...] P.{ b.1.M [ | Z [ D [ G e M 2.2.Q F ! E u j W T P P ;.O.+.;.O O.9.O.d g O.f $.e.k ",
"J ` a.a.} K } | f.s.s.s.a.} } } _ o...] Z o.l.X.V l.A.] 1.R.b.P.S.[ | G A A i <.E F k f 6 6 7 7 +.9 ;.;.0.0.d O.W.=.O.k F @.$.$.",
"a.` J a.s.s.a.} L } } s.| K K ..o.] l.K.X.^ c.K.l.m ..b.} l.c.| V.I.{.z.G A A H q.@.F j 7 u p 5 ;.r.+.+.+.;.9.O k e.O.w $.>.k >.",
"} J L L L } | s.J J L } | L _ ] Z X.X.d.v.^ ^ T.T._ _ K...^ ..Z { b.V.I.M.[ :.:.>.>.@.y 3 +.=.7 . %.;.-.+.=.9.O.d $.9.( h 9.7.h ",
"B L | L L n L j.A.| K V K L K V Z _ ] _ X.X._ ^ K.b.Z  .v.} s.s.l.| K I.Y.[ ,.,.H F F p 3 7 j g + + -.+.4 O.9.^.$.O.9.q.k ( q.@.",
"| L n L | | L n j.j.L L K L s.s.b.^ ] b.8.o.X.^ X.K.d._  .} J } } l.j.] | k.1.A <.@.( #.E 1 1 Y O.9 P p.$.9 $.> ( d d $.O.( $.q.",
"n n n L L L n L z | Y.S.j.L } s.^ l.o.^ d.K.d.^ ^ ..R.v.X.l.| s.] } l.[ L 1.,.2.@.>.@.O.! u 1 9 + + 9 O.i.$.+ O.O.O.$.O.( <.9.( ",
"s a r a D ( ] Z Z ] V Z l.v.d.c.b.^ { b.o.Z X.b.o.^ X.c..._ ..l.l.} ..c.8.M.M.<.4.>.$.&.&.j 6 E y - p p 3 k 9.<.( g ( 9.O.O.q.$.",
"; G { M M [ | G M L X.o.s._ Z ^ } l...] l...V } o.o.c.b.b.b.M.l.s.d.s.l.M.,.H n.q.4.&.4.D.5.W I p S p j #.h e $.d ( h k $.( ( $.",
"[ w ; s G M b N Z Z } l.l...^ l Z } ..X.] o.l.] X.o.o.8.b.z.8.d. .f.} ] c.M.@.F 6.+.Y f E &.! p I @.p & 7 f d O.O.O.( f O.O.O.d ",
"D D D M s s N G Z V Z J ] l.x.C B a } 8.^ } x.l.} ] Z ] 8.X.] l.} } v.c.] { 2.@.q.@.! j 3 p &.! y 4 k j 4 g k < k =.O.1 O.+.> O.",
"w t G G A N G Z Z m M V l ^ o.X.m / V ^ o./ m X.{ } Z X.l...] l.K._ } l.| G [ 2.>.#.<.4.j p E I W * 7 #.O.9 k j O.+ O.O.O O.$.O.",
"H q $ r G r r G 1.Z m Z ^ x v X._ ^ Z Z X...^ m Z X.} ] X...] _ T.d.l l ..,.M H :.@.>.4.! p u y &.E 7 1 k f f ;.O.O.$.O.O.O.O.9.",
"n Q Q n 0 N / ( z.{ C Z ^ ^ ^ X.X.M Z } ] l.K.X.C / ] / Z ] ] C _ Z.s.m m G M A :.<.>.#.#.! E E 7 +.P 1 8 P 9 9 ;.O.;.;.O.+ O.O.",
"0 0 A H [ ( N s Z 8.X.B ^ X.X.d.] / Z Z { X.z.{.../ } .._ Z ] X._ ' Z.x.Z Z ] t t 2.2.Q Q Q Y ! g 7 g 7 O 7 j 5 + O.+ O.=.+ + +.",
"1.n 2 n Q G n M G / Z Z ^ ^ ^ a / a N / ....} ...._ V X.l...} X.X.' a.s.d...G m N t t F ! j f g +.j 9 g j 1 + 7 + O.+.+.%.9 + O.",
"n H H n n A Z 0 m a a m m a a ^ Z Z ^ a a Z N Z l...X._ _ s..._ a.a. . .] _ V a N D h t h F E f Y Y T 9 + g Y g O.+ 9 +.9 O.+.9 ",
"= n A A A G H L M a a s a a a / N / { / N / Z Z X.l.d.] } l.f.` ` a.d.a._ B V Z r M A i h k j y O #.+.f g f 1 * O.+.9 O.Y +.+.%.",
"n $ 2 V G r 0 n / / G ^ ^ N ^ X.( D { ....{ G [ ] X...l.l.f.d...`  .h.h.a.} ] J m b t S D f y g 7 < g Y d Y 5.=.O.9 9 + P 9 9 %.",
"N t r s G [ G s ( { ( / h / / M 1.G N D / / V Z Z } ..l.h... .` h.' ) ' g.f.} m L M r t t y f ! f k g O.9.E 3 j y % 6 p + < j I ",
"r N G N G ,.2.1.D [ / D N / D s ( G G a N ] Z m m ] X.K _  .o._ a.' ` ) ` ) J J B m r 2 2 e h y k 3 < < & j 3.E y 6 y y 1 < 7 j ",
"r r a M a r r N s D / D / ( H H N G { / ^ { / / m ^ _ Z _ X.d.h._ ' ' ` ) C _ X., m n t i f y & e F k d F E i y q p 6 - y %   u ",
", > > r r r r r a a h ( / h ( 2./ Z [ ] N N ^ c.} ^ ] s.d.` ) h.` ) J ' g.g.h.` _ m r N D h e y & < s k i p j p u - 6 E 6 * 3 3 ",
"r ; ; > > d ^ ^ < d d ^ d ^ O.^ Z V Z Z / G Z D 8.^ V ] h. .` ' h.a.) ) a.f.g.h.} s.L , $ i S A 2 # 0 2 j e j p h W U 3 I + o 5 ",
"> a a ^ ^ d d ^ ^ ^ > ^ ^ d d d b m m M V M Z / ..X.^ ^ X. . .h.' g.g.a.J a.a.` L } L L L G n 0 @.h e q i y y y 6 p p 6 o 5 5 + ",
"O ^ ^ w > ^ > ^ O.d > d ^ d ^ > M V V M a , N ] ^ ^ _ ^ _ ` h.h.) a.a.v v ) J c K n b n n A A F >.D q q q i y e 6 3 y P   8 P o ",
"> > d > > d > d ^ > d ^ O.^ d ^ H L L V m a N ] m V Z Z B ) ) ) h.) v ) a.a.a.a.J C n n n n 0 2 p f 2 s e j 3 3 j - u ! 6 u P 5 ",
"> > ^ ^ O ^ ; > > d O.^ ^ O.^ ^ M M M M N N G / { ] ] X...) C ) ) v ) ' a.J a.h.K L Z n n A n t t t e S e h 3 3 p 6 p p P 8 P p ",
"> > O ^ ^ ^ ^ d O O.^ ^ O ^ ^ O.b r r M G N G G ] / X.o.v. .` ` v ) ) ) K a.J c C J n b n G Q :.0 e e t q y e q - 6 p X - - p P ",
"> O ^ ^ > ^ > > > ^ ^ > O ^ O.O.N M r M A M M r , , b ^ _ ) C ) h.h.h.a.a.Z.f.J V J K L V r w q q q q $ 0 q y q @ q q - - - y u ",
"> ^ > O O ^ ^ < ^ O > O > ^ + ^ s t r M t w 0 r a M V B Z ) ) ) J ) a.) J a.s.Z.s.L Z n b : r G s e e $ q 2 q & & - q ! - - - 6 ",
"^ s a d w a w w > > w w w w d s t A t t H G w r V L V L K ` ` J v c v J J B J a.K } L m r r n q Q Q n q = = = q = e q q Q Q - % ",
"d d > > w s s s O > > d w w d h A A n A @.G s N L n n B J ` ` J v J J J J J J c B C Z m b r r 0 n q i q q n q q q - = = - p S i ",
"a a s s s / s s > > d a w 0 > d A h e t D A s A A n n K } f.s.a.v ` J J K a.a.J c V C M r : w r 2 q q n i q = = 0 @ q 2 @ 2 i = ",
"d s s / h s d ; ^ d d a w ; 0 s t e 0 0 e t e w 0 b l c L } a.} J J J v J a.f.f.` Z V V r : , A q n q 0 0 = = - = q i i = = - @ ",
"> w > ; ; ; > ; 0 0 a d 0 0 d A e f t ; 2 t t 2 0 l n B B K B J a.K J c c J ` s.} K Z V b : r M n i q 0 q n p n q n n q q q q n ",
"; ; ; ; ; ; ; ; ; > 0 w 0 ; 0 s t t h e ; e s 0 0 b n V K J J J ` J c c c c c J J B V V b : $ : i q q t q n n p - S n q n q = i ",
"; > a w w ; ; ; w 0 0 0 ; $ ; 2 h q h h q q t 0 : 0 b l c B B B J B c c c c z c l , l l b , : $ 0 0 0 t q n q $ = q q q n 0 $ $ ",
"2 w > > ; ; 3 w ; ; 0 0 0 2 2 2 h 2 t F h 0 t n G G n B J J J B J K c z c J c z B x b r b M n r : = = 2 0 n 0 @ n $ q n = - n $ "
};
